<svg width="29" height="28" viewBox="0 0 29 28" fill="none" xmlns="http://www.w3.org/2000/svg">
<path d="M23.3963 24.5287L24.6934 23.2321L22.8204 21.3586L21.5234 22.6553L23.3963 24.5287Z" fill="url(#paint0_linear)"/>
<path d="M4.88876 24.5316L6.76172 22.6582L5.46469 21.3615L3.59173 23.235L4.88876 24.5316Z" fill="url(#paint1_linear)"/>
<path d="M14.111 7.1327C10.3206 7.1327 7.26389 10.2302 7.26389 13.9798C7.26389 16.7104 8.89414 19.1966 11.3803 20.2562L11.7471 20.4193L11.7471 26.981C11.7471 27.5516 12.1954 27.9999 12.766 27.9999L15.4559 27.9999C16.0265 27.9999 16.4748 27.5516 16.4748 26.981L16.4748 20.4193L16.8416 20.2562C19.3278 19.1558 20.958 16.7104 20.958 13.9798C20.958 10.1894 17.9013 7.1327 14.111 7.1327Z" fill="url(#paint2_linear)"/>
<path d="M22.8182 6.59777L24.6914 4.72455L23.3946 3.4277L21.5213 5.30092L22.8182 6.59777Z" fill="url(#paint3_linear)"/>
<path d="M25.4827 14.9171L28.1318 14.9171L28.1318 13.0831L25.4827 13.0831L25.4827 14.9171Z" fill="url(#paint4_linear)"/>
<path d="M13.2158 2.64955L15.0498 2.64955L15.0498 0.00039196L13.2158 0.0003918L13.2158 2.64955Z" fill="url(#paint5_linear)"/>
<path d="M5.46194 6.60036L6.75879 5.30351L4.88557 3.43029L3.58872 4.72714L5.46194 6.60036Z" fill="url(#paint6_linear)"/>
<path d="M0.131114 14.9172L2.78027 14.9172L2.78027 13.0832L0.131114 13.0832L0.131114 14.9172Z" fill="url(#paint7_linear)"/>
<defs>
<linearGradient id="paint0_linear" x1="24.4154" y1="23.5099" x2="22.0983" y2="22.8138" gradientUnits="userSpaceOnUse">
<stop stop-color="#263465"/>
<stop offset="1" stop-color="#2D318E"/>
</linearGradient>
<linearGradient id="paint1_linear" x1="6.36037" y1="23.0596" x2="4.77389" y2="22.124" gradientUnits="userSpaceOnUse">
<stop stop-color="#263465"/>
<stop offset="1" stop-color="#2D318E"/>
</linearGradient>
<linearGradient id="paint2_linear" x1="18.0236" y1="27.9999" x2="8.7321" y2="11.6329" gradientUnits="userSpaceOnUse">
<stop stop-color="#263465"/>
<stop offset="1" stop-color="#2D318E"/>
</linearGradient>
<linearGradient id="paint3_linear" x1="24.29" y1="5.12595" x2="22.7037" y2="4.19012" gradientUnits="userSpaceOnUse">
<stop stop-color="#263465"/>
<stop offset="1" stop-color="#2D318E"/>
</linearGradient>
<linearGradient id="paint4_linear" x1="27.5642" y1="14.9171" x2="27.1042" y2="13.1337" gradientUnits="userSpaceOnUse">
<stop stop-color="#263465"/>
<stop offset="1" stop-color="#2D318E"/>
</linearGradient>
<linearGradient id="paint5_linear" x1="14.6568" y1="2.64955" x2="13.5103" y2="0.519026" gradientUnits="userSpaceOnUse">
<stop stop-color="#263465"/>
<stop offset="1" stop-color="#2D318E"/>
</linearGradient>
<linearGradient id="paint6_linear" x1="6.48089" y1="5.58141" x2="4.16372" y2="4.8856" gradientUnits="userSpaceOnUse">
<stop stop-color="#263465"/>
<stop offset="1" stop-color="#2D318E"/>
</linearGradient>
<linearGradient id="paint7_linear" x1="2.2126" y1="14.9172" x2="1.75261" y2="13.1337" gradientUnits="userSpaceOnUse">
<stop stop-color="#263465"/>
<stop offset="1" stop-color="#2D318E"/>
</linearGradient>
</defs>
</svg>
