<svg width="28" height="28" viewBox="0 0 28 28" fill="none" xmlns="http://www.w3.org/2000/svg">
<path d="M26.9489 17.3735L22.372 2.43268C22.1298 1.75091 21.6995 1.15781 21.1345 0.727032C20.5695 0.296251 19.8948 0.0467674 19.194 0.00956285C18.4209 -0.0463978 17.6498 0.144351 16.9846 0.556099C16.3194 0.967848 15.7922 1.5808 15.4739 2.31235C15.4254 2.41304 15.4001 2.52399 15.4 2.6365V7.7092H12.6V2.6365C12.5999 2.52399 12.5747 2.41304 12.5262 2.31235C12.2079 1.58079 11.6806 0.967827 11.0155 0.556077C10.3503 0.144328 9.57914 -0.046413 8.806 0.00956285C8.10524 0.0467674 7.43047 0.296251 6.86549 0.727032C6.3005 1.15781 5.8702 1.75091 5.628 2.43268L1.05112 17.3735C0.702835 18.5222 0 20.4292 0 21.478C2.48978e-08 23.2077 0.663748 24.8666 1.84523 26.0897C3.02671 27.3129 4.62914 28 6.3 28C7.97086 28 9.57329 27.3129 10.7548 26.0897C11.9363 24.8666 12.6 23.2077 12.6 21.478V16.4053H15.4V21.478C15.4 23.2077 16.0637 24.8666 17.2452 26.0897C18.4267 27.3129 20.0291 28 21.7 28C23.3709 28 24.9733 27.3129 26.1548 26.0897C27.3363 24.8666 28 23.2077 28 21.478C28 20.4292 27.2972 18.5222 26.9489 17.3735ZM6.3 25.1013C5.60777 25.1013 4.93108 24.8888 4.3555 24.4907C3.77993 24.0925 3.33133 23.5266 3.06642 22.8646C2.80151 22.2025 2.7322 21.4739 2.86725 20.7711C3.0023 20.0682 3.33564 19.4226 3.82513 18.9159C4.31461 18.4091 4.93825 18.064 5.61718 17.9242C6.29612 17.7844 6.99985 17.8562 7.63939 18.1304C8.27893 18.4047 8.82556 18.8691 9.21014 19.4649C9.59473 20.0608 9.8 20.7613 9.8 21.478C9.79903 22.4386 9.42997 23.3597 8.7738 24.0389C8.11763 24.7182 7.22796 25.1003 6.3 25.1013ZM21.7 25.1013C21.0078 25.1013 20.3311 24.8888 19.7555 24.4907C19.1799 24.0925 18.7313 23.5266 18.4664 22.8646C18.2015 22.2025 18.1322 21.4739 18.2673 20.7711C18.4023 20.0682 18.7356 19.4226 19.2251 18.9159C19.7146 18.4091 20.3382 18.064 21.0172 17.9242C21.6961 17.7844 22.3999 17.8562 23.0394 18.1304C23.6789 18.4047 24.2256 18.8691 24.6101 19.4649C24.9947 20.0608 25.2 20.7613 25.2 21.478C25.199 22.4386 24.83 23.3597 24.1738 24.0389C23.5176 24.7182 22.628 25.1003 21.7 25.1013Z" fill="url(#paint0_linear)"/>
<defs>
<linearGradient id="paint0_linear" x1="6" y1="3.23568e-07" x2="15.5" y2="25.5" gradientUnits="userSpaceOnUse">
<stop stop-color="#263465"/>
<stop offset="1" stop-color="#2D318E"/>
</linearGradient>
</defs>
</svg>
