<svg width="28" height="29" viewBox="0 0 28 29" fill="none" xmlns="http://www.w3.org/2000/svg">
<path d="M27.5891 13.5299L23.7453 11.616L16.2464 15.3479C15.5547 15.6923 14.7785 15.8745 14.0014 15.8745C13.2243 15.8745 12.4481 15.6933 11.7574 15.3479L4.25565 11.616L0.410858 13.5299C0.15846 13.6551 0 13.9066 0 14.1827C0 14.4569 0.15846 14.7103 0.410858 14.8355L12.5933 20.8978C13.0355 21.117 13.5194 21.227 14.0014 21.227C14.4834 21.227 14.9683 21.1179 15.4095 20.8978L27.5891 14.8355C27.8415 14.7103 28 14.4579 28 14.1827C28 13.9066 27.8415 13.6551 27.5891 13.5299Z" fill="url(#paint0_linear)"/>
<path d="M27.5891 20.5907L23.7453 18.6769L16.2464 22.4088C15.5547 22.7532 14.7785 22.9354 14.0014 22.9354C13.2243 22.9354 12.4481 22.7541 11.7574 22.4088L4.25565 18.6769L0.410858 20.5907C0.15846 20.716 0 20.9674 0 21.2436C0 21.5178 0.15846 21.7711 0.410858 21.8964L12.5933 27.9587C13.0355 28.1778 13.5194 28.2879 14.0014 28.2879C14.4834 28.2879 14.9683 28.1788 15.4095 27.9587L27.5891 21.8964C27.8415 21.7711 28 21.5187 28 21.2436C28 20.9674 27.8415 20.716 27.5891 20.5907Z" fill="url(#paint1_linear)"/>
<path d="M0.410858 7.69813L12.5933 13.7604C13.0355 13.9796 13.5194 14.0906 14.0014 14.0906C14.4834 14.0906 14.9683 13.9805 15.4095 13.7604L27.5891 7.69813C27.8415 7.57288 28 7.32143 28 7.04531C28 6.76919 27.8415 6.51774 27.5891 6.39249L15.4105 0.331153C14.9674 0.110068 14.4844 0 14.0014 0C13.5185 0 13.0336 0.110068 12.5924 0.330204L0.410858 6.39249C0.15846 6.51869 0 6.77014 0 7.04626C0 7.32143 0.15846 7.57288 0.410858 7.69813Z" fill="url(#paint2_linear)"/>
<defs>
<linearGradient id="paint0_linear" x1="6" y1="11.616" x2="7.25414" y2="21.4234" gradientUnits="userSpaceOnUse">
<stop stop-color="#263465"/>
<stop offset="1" stop-color="#2D318E"/>
</linearGradient>
<linearGradient id="paint1_linear" x1="6" y1="18.6769" x2="7.25414" y2="28.4842" gradientUnits="userSpaceOnUse">
<stop stop-color="#263465"/>
<stop offset="1" stop-color="#2D318E"/>
</linearGradient>
<linearGradient id="paint2_linear" x1="6" y1="1.62831e-07" x2="8.64673" y2="14.1174" gradientUnits="userSpaceOnUse">
<stop stop-color="#263465"/>
<stop offset="1" stop-color="#2D318E"/>
</linearGradient>
</defs>
</svg>
