<svg width="28" height="28" viewBox="0 0 28 28" fill="none" xmlns="http://www.w3.org/2000/svg">
<path d="M11.6665 19.8334C11.6665 15.5655 14.9593 12.0585 19.1348 11.7008C18.9038 10.9469 18.6392 10.2175 18.3067 9.55674C14.3325 12.3571 9.0006 12.355 5.0288 9.55429C4.67565 10.2609 4.3953 11.0425 4.15625 11.8513L0.8932 10.5L0 12.6556L3.65715 14.1683C3.5637 14.8725 3.50105 15.5904 3.50105 16.3334H0.00105009V18.6665H3.6652C3.76215 19.3525 3.90775 20.0154 4.08555 20.6514L0.00105009 22.3443L0.8932 24.5L4.8902 22.8434C6.3574 25.9535 8.84485 28 11.6679 28C13.02 28 14.2915 27.5215 15.415 26.6899C13.1635 25.236 11.6665 22.7066 11.6665 19.8334Z" fill="url(#paint0_linear)"/>
<path d="M14.94 5.6602L16.9158 0.8932L14.7605 0L12.7781 4.78765C12.4134 4.7145 12.0441 4.66655 11.6672 4.66655C11.2888 4.66655 10.9185 4.7145 10.5538 4.78765L8.57145 0L6.4158 0.8932L8.39155 5.66265C7.6191 6.1502 6.90615 6.7928 6.2793 7.581C9.4853 9.8959 13.848 9.8959 17.0551 7.581C16.4282 6.79245 15.7139 6.14775 14.94 5.6602Z" fill="url(#paint1_linear)"/>
<path d="M24.6971 23.0465C25.3064 22.1235 25.6665 21.0207 25.6665 19.8335C25.6665 16.6114 23.0552 14 19.8334 14C16.6113 14 14 16.6114 14 19.8335C14 23.0552 16.6113 25.6666 19.8334 25.6666C21.0217 25.6666 22.1245 25.3068 23.0475 24.696L26.3501 28L28 26.3501L24.6971 23.0465ZM19.8334 23.3335C17.9 23.3335 16.3334 21.7658 16.3334 19.8335C16.3334 17.899 17.9 16.3335 19.8334 16.3335C21.7665 16.3335 23.3334 17.899 23.3334 19.8335C23.3334 21.7658 21.7665 23.3335 19.8334 23.3335Z" fill="url(#paint2_linear)"/>
<defs>
<linearGradient id="paint0_linear" x1="4.10032" y1="9.55429" x2="10.1858" y2="26.4991" gradientUnits="userSpaceOnUse">
<stop stop-color="#263465"/>
<stop offset="1" stop-color="#2D318E"/>
</linearGradient>
<linearGradient id="paint1_linear" x1="8.5884" y1="1.07669e-07" x2="11.4084" y2="8.75459" gradientUnits="userSpaceOnUse">
<stop stop-color="#263465"/>
<stop offset="1" stop-color="#2D318E"/>
</linearGradient>
<linearGradient id="paint2_linear" x1="17" y1="14" x2="21.75" y2="26.75" gradientUnits="userSpaceOnUse">
<stop stop-color="#263465"/>
<stop offset="1" stop-color="#2D318E"/>
</linearGradient>
</defs>
</svg>
