<svg width="38" height="28" viewBox="0 0 38 28" fill="none" xmlns="http://www.w3.org/2000/svg">
<g clip-path="url(#clip0)">
<path d="M31.6195 13.0574V12.3068C31.6195 5.50332 26.0665 0 19.3136 0H19.2115C13.409 0 8.40593 4.00209 7.20476 9.65726C3.19902 9.95323 0 13.3068 0 17.4111V17.6623C0 21.9636 3.50137 25.4157 7.75427 25.4157H11.0833C9.96235 23.8607 9.29427 21.9581 9.29427 19.8987C9.29427 19.5051 9.31889 19.1098 9.36678 18.7222C9.95231 13.995 13.9918 10.4293 18.7632 10.4293C19.9835 10.4293 21.1719 10.6582 22.296 11.1102C25.9023 12.5608 28.233 16.0102 28.233 19.8987C28.233 21.9581 27.565 23.8607 26.444 25.4157H31.07C34.3711 25.4157 37.0736 22.7133 37.0736 19.4126V19.0601C37.1228 15.9103 34.7223 13.3068 31.6195 13.0574ZM21.7857 12.3797C20.8249 11.9935 19.8079 11.7979 18.7632 11.7979C14.6813 11.7979 11.2251 14.8473 10.7239 18.8918C10.6829 19.2233 10.6619 19.5617 10.6619 19.8992C10.6619 24.3659 14.296 28 18.7632 28C23.2304 28 26.865 24.3659 26.865 19.8992C26.865 16.5724 24.8712 13.6201 21.7857 12.3797ZM22.6864 19.9096C22.4192 20.1769 21.9864 20.1769 21.7192 19.9096L19.4477 17.6386V24.2706C19.4477 24.6482 19.1412 24.9547 18.7637 24.9547C18.3861 24.9547 18.0796 24.6482 18.0796 24.2706V17.6377L15.8077 19.9096C15.6741 20.0433 15.499 20.1098 15.3238 20.1098C15.1487 20.1098 14.9736 20.0433 14.84 19.9096C14.5728 19.6424 14.5728 19.2096 14.84 18.9424L18.2793 15.5026C18.2798 15.5026 18.2807 15.5017 18.2816 15.5017C18.4052 15.3786 18.5758 15.302 18.7637 15.302C18.9538 15.302 19.1253 15.3804 19.2493 15.5049L22.6864 18.942C22.9536 19.2096 22.9536 19.6424 22.6864 19.9096Z" fill="#2A327B"/>
</g>
<defs>
<clipPath id="clip0">
<rect width="37.0743" height="28" fill="white"/>
</clipPath>
</defs>
</svg>
