<svg width="28" height="29" viewBox="0 0 28 29" fill="none" xmlns="http://www.w3.org/2000/svg">
<path d="M20.6332 19.497C20.6332 19.1396 20.296 18.9051 18.6775 18.047C18.6952 17.7771 18.699 17.5082 18.6911 17.2414C20.6354 16.1451 20.6986 15.958 20.6127 15.5364C20.3586 14.2918 19.8845 13.1148 19.2041 12.04C19.1823 12.0055 19.1535 11.9676 19.1162 11.9309C19.0912 11.8911 19.066 11.8513 19.0397 11.8118C18.9253 11.6408 18.7363 11.5432 18.5221 11.5432C18.4181 11.5432 18.2313 11.5432 16.6388 12.0495C16.4185 11.7963 16.1843 11.558 15.9375 11.3361C16.5695 9.45063 16.6144 9.22719 16.201 8.94749C15.0905 8.1972 13.8652 7.73293 12.5583 7.45039L12.4957 7.49653H12.4787C12.4597 7.49653 12.4411 7.50032 12.4224 7.49653H12.362H12.302C11.949 7.49653 11.8403 7.35842 10.8324 9.2275C10.6832 9.21929 10.5344 9.07675 10.388 9.07675H10.3327H10.2673C10.121 9.07675 9.97244 9.14786 9.82295 9.15576C8.81541 7.28699 8.70637 7.31986 8.35335 7.31986L8.23389 7.34862C8.21398 7.35273 8.19438 7.36537 8.17447 7.3698L8.09767 7.38686C6.79051 7.66909 5.5649 8.19499 4.45495 8.94527C4.04157 9.22466 4.08644 9.44936 4.71853 11.3349C4.47233 11.5571 4.23783 11.7957 4.01723 12.0488C2.42469 11.5425 2.23791 11.5428 2.13424 11.5428C1.91997 11.5428 1.73129 11.6408 1.61625 11.8121C1.61562 11.8131 1.61467 11.8146 1.61372 11.8159L1.59096 11.8206L1.45254 12.039C0.771147 13.1152 0.297081 14.2918 0.043298 15.5357C-0.0426659 15.9573 0.0202268 16.1447 1.96484 17.2411C1.95631 17.5078 1.96105 17.7765 1.97843 18.0467C0.355549 18.907 0.0205428 19.1408 0.0227552 19.4996L0 19.5299L0.0553076 19.7951C0.318572 21.0545 0.806543 22.2415 1.50595 23.3246C1.57548 23.4321 1.74172 23.6119 2.07451 23.6119C2.4329 23.6119 3.48185 23.3433 4.16546 23.1574C4.36899 23.3771 4.58485 23.5866 4.81177 23.7842C4.27228 25.4447 4.14207 25.9187 4.31178 26.1801L4.31684 26.2442L4.56051 26.4054C5.67172 27.1374 6.89544 27.6449 8.19754 27.913L8.25696 27.9253L8.52939 27.9237L8.64696 27.8289C8.64948 27.8276 8.65201 27.8257 8.65422 27.8238L8.70353 27.8004L8.77811 27.7233C8.79518 27.7053 8.81888 27.6775 8.83089 27.6623C9.05465 27.395 9.59351 26.413 9.91081 25.8198C10.03 25.8255 10.1504 25.8277 10.2711 25.8277L10.2863 25.8271L10.328 25.8277L10.3517 25.8271H10.3846C10.505 25.8271 10.6254 25.8245 10.7445 25.8198C11.0618 26.4124 11.5988 27.3934 11.8147 27.6506C11.8365 27.6784 11.8602 27.7063 11.8842 27.7309L11.9585 27.8046L12.0014 27.8251C12.0043 27.827 12.0068 27.8848 12.0093 27.8867L12.1282 28.0394H12.338H12.3987L12.4581 27.9702C13.7602 27.7022 14.9839 27.1658 16.0831 26.4411L16.3398 26.2616L16.3451 26.1864C16.5139 25.9254 16.3831 25.4462 15.8445 23.7883C16.0711 23.5907 16.2873 23.3793 16.4908 23.16C17.1748 23.3458 18.2231 23.6132 18.5818 23.6132C18.9149 23.6132 19.0808 23.4327 19.1507 23.3253C19.8501 22.2425 20.3377 21.0551 20.5981 19.8099L20.6544 19.5245L20.6332 19.497ZM10.3289 21.2716C8.25601 21.2666 6.5715 19.6146 6.5715 17.5445C6.5715 15.4744 8.25601 13.8174 10.3264 13.8174H10.3293C12.3993 13.8174 14.0835 15.4744 14.0835 17.5445C14.0835 19.6146 12.3993 21.2666 10.3289 21.2716Z" fill="url(#paint0_linear)"/>
<path d="M26.5857 4.6765L26.9937 2.60104L26.8468 2.40162C26.3629 1.74456 25.7618 1.20286 25.0608 0.791057L24.8462 0.665272L22.7844 1.30463L21.4355 0L21.1596 0.0417178C20.3856 0.159286 19.6246 0.43614 18.9593 0.843204L18.7485 0.97215L18.4163 2.66077L16.7773 3.16929L16.6718 3.39431C16.3349 4.11299 16.1418 4.91416 16.1136 5.71028L16.1035 5.99408L17.5365 7.135L17.1215 9.24365L17.2691 9.44339C17.7419 10.0837 18.3547 10.6358 19.0402 11.04L19.2554 11.1668L21.316 10.5271L22.6943 11.833L22.967 11.7906C23.7492 11.6693 24.4872 11.3981 25.1604 10.9838L25.3705 10.8545L25.7027 9.16558L27.3325 8.65928L27.4381 8.43457C27.75 7.76993 27.9327 7.05947 27.9823 6.32214L27.9997 6.06393L26.5857 4.6765ZM22.0546 8.18142C20.8056 8.18142 19.7898 7.16534 19.7898 5.91634C19.7898 4.66733 20.8056 3.65125 22.0546 3.65125C23.3036 3.65125 24.3194 4.66733 24.3194 5.91634C24.3194 7.16534 23.3036 8.18142 22.0546 8.18142Z" fill="url(#paint1_linear)"/>
<defs>
<linearGradient id="paint0_linear" x1="4.42594" y1="7.31982" x2="11.4725" y2="26.1749" gradientUnits="userSpaceOnUse">
<stop stop-color="#263465"/>
<stop offset="1" stop-color="#2D318E"/>
</linearGradient>
<linearGradient id="paint1_linear" x1="18.6527" y1="1.36742e-07" x2="22.6513" y2="10.7904" gradientUnits="userSpaceOnUse">
<stop stop-color="#263465"/>
<stop offset="1" stop-color="#2D318E"/>
</linearGradient>
</defs>
</svg>
