<svg width="87" height="16" viewBox="0 0 87 16" fill="none" xmlns="http://www.w3.org/2000/svg">
<path opacity="0.5" d="M2 6.96463C1.42818 6.96463 0.964627 7.42818 0.964627 8C0.964627 8.57182 1.42818 9.03537 2 9.03537V6.96463ZM85.7321 8.73212C86.1365 8.32778 86.1365 7.67222 85.7321 7.26788L79.143 0.678808C78.7387 0.27447 78.0831 0.27447 77.6788 0.678808C77.2745 1.08315 77.2745 1.73871 77.6788 2.14305L83.5358 8L77.6788 13.857C77.2745 14.2613 77.2745 14.9169 77.6788 15.3212C78.0831 15.7255 78.7387 15.7255 79.143 15.3212L85.7321 8.73212ZM2 9.03537H85V6.96463H2V9.03537Z" fill="url(#paint0_linear)"/>
<defs>
<linearGradient id="paint0_linear" x1="50.4167" y1="8" x2="0.270832" y2="7.99997" gradientUnits="userSpaceOnUse">
<stop stop-color="#000C5B"/>
<stop offset="1" stop-color="#0066FF" stop-opacity="0"/>
</linearGradient>
</defs>
</svg>
