<svg width="147" height="25" viewBox="0 0 147 25" fill="none" xmlns="http://www.w3.org/2000/svg">
<g opacity="0.9">
<path fill-rule="evenodd" clip-rule="evenodd" d="M95.3396 24.9996V12.9958H88.3074V24.9996H95.3396ZM95.3396 12.0038H88.3074V0H95.3396V12.0038ZM104.381 13.0043C105.306 14.3155 105.884 15.8923 105.884 17.4957C105.879 19.4843 105.084 21.3899 103.672 22.796C102.261 24.2021 100.349 24.9944 98.3531 24.9997H96.3445V12.9958L104.381 13.0043ZM96.3445 12.0038L103.483 12.0215C102.798 11.3853 101.999 10.8834 101.127 10.5422C101.993 10.0423 102.714 9.32586 103.218 8.46357C103.721 7.60128 103.991 6.623 103.999 5.62535C103.999 2.55155 101.439 0 98.3531 0H96.3445V12.0038ZM75.7538 24.9996H68.7386V12.9958H75.7538V24.9996ZM75.7538 12.0038H68.7386V0H75.7538V12.0038ZM76.7579 24.9996V12.9958L84.795 13.0046C85.7192 14.3158 86.2974 15.8926 86.2974 17.4961C86.2921 19.4845 85.4971 21.3899 84.0861 22.796C82.6752 24.2021 80.763 24.9945 78.7674 25L76.7579 24.9996ZM76.7579 12.0038V0H78.7674C81.8522 0 84.4214 2.55113 84.4214 5.62535C84.4214 7.65423 83.2834 9.53209 81.5406 10.5422C82.4123 10.8834 83.2118 11.3853 83.897 12.0215L76.7579 12.0038ZM53.9269 12.0038H46.4414L50.6556 0.000312492H53.9273L53.9269 12.0038ZM62.4084 12.0038L58.1861 0H54.932V12.0034L62.4084 12.0038ZM66.9782 24.9996H60.7014L58.9499 20.0033H54.932V12.9958H62.7649L66.9782 24.9996ZM41.8711 24.9996H48.1487L49.909 20.0033H53.9279V12.9958H46.0948L41.8711 24.9996Z" fill="#7A8BA4"/>
</g>
</svg>
