<svg width="145" height="25" viewBox="0 0 145 25" fill="none" xmlns="http://www.w3.org/2000/svg">
<g opacity="0.9" clip-path="url(#clip0)">
<path d="M35.6109 20.9336H29.3047C30.1207 20.1892 30.3448 17.5097 30.6401 12.6721L30.714 11.5556C30.9367 8.87577 31.0109 6.71771 31.0109 5.22913C31.0109 3.96393 30.8625 3.14506 30.4909 2.84743H37.5384C39.2449 2.84743 42.5834 2.92166 42.5834 6.41985C42.5834 8.80155 40.4323 10.2157 38.4289 10.736C41.248 10.9591 43.3254 12.3723 43.3254 15.2762C43.3997 18.4023 40.432 20.9329 35.6097 20.9329L35.6109 20.9336ZM35.387 12.1501H34.1259L33.9034 14.8299C33.8292 16.0206 33.755 16.9879 33.755 18.1791C33.755 18.3281 34.275 18.7009 35.4615 18.7009C37.984 18.7009 39.616 17.4354 39.616 15.3514C39.69 13.0444 37.6871 12.151 35.387 12.151V12.1501ZM35.9071 5.00597C35.4853 4.99579 35.0634 5.02062 34.6457 5.0802C34.442 6.3612 34.3186 7.65375 34.2762 8.95024C34.2762 8.95024 34.202 10.0667 34.202 9.99227H34.6471C36.9469 9.99227 39.0246 9.17363 39.0246 7.08956C39.0983 5.89884 38.0596 5.00573 35.9082 5.00573L35.9071 5.00597ZM58.1651 21.0823C56.6072 21.0823 56.4588 21.0079 55.2719 16.7662L54.8265 15.2032C54.0847 15.5752 52.7494 15.7249 50.672 15.7249H48.5208L48.1499 16.5435C47.779 17.3624 46.8888 19.0744 46.8888 20.1162C46.8827 20.391 46.9076 20.6656 46.9628 20.9348H42.6605C43.8474 19.7441 45.4799 16.8411 47.6313 12.2267L48.8924 9.54691C50.0053 7.09075 51.2665 4.33673 51.2665 3.96488C51.2641 3.60586 51.1884 3.25114 51.044 2.92261H54.9745C54.9745 2.92261 56.0132 6.79289 56.9034 10.0679L57.6455 12.8962C58.9808 17.734 59.8711 20.0412 60.9098 20.9355C59.8711 21.0102 58.6099 21.0847 58.1646 21.0847L58.1651 21.0823ZM52.5262 7.09289L49.5586 13.4196H54.3067L52.5255 7.0898L52.5262 7.09289ZM75.2277 21.6778C73.8923 21.6778 73.5966 21.4547 73.1505 20.8592L68.0315 13.8633C67.6606 13.2678 67.2895 12.8957 66.6961 12.8957H66.6221L66.5479 14.3098C66.4739 16.1707 66.3255 17.6591 66.3255 18.7756C66.3255 19.9663 66.4739 20.7107 66.8455 21.0083H61.9489C62.691 20.4129 62.9134 18.3286 63.3585 12.7468L63.4325 11.6303C63.655 8.95048 63.7294 6.79242 63.7294 5.30383C63.7294 4.03864 63.581 3.22 63.2094 2.92214H69.8125C72.0381 2.92214 74.9315 3.29423 74.9315 6.79242C74.9315 9.69513 73.0025 11.2582 70.6292 12.0024C70.944 12.3338 71.2412 12.6817 71.5194 13.0446L75.1549 17.8825C77.4547 20.9341 77.6029 21.084 78.4194 21.4551C77.3618 21.601 76.2957 21.6757 75.2282 21.6785L75.2277 21.6778ZM68.6993 5.08091C68.2282 5.06856 67.7569 5.09346 67.2897 5.15537C67.1413 5.89955 67.0673 7.23921 66.9188 9.39774L66.8448 10.6632C67.1123 10.7246 67.3867 10.7496 67.6608 10.7374C69.8864 10.7374 71.4445 9.32328 71.4445 7.31367C71.3703 5.89955 70.4058 5.08091 68.6993 5.08091V5.08091ZM84.7986 21.3064C80.1247 21.3064 77.454 17.4362 77.454 13.1936C77.454 7.23944 80.7183 2.55029 86.876 2.55029C88.805 2.55029 89.6952 2.92238 91.3272 2.92238L90.8824 7.53635C89.9921 5.90002 88.5083 4.85656 86.5801 4.85656C82.7222 4.85656 81.1644 9.02447 81.1644 12.5971C81.1644 16.4674 83.39 18.6259 86.2092 18.6259C87.7672 18.6259 89.1768 18.2538 91.4766 16.6163C90.5122 19.4446 88.3606 21.3055 84.7996 21.3055L84.7986 21.3064ZM116.553 21.0821C114.995 21.0821 114.922 21.0076 113.659 16.766L113.214 15.2029C112.472 15.575 111.137 15.7246 109.06 15.7246H106.834L106.463 16.5433C105.87 17.7343 105.202 19.1484 105.202 20.1159C105.202 20.3391 105.276 20.6377 105.276 20.9346H92.5146C93.2567 20.1159 93.4791 17.4364 93.85 12.673L93.9242 11.5565C94.1467 8.80273 94.2209 6.71866 94.2209 5.23007C94.2209 4.03935 94.0724 3.22047 93.7758 2.84838H98.7463C98.0046 3.37011 97.7819 6.27211 97.4852 11.11L97.4112 12.2265C97.337 14.0127 97.0403 15.8733 97.0403 17.586C97.0403 18.4047 97.337 18.6281 98.2272 18.6281C101.269 18.6281 101.937 18.5538 103.346 17.6605C104.236 16.0974 105.127 14.1623 106.091 12.1527L107.352 9.47291C108.539 6.94229 109.726 4.3372 109.726 3.89065C109.724 3.53171 109.648 3.17707 109.504 2.84862H113.436C113.436 2.84862 114.994 8.72851 115.365 9.9937L116.107 12.8222C117.442 17.66 118.258 19.9673 119.446 20.8615C118.486 20.9885 117.52 21.0631 116.552 21.0849L116.553 21.0821ZM110.914 7.09312L108.02 13.4165H112.694L110.914 7.0898L110.914 7.09312ZM127.829 11.1832C127.458 11.9276 126.865 12.8196 126.568 13.5649C126.271 14.9046 126.197 16.691 126.197 18.6262C126.197 19.4448 126.346 20.5613 126.717 20.9334H121.82C122.71 20.1148 123.007 15.128 123.007 13.4905C122.254 11.0279 121.286 8.63689 120.113 6.34539C119.223 4.70906 118.258 3.14387 117.591 2.8472C118.704 2.77273 120.113 2.69827 120.782 2.69827C121.969 2.69827 122.34 2.84719 123.082 4.48447C124.269 7.16426 125.085 9.1734 125.604 10.5875C126.791 8.65238 127.682 7.31272 128.796 5.45205C129.018 5.0055 129.316 4.41001 129.316 3.88899C129.316 3.51691 129.242 2.99589 129.093 2.84696H133.915C132.877 3.07059 128.722 9.69489 127.832 11.1832H127.829ZM144.15 7.0898C143.721 6.36742 143.113 5.76857 142.385 5.35129C141.657 4.93401 140.834 4.71246 139.996 4.70811C138.438 4.70811 137.102 5.30359 137.102 6.94111C137.102 8.35523 138.809 9.24833 140.589 10.4391C142.518 11.6298 144.521 13.1188 144.521 15.7235C144.521 19.073 141.257 21.2315 137.399 21.2315C135.674 21.2082 133.966 20.8807 132.354 20.2639L132.651 15.7982C133.541 17.5844 135.173 18.9985 137.621 18.9985C139.476 18.9985 140.96 18.1052 140.96 16.4679C140.96 15.1282 139.847 14.2351 138.438 13.4165C135.47 11.6303 133.615 10.215 133.615 7.61106C133.615 3.74078 136.805 2.47559 140.218 2.47559C142.147 2.47559 143.408 2.84767 144.596 2.84767L144.15 7.0898Z" fill="#7A8BA4"/>
<path d="M22.1084 5.45245C21.8508 4.81805 21.4119 4.27424 20.8471 3.8894C20.5275 3.64767 20.1788 3.44758 19.8091 3.29391C19.4954 3.20255 19.1712 3.15249 18.8446 3.14499H18.7689C18.3238 3.14499 17.5078 3.21945 17.0627 3.8894C16.9501 4.03527 16.8717 4.20464 16.8332 4.38501C16.7947 4.56538 16.7971 4.75212 16.8402 4.93143C16.8729 5.08509 16.9448 5.22762 17.0488 5.34505C17.1529 5.46249 17.2855 5.55081 17.4338 5.60138C17.4962 5.65306 17.5755 5.67953 17.6563 5.6756C17.6434 5.75345 17.6184 5.82877 17.582 5.89876C17.3596 6.12192 16.9885 6.49424 15.8758 6.49424H15.8023C15.2087 6.42002 14.7636 6.27109 14.096 5.60114C13.7251 5.15459 13.5024 4.33571 13.5024 3.07052C13.5171 2.51658 13.4419 1.96392 13.2797 1.43419C13.1689 1.12729 12.9603 0.865638 12.6862 0.689777C12.4549 0.53594 12.2058 0.410988 11.9444 0.31769C11.5283 0.235773 11.1066 0.185986 10.683 0.168762C10.2379 0.168762 9.94097 0.243223 9.79276 0.466618H9.34763C9.12519 0.466618 8.82758 0.54085 8.60584 0.54085C8.22019 0.622135 7.86194 0.801828 7.56573 1.06257C7.36657 1.24729 7.21401 1.47683 7.12061 1.73229C7.13439 1.90757 7.1591 2.08183 7.1946 2.25402L7.26882 2.32824C7.50454 2.15638 7.7948 2.077 8.08484 2.10508C8.6049 2.10508 9.34598 2.32824 9.49443 2.70057C9.86533 3.29605 9.71687 3.7426 9.71687 4.26362C9.49443 5.67774 8.97508 6.34769 7.86216 6.49638C7.66966 6.55345 7.46917 6.57861 7.26859 6.57085C6.45257 6.57085 5.85899 6.34769 5.56209 5.82644V5.6775C5.61905 5.67212 5.67197 5.64566 5.71054 5.60328C5.85238 5.54207 5.97907 5.45034 6.08164 5.33456C6.18422 5.21879 6.26017 5.08181 6.30412 4.93333C6.34295 4.75375 6.3432 4.56794 6.30484 4.38826C6.26648 4.20858 6.19041 4.03917 6.08167 3.8913C5.8604 3.6602 5.59565 3.47542 5.30273 3.34764C5.00982 3.21987 4.69455 3.15163 4.37518 3.14688C4.0238 3.14893 3.67435 3.19903 3.33648 3.29581C2.446 3.51897 1.62998 4.26338 1.03664 5.45387C0.557655 6.42944 0.280477 7.49218 0.221807 8.57808C0.147419 9.59392 0.147419 10.6139 0.221807 11.6297C0.268796 12.7815 0.520069 13.9157 0.963834 14.979C1.31878 15.9146 1.76605 16.8124 2.29896 17.6588C2.40576 17.8673 2.52983 18.0665 2.66986 18.2543L2.74409 18.18C2.83568 18.0951 2.91107 17.9942 2.96653 17.8822C3.33173 17.523 3.65527 17.1235 3.931 16.6914C4.13527 16.3866 4.30945 16.0626 4.45106 15.7239L4.52528 15.5752L4.67374 15.6494C4.82226 15.8113 4.90205 16.0249 4.89618 16.2449C4.86796 16.5523 4.79294 16.8536 4.67374 17.1382C4.4753 17.7286 4.22673 18.3008 3.93076 18.8485C4.00475 18.923 4.00475 19.0719 3.93076 19.0719C3.78542 19.2647 3.70727 19.5 3.70832 19.7417H3.78184C4.00643 19.7089 4.21455 19.6044 4.37541 19.4438C4.59785 19.2951 5.19143 18.7741 5.93346 17.7321C6.52703 16.9876 6.89793 16.169 7.34305 15.2759L7.41728 15.127L7.56549 15.2014C7.63972 15.2757 7.71394 15.2757 7.78793 15.3501C7.85379 15.5413 7.87907 15.7441 7.86216 15.9456C7.78793 16.5411 7.41704 17.36 7.19436 17.9554C6.74924 18.9975 5.93322 20.1135 5.33965 20.9326C5.32361 20.9852 5.29495 21.0331 5.25616 21.072C5.21738 21.1109 5.16966 21.1397 5.1172 21.1558C5.20165 21.2477 5.30221 21.3234 5.41387 21.3789L5.63655 21.6021C6.41738 22.2569 7.26247 22.8305 8.15883 23.3141C9.19042 23.9267 10.2849 24.4258 11.4234 24.8027C12.4621 24.5795 13.9459 23.7604 14.6879 23.3141C15.5844 22.8306 16.4295 22.257 17.2104 21.6021L17.4329 21.3789C17.5811 21.3047 17.6553 21.1558 17.7295 21.1558C17.7813 21.0654 17.807 20.9623 17.8038 20.8581L17.7288 20.7846C16.9927 19.8713 16.3699 18.8716 15.8741 17.8075C15.6517 17.212 15.2805 16.3933 15.2063 15.7979C15.1522 15.5973 15.1789 15.3834 15.2805 15.2024L15.4288 15.0534C15.4929 15.0049 15.5711 14.9789 15.6514 14.9792L15.7254 15.1279C16.1347 15.9802 16.6058 16.8011 17.135 17.5841C17.877 18.6261 18.4704 19.1471 18.6931 19.2961C18.8451 19.4686 19.0578 19.5752 19.2866 19.5937H19.3609C19.4349 19.5194 19.3609 19.3705 19.1382 18.9982C19.1101 18.9688 19.0889 18.9336 19.0761 18.895C19.0633 18.8564 19.0592 18.8154 19.0642 18.775C18.7684 18.2268 18.5201 17.654 18.3222 17.063C18.2107 16.776 18.136 16.4759 18.0997 16.1699C18.0937 15.95 18.1735 15.7363 18.3222 15.5745L18.4706 15.5L18.5446 15.6489C18.71 16.0139 18.9087 16.3627 19.1382 16.691C19.2866 16.9141 19.8802 17.5843 20.0287 17.8075C20.1771 17.9564 20.2511 18.0306 20.2511 18.1051L20.3251 18.1796C20.4455 18.0189 20.5453 17.8436 20.622 17.6578L20.696 17.5836C21.1893 16.7267 21.6112 15.8304 21.9574 14.9038C22.3283 14.0107 22.5509 13.0431 22.6994 11.5545C22.8111 10.5405 22.8111 9.51719 22.6994 8.50314C22.7486 7.45315 22.5459 6.40665 22.1084 5.4515V5.45245Z" fill="#7A8BA4"/>
</g>
<defs>
<clipPath id="clip0">
<rect width="145" height="25" fill="white"/>
</clipPath>
</defs>
</svg>
