<svg width="145" height="25" viewBox="0 0 145 25" fill="none" xmlns="http://www.w3.org/2000/svg">
<g clip-path="url(#clip0)">
<path opacity="0.9" fill-rule="evenodd" clip-rule="evenodd" d="M9.70772 0.225952C6.37465 0.969174 3.1714 3.68735 1.60368 7.1023C0.91341 8.60616 0.760857 9.56151 0.755087 12.4194C0.748956 15.4608 0.876263 16.1839 1.75768 18.1109C2.98964 20.8035 5.72729 23.5426 8.02712 24.3837C10.2162 25.1843 14.0369 25.1703 16.2815 24.3532C18.8363 23.423 22.2069 19.7142 23.0335 16.9233C23.3718 15.7813 23.6488 13.9957 23.6488 12.9556V11.0646H17.1399H10.6313L10.7384 13.4839L10.8459 15.9033L14.0279 16.0968L17.2098 16.2904L16.1917 17.3301C12.3044 21.3005 6.36166 18.3133 6.34363 12.3799C6.33353 8.98822 8.51615 6.45314 11.732 6.1214C13.3365 5.95611 13.8064 6.08734 15.389 7.14333C17.0256 8.23533 17.4879 8.35494 20.0661 8.35494C21.64 8.35494 22.9275 8.26087 22.9275 8.14591C22.9275 7.46152 21.3526 4.84476 20.1678 3.56C17.626 0.803885 13.299 -0.574946 9.70772 0.225952ZM51.9518 0.241823C48.5257 0.743498 45.1583 3.36413 43.4121 6.88746C42.7139 8.29649 42.5884 9.13609 42.5859 12.4194C42.5819 17.0061 43.2559 18.8866 45.9103 21.6954C48.262 24.184 50.7649 25.1227 54.4839 24.911C60.7162 24.556 65.0082 19.9732 65.3948 13.2606C65.8586 5.20631 59.5791 -0.875331 51.9518 0.241823ZM111.91 0.260791C107.863 0.943239 104.03 4.44025 102.826 8.54887C101.424 13.3345 102.786 18.6935 106.257 22.043C108.426 24.1364 110.632 25 113.81 25C117.002 25 119.195 24.1352 121.401 22.0062C123.943 19.5528 125.066 17.039 125.273 13.338C125.513 9.04397 124.751 6.86888 121.956 3.8689C119.047 0.746207 115.847 -0.402689 111.91 0.260791ZM25.0914 12.613V24.6129H27.7832H30.4751L30.5782 20.8387L30.6814 17.0646L32.7994 20.8387L34.9175 24.6129H38.3436C41.0268 24.6129 41.6951 24.508 41.4264 24.129C39.6978 21.6915 36.632 16.8718 36.632 16.5923C36.632 16.3988 37.1942 15.9524 37.8813 15.601C38.5683 15.2491 39.5824 14.2279 40.1353 13.3318C41.0282 11.8833 41.14 11.3503 41.14 8.54848C41.14 5.77534 41.0232 5.20592 40.1721 3.82516C38.5048 1.1213 36.9854 0.613047 30.5674 0.613047H25.0914V12.613ZM66.9885 9.80654C67.1003 18.4089 67.1591 19.1026 67.9027 20.5964C69.5494 23.9037 72.0159 25.2117 76.0252 24.9036C79.2681 24.6547 81.1102 23.3723 82.524 20.3796L83.5157 18.2804V9.44693V0.613047H80.8109H78.1061V8.49081C78.1061 16.6333 77.8507 18.5115 76.6494 19.2017C75.5888 19.811 74.1949 19.6407 73.4177 18.8065C72.7393 18.0784 72.6964 17.5163 72.6964 9.32267V0.613047H69.7828H66.8688L66.9885 9.80654ZM85.319 12.613V24.6129H88.0238H90.7286V20.742V16.871L92.8023 16.8687C97.2415 16.864 100.025 14.941 101.046 11.173C101.97 7.76113 101.291 4.65509 99.1457 2.47652C97.5448 0.850723 96.4686 0.613047 90.7052 0.613047H85.319V12.613ZM126.432 12.613V24.6129H129.318H132.203V17.9653V11.3181L136.299 17.8686L140.394 24.4194L142.97 24.5332L145.547 24.647V12.63V0.613047H142.67H139.794L139.695 7.06204L139.596 13.511L135.629 7.07056L131.662 0.630079L129.047 0.621563L126.432 0.613047V12.613ZM34.6845 6.3285C35.2262 6.71675 35.9107 8.16758 35.9107 8.92784C35.9107 9.2708 35.5122 9.9788 35.0253 10.5014C34.3195 11.2593 33.7717 11.4517 32.3205 11.4517H30.501V8.74203V6.03237L32.3944 6.03818C33.436 6.04166 34.4663 6.17211 34.6845 6.3285ZM57.1252 7.0783C57.6561 7.50023 58.4697 8.43932 58.9335 9.16474C60.128 11.034 59.9347 14.6239 58.5328 16.5966C56.6001 19.3167 52.9749 19.8776 50.4879 17.8415C46.7657 14.7943 47.3687 8.67003 51.5987 6.55959C53.0427 5.83921 55.9045 6.10785 57.1252 7.0783ZM94.9759 6.63508C95.5706 7.08178 95.7776 7.62604 95.7776 8.74203C95.7776 10.6663 94.8133 11.4517 92.4514 11.4517H90.7286V8.74203V6.03237H92.4514C93.4273 6.03237 94.5222 6.29366 94.9759 6.63508ZM116.515 6.80656C120.436 8.84422 120.712 15.191 117.007 18.136C114.576 20.068 110.438 18.9342 108.859 15.9033C105.861 10.153 111.062 3.97341 116.515 6.80656Z" fill="#7A8BA4"/>
</g>
<defs>
<clipPath id="clip0">
<rect width="145" height="25" fill="white"/>
</clipPath>
</defs>
</svg>
