<svg width="145" height="25" viewBox="0 0 145 25" fill="none" xmlns="http://www.w3.org/2000/svg">
<g opacity="0.9">
<path d="M74.2805 12.3378C74.2805 8.05736 70.9919 4.62327 66.432 4.60445H66.3969V4.60705C61.837 4.62586 58.587 8.27495 58.587 12.5554C58.587 16.846 61.8177 20.1983 66.3969 20.1983C69.8869 20.1983 73.706 18.6527 74.1877 15.5307L71.4734 15.5238C70.9202 19.0842 64.4392 19.0604 64.2167 15.6125C64.1799 15.0376 64.1799 13.4511 64.1799 13.4511H74.3311C74.3341 13.0797 74.3171 12.7083 74.2803 12.3387L74.2805 12.3378ZM64.2361 11.4917L64.3289 8.88489C64.3289 8.88489 64.292 6.49312 66.3951 6.47604C68.2425 6.49312 68.2969 8.92253 68.2969 8.92253L68.3704 11.4934H64.2361V11.4917ZM127.425 0H133.076V19.4965H127.425V0ZM135.106 0H140.755V19.4965H135.106V0ZM31.8178 4.62673C28.9476 4.62673 23.612 6.5818 23.612 12.4641C23.612 18.9555 28.9476 20.1908 31.8178 20.1908C34.6879 20.1908 40.0288 18.5614 40.0217 12.4284C40.0146 6.43862 34.6879 4.62673 31.8178 4.62673V4.62673ZM31.8178 18.3038C30.2663 18.3038 29.6813 15.9854 29.6813 12.447C29.6813 8.90544 29.9895 6.54071 31.8178 6.54071C33.5339 6.54071 33.8771 8.90523 33.8771 12.447C33.8785 15.9854 33.5339 18.3038 31.8178 18.3038ZM4.88379 0H11.0126V8.0234H15.7757V0H22.2362V19.4965H15.7757V10.8997H11.0495V19.5313H4.88379V0ZM41.8043 19.4965V5.14367H47.3799V6.52795C47.3799 6.52795 49.4095 4.8919 51.8469 4.8919C54.1217 4.8919 56.2405 6.42045 56.673 8.17762C56.7585 8.50878 56.7986 8.84953 56.792 9.19095V19.498H51.2901V10.036C51.2901 10.036 51.4933 7.8947 49.814 7.98533C48.4866 8.05692 47.6161 8.73933 47.3765 9.18987V19.4962H41.8043" fill="#7A8BA4"/>
<path d="M72.8916 21.8165C72.8916 23.1115 73.6673 25 76.1416 25C78.173 25 80.0728 23.8672 80.775 22.3199C81.342 21.0692 87.8112 5.17934 87.8112 5.17934L92.0927 19.5323H96.7087L99.0725 10.9356L101.88 19.5323H106.271L110.038 5.17934H107.49L105.46 12.6978L102.839 5.17934H98.2968L96.0081 12.9128L93.681 5.17934H85.6328L82.7889 12.0854L80.0939 5.17934H73.6333C73.6333 5.17934 79.6072 18.4908 79.5775 19.4964C79.5022 21.8695 77.6564 22.9493 77.3991 23.022H77.4184C77.6715 22.6273 77.8112 22.1736 77.8229 21.7084C77.8224 21.0744 77.5635 20.4665 77.1031 20.0184C76.6427 19.5703 76.0185 19.3188 75.3677 19.319C74.0134 19.319 72.916 20.4074 72.8952 21.8354L72.8916 21.8165ZM126.043 12.3378C126.043 8.05737 122.755 4.62498 118.197 4.60443H118.158V4.60616C113.6 4.62628 110.348 8.27582 110.348 12.5546C110.348 16.8452 113.58 20.1976 118.158 20.1976C121.65 20.1976 125.469 18.6519 125.951 15.5299L123.236 15.523C122.682 19.0834 116.201 19.0597 115.981 15.6117C115.944 15.0368 115.944 13.4503 115.944 13.4503H126.095C126.098 13.0788 126.081 12.7075 126.044 12.3378H126.043ZM115.998 11.4917L116.091 8.88491C116.091 8.88491 116.054 6.49139 118.157 6.47603C120.003 6.49139 120.059 8.92255 120.059 8.92255L120.132 11.4934H115.998V11.4917Z" fill="#7A8BA4"/>
</g>
</svg>
