<svg width="145" height="25" viewBox="0 0 145 25" fill="none" xmlns="http://www.w3.org/2000/svg">
<g opacity="0.9">
<path d="M11.5422 23.691H5V1.37173H16.3146L29.2949 18.0344V1.37173H35.8374V23.691H24.7517L11.542 6.74407V23.691H11.5422ZM67.139 16.7898C67.139 19.8922 66.5924 20.9615 65.6866 21.9878C64.2983 23.5155 62.2798 23.9745 58.3882 23.9745H47.2181C43.3265 23.9745 41.3053 23.515 39.9184 21.9878C39.0141 20.9632 38.4664 19.8922 38.4664 16.7898V8.18599C38.4664 5.0841 39.0143 4.01525 39.9184 2.98804C41.3053 1.45904 43.3269 1 47.2181 1H58.3886C62.2789 1 64.2992 1.45948 65.6866 2.98804C66.5921 4.01502 67.139 5.08366 67.139 8.18599V16.7898V16.7898ZM58.1133 18.3188C59.6074 18.3188 60.1336 18.2313 60.4922 17.9044C60.8281 17.5985 60.9761 17.2054 60.9761 15.894V9.08089C60.9761 7.77016 60.8281 7.37905 60.4922 7.07192C60.1345 6.74407 59.6074 6.65743 58.1133 6.65743H47.493C45.9988 6.65743 45.4727 6.74407 45.1154 7.07192C44.7786 7.37883 44.6315 7.77038 44.6315 9.08089V15.8934C44.6315 17.2041 44.7782 17.5979 45.1154 17.9037C45.4722 18.2306 45.9988 18.3182 47.493 18.3182H58.1144L58.1133 18.3188ZM76.6466 1.37173V23.691H69.8109V1.37173H76.6466ZM88.1956 1.37173H97.2199L85.0406 11.8119L98.7776 23.691H89.1201L76.6466 12.0509L88.1956 1.37173ZM100.039 1.37173H106.877V23.691H100.039V1.37173ZM132.941 23.691L130.918 19.8029H117.69L115.691 23.691H108.139L120.256 1.37173H128.754L140.871 23.691H132.941H132.941ZM120.064 14.955H128.565L124.314 6.87458L120.064 14.955Z" fill="#7A8BA4"/>
</g>
</svg>
