<svg width="165" height="80" viewBox="0 0 165 80" fill="none" xmlns="http://www.w3.org/2000/svg">
<g clip-path="url(#clip0)">
<path d="M82.1117 61.7399C81.8782 61.7399 81.6602 61.6769 81.4576 61.5664L79.3864 60.3201C79.0749 60.1465 79.2307 60.0834 79.3242 60.0519C79.7446 59.9099 79.8225 59.8782 80.2585 59.626C80.3053 59.5943 80.3677 59.6101 80.4143 59.6417L82.0028 60.6041C82.0651 60.6356 82.143 60.6356 82.1896 60.6041L88.4035 56.9596C88.4657 56.928 88.497 56.8648 88.497 56.7861V49.5129C88.497 49.4339 88.4657 49.3709 88.4035 49.3392L82.1896 45.7106C82.1273 45.6789 82.0495 45.6789 82.0028 45.7106L75.789 49.3392C75.7267 49.3708 75.6954 49.4497 75.6954 49.5128V56.7859C75.6954 56.8491 75.7267 56.9279 75.789 56.9596L77.4865 57.9535C78.4053 58.4267 78.9815 57.8746 78.9815 57.3224V50.1438C78.9815 50.0492 79.0594 49.9545 79.1684 49.9545H79.9626C80.0561 49.9545 80.1495 50.0334 80.1495 50.1438V57.3224C80.1495 58.5687 79.4798 59.2945 78.3118 59.2945C77.9537 59.2945 77.6734 59.2945 76.8791 58.9L75.2439 57.9535C74.839 57.7169 74.5898 57.275 74.5898 56.8018V49.5286C74.5898 49.0553 74.839 48.6134 75.2439 48.3769L81.4576 44.7324C81.8471 44.5115 82.3766 44.5115 82.7659 44.7324L88.9796 48.3769C89.3846 48.6134 89.6338 49.0553 89.6338 49.5286V56.8018C89.6338 57.275 89.3846 57.7169 88.9796 57.9535L82.7659 61.598C82.5634 61.6927 82.3299 61.7399 82.1118 61.7399H82.1117ZM84.0273 56.7387C81.302 56.7387 80.7413 55.4765 80.7413 54.4037C80.7413 54.309 80.8192 54.2144 80.9282 54.2144H81.7381C81.8314 54.2144 81.9093 54.2774 81.9093 54.3722C82.034 55.2083 82.3921 55.6185 84.0429 55.6185C85.351 55.6185 85.9118 55.3187 85.9118 54.6087C85.9118 54.1985 85.7559 53.8989 83.7159 53.6937C82.0183 53.5201 80.9593 53.1416 80.9593 51.769C80.9593 50.491 82.0185 49.7336 83.7938 49.7336C85.7871 49.7336 86.7683 50.4279 86.8929 51.9423C86.8929 51.9898 86.8773 52.0371 86.8462 52.0844C86.8149 52.116 86.7683 52.1475 86.7215 52.1475H85.9117C85.8338 52.1475 85.7559 52.0844 85.7404 52.0055C85.5536 51.1379 85.0708 50.8538 83.7938 50.8538C82.361 50.8538 82.1896 51.3588 82.1896 51.7373C82.1896 52.1949 82.3921 52.3368 84.3232 52.5892C86.2387 52.8418 87.1421 53.2046 87.1421 54.5614C87.1265 55.9498 86.0052 56.7387 84.0273 56.7387Z" fill="#344154"/>
<path d="M62.8301 33.2941C62.8301 33.0101 62.6743 32.7417 62.4251 32.5998L55.822 28.7502C55.7128 28.687 55.5883 28.6555 55.4638 28.6397H55.4014C55.2769 28.6397 55.1523 28.687 55.0433 28.7502L48.4401 32.5998C48.1908 32.7417 48.0352 33.01 48.0352 33.2941L48.0508 43.6437C48.0508 43.7857 48.1287 43.9277 48.2532 43.9909C48.3778 44.0698 48.5335 44.0698 48.6426 43.9909L52.5671 41.719C52.8163 41.577 52.972 41.3087 52.972 41.0248V36.1812C52.972 35.8973 53.1277 35.629 53.377 35.4871L55.0433 34.5088C55.1679 34.4299 55.308 34.3983 55.4482 34.3983C55.5883 34.3983 55.7284 34.4299 55.8376 34.5088L57.5039 35.4871C57.7532 35.629 57.9088 35.8971 57.9088 36.1812V41.0248C57.9088 41.3087 58.0646 41.577 58.3137 41.719L62.2382 43.9909C62.3629 44.0698 62.5185 44.0698 62.6432 43.9909C62.7678 43.9277 62.8457 43.7857 62.8457 43.6437L62.8301 33.2941ZM94.569 19.0473C94.4444 18.9841 94.2887 18.9841 94.1795 19.0473C94.055 19.1262 93.9771 19.2524 93.9771 19.3943V29.6496C93.9771 29.7442 93.9305 29.8388 93.837 29.902C93.7436 29.9492 93.6501 29.9492 93.5567 29.902L91.9059 28.9396C91.7849 28.8698 91.648 28.8331 91.5088 28.8331C91.3695 28.8331 91.2326 28.8698 91.1116 28.9396L84.5084 32.8049C84.2593 32.9469 84.1035 33.2152 84.1035 33.4991V41.214C84.1035 41.4979 84.2593 41.7663 84.5084 41.9083L91.1116 45.7737C91.2326 45.8435 91.3695 45.8802 91.5088 45.8802C91.648 45.8802 91.7849 45.8435 91.9059 45.7737L98.5091 41.9083C98.7583 41.7663 98.914 41.4981 98.914 41.214V21.9819C98.914 21.6821 98.7583 21.414 98.5091 21.2719L94.5691 19.0473H94.569ZM93.9616 38.674C93.9616 38.7529 93.9305 38.816 93.8681 38.8475L91.61 40.1727C91.5785 40.1883 91.5439 40.1964 91.5088 40.1964C91.4737 40.1964 91.439 40.1883 91.4075 40.1727L89.1494 38.8475C89.087 38.816 89.0559 38.7371 89.0559 38.674V36.0234C89.0559 35.9445 89.087 35.8814 89.1494 35.8499L91.4075 34.5245C91.439 34.509 91.4737 34.5009 91.5088 34.5009C91.5439 34.5009 91.5785 34.509 91.61 34.5245L93.8681 35.8499C93.9305 35.8813 93.9616 35.9603 93.9616 36.0234V38.674ZM116.543 35.9603C116.792 35.8184 116.933 35.5501 116.933 35.2661V33.3887C116.933 33.1047 116.777 32.8365 116.543 32.6945L109.987 28.845C109.866 28.7752 109.729 28.7385 109.59 28.7385C109.45 28.7385 109.314 28.7752 109.193 28.845L102.589 32.7102C102.34 32.8522 102.184 33.1204 102.184 33.4045V41.1194C102.184 41.4033 102.34 41.6716 102.589 41.8136L109.146 45.6C109.395 45.742 109.691 45.742 109.925 45.6L113.896 43.3599C114.02 43.2967 114.098 43.1548 114.098 43.0128C114.098 42.8708 114.02 42.7288 113.896 42.6656L107.261 38.8003C107.137 38.7215 107.059 38.5952 107.059 38.4533V36.0394C107.059 35.8974 107.137 35.7554 107.261 35.6922L109.333 34.4931C109.393 34.4545 109.464 34.434 109.535 34.434C109.607 34.434 109.677 34.4545 109.738 34.4931L111.809 35.6922C111.933 35.7711 112.011 35.8973 112.011 36.0394V37.9326C112.011 38.0746 112.089 38.2166 112.214 38.2796C112.338 38.3585 112.494 38.3585 112.619 38.2796L116.543 35.9603V35.9603Z" fill="#344154"/>
<path d="M109.49 35.5975C109.513 35.5821 109.54 35.5739 109.568 35.5739C109.595 35.5739 109.622 35.5821 109.645 35.5975L110.907 36.339C110.954 36.3704 110.985 36.4178 110.985 36.481V37.964C110.985 38.0271 110.954 38.0744 110.907 38.106L109.645 38.8475C109.622 38.8629 109.595 38.8711 109.568 38.8711C109.54 38.8711 109.513 38.8629 109.49 38.8475L108.228 38.106C108.182 38.0744 108.15 38.0271 108.15 37.964V36.481C108.15 36.4178 108.182 36.3704 108.228 36.339L109.49 35.5975V35.5975Z" fill="#344154"/>
<mask id="mask0" mask-type="alpha" maskUnits="userSpaceOnUse" x="66" y="28" width="15" height="18">
<path d="M73.8729 28.8765C73.7518 28.8067 73.615 28.77 73.4758 28.77C73.3365 28.77 73.1997 28.8067 73.0787 28.8765L66.5222 32.7101C66.273 32.852 66.1328 33.1203 66.1328 33.4042V41.0877C66.1328 41.3717 66.2886 41.6399 66.5222 41.7819L73.0787 45.6157C73.1997 45.6855 73.3365 45.7222 73.4758 45.7222C73.615 45.7222 73.7518 45.6855 73.8729 45.6157L80.4294 41.7819C80.6786 41.6399 80.8188 41.3717 80.8188 41.0877V33.4043C80.8188 33.1204 80.6629 32.8522 80.4294 32.7102L73.8729 28.8765Z" fill="#344154"/>
</mask>
<g mask="url(#mask0)">
<path d="M73.8729 28.8765C73.7518 28.8067 73.615 28.77 73.4758 28.77C73.3365 28.77 73.1997 28.8067 73.0787 28.8765L66.5222 32.7101C66.273 32.852 66.1328 33.1203 66.1328 33.4042V41.0877C66.1328 41.3717 66.2886 41.6399 66.5222 41.7819L73.0787 45.6157C73.1997 45.6855 73.3365 45.7222 73.4758 45.7222C73.615 45.7222 73.7518 45.6855 73.8729 45.6157L80.4294 41.7819C80.6786 41.6399 80.8188 41.3717 80.8188 41.0877V33.4043C80.8188 33.1204 80.6629 32.8522 80.4294 32.7102L73.8729 28.8765Z" fill="#344154"/>
<path d="M73.0667 28.8766L66.4948 32.7102C66.2453 32.8523 66.0742 33.1207 66.0742 33.4046V41.0881C66.0742 41.2775 66.1521 41.451 66.2766 41.5929L73.6585 28.7819C73.4716 28.7503 73.2536 28.766 73.0667 28.8765V28.8766ZM73.7053 45.6949C73.7675 45.6791 73.8299 45.6475 73.8921 45.616L80.4642 41.7821C80.7135 41.6402 80.8691 41.3719 80.8691 41.088V33.4045C80.8691 33.1994 80.7756 32.9943 80.6355 32.8523L73.7054 45.6949H73.7053Z" fill="#344154"/>
<path d="M80.4474 32.7102L73.8598 28.8765C73.7951 28.8434 73.7273 28.817 73.6573 28.7976L66.2754 41.6087C66.3365 41.6843 66.4104 41.7484 66.4935 41.798L73.0811 45.6319C73.268 45.7423 73.486 45.7738 73.6884 45.7106L80.6188 32.8682C80.5721 32.8051 80.5097 32.7576 80.4474 32.7104V32.7102Z" fill="#344154"/>
<path d="M80.8652 41.0878V33.4044C80.8652 33.1204 80.6939 32.8522 80.4448 32.7102L73.8568 28.8765C73.7807 28.8289 73.6961 28.7967 73.6078 28.7819L80.8183 41.2615C80.8494 41.2141 80.8651 41.151 80.8651 41.088L80.8652 41.0878ZM66.4907 32.7102C66.2417 32.8522 66.0703 33.1206 66.0703 33.4045V41.088C66.0703 41.3719 66.2572 41.6401 66.4907 41.7821L73.0784 45.6159C73.2342 45.7105 73.4054 45.7422 73.5923 45.7105L66.5375 32.6944L66.4909 32.7102H66.4907Z" fill="#344154"/>
<path fill-rule="evenodd" clip-rule="evenodd" d="M80.4619 41.782C80.6488 41.6716 80.789 41.4822 80.8514 41.2772L73.6249 28.7818C73.4381 28.7502 73.2355 28.7659 73.0644 28.8764L66.5234 32.6945L73.5782 45.7263C73.6808 45.7093 73.7804 45.6774 73.8741 45.6317L80.4618 41.7822L80.4619 41.782Z" fill="#344154"/>
<path fill-rule="evenodd" clip-rule="evenodd" d="M80.4598 41.782L73.8877 45.6158C73.7949 45.6637 73.6949 45.6957 73.5918 45.7104L73.7164 45.9471L81.0048 41.6717V41.577L80.818 41.2614C80.7868 41.4822 80.6467 41.6716 80.4598 41.782V41.782Z" fill="#344154"/>
<path fill-rule="evenodd" clip-rule="evenodd" d="M80.4598 41.782L73.8877 45.6158C73.7949 45.6637 73.6949 45.6957 73.5918 45.7104L73.7164 45.9471L81.0048 41.6717V41.577L80.818 41.2614C80.7868 41.4822 80.6467 41.6716 80.4598 41.782V41.782Z" fill="#344154"/>
</g>
</g>
<defs>
<clipPath id="clip0">
<rect x="48" y="19" width="69" height="42.8636" fill="white"/>
</clipPath>
</defs>
</svg>
