<svg width="165" height="67" viewBox="0 0 165 67" fill="none" xmlns="http://www.w3.org/2000/svg">
<path d="M56.4482 49.7053C57.0496 49.7053 57.5964 49.8414 57.8971 50.1136C57.9518 50.5491 57.5417 51.2568 57.2957 51.2568C56.9949 51.1479 56.7216 51.0935 56.3662 51.0935C54.9447 51.0935 54.2339 52.5633 54.2339 54.0059C54.2339 54.9042 54.5346 55.4485 55.2727 55.4485C56.0381 55.4485 56.8036 54.9314 57.241 54.5503C57.3503 54.632 57.487 54.8769 57.487 55.1491C57.487 55.4485 57.405 55.7479 57.1043 56.0473C56.6122 56.5373 55.7648 56.9728 54.5346 56.9728C53.1404 56.9728 52.1562 56.1834 52.1562 54.3326C52.2109 51.8829 53.7965 49.7053 56.4482 49.7053ZM61.0409 55.3669C61.8063 55.3669 63.2005 54.0331 63.5832 51.4746C63.6106 51.3113 63.6106 51.284 63.6379 51.1207C63.4739 51.0663 63.2278 51.0118 63.0091 51.0118C62.4351 51.0118 61.8336 51.1752 61.3142 51.9101C60.7675 52.6722 60.5215 53.6249 60.5215 54.387C60.5215 55.013 60.7128 55.3669 61.0409 55.3669ZM58.5258 54.6592C58.5258 53.7337 58.8265 52.155 60.002 50.9846C61.0135 49.9503 62.2164 49.7053 63.3372 49.7053C64.0753 49.7053 65.0594 49.9503 65.6882 50.0592C65.5242 50.7397 65.1688 53.3255 64.9774 54.8225C64.8954 55.4485 64.8681 56.3468 64.8954 56.6734C64.376 56.8911 63.4192 56.9456 63.1458 56.9456C63.0091 56.9456 62.9818 56.3195 63.0091 55.6935C63.0365 55.503 63.0638 55.2036 63.0638 55.0675C62.4624 56.0746 61.2596 56.9184 60.002 56.9184C59.0999 56.9456 58.5258 56.1834 58.5258 54.6592ZM69.5701 49.7053C70.1989 49.7053 70.8276 49.9503 71.101 50.2225C71.0736 50.658 70.7456 51.3929 70.1989 51.1752C69.9528 51.0935 69.7341 51.0391 69.4061 51.0391C68.996 51.0391 68.6133 51.2296 68.6133 51.6107C68.6133 51.9101 68.832 52.1278 69.8708 52.8627C70.6089 53.4071 70.9096 53.8971 70.9096 54.5775C70.9096 55.7207 69.8435 56.9456 67.9572 56.9456C67.1918 56.9456 66.5083 56.6462 66.317 56.3468C66.0436 55.884 66.2623 54.9586 66.563 55.1219C66.9731 55.3124 67.6291 55.5302 68.1759 55.5302C68.6953 55.5302 69.0233 55.2852 69.0233 54.9858C69.0233 54.7136 68.7773 54.4959 67.8478 53.8154C67.0551 53.2166 66.809 52.6722 66.809 52.0734C66.809 50.7669 67.9299 49.7053 69.5701 49.7053ZM74.9555 49.7053C75.5843 49.7053 76.2131 49.9503 76.4864 50.2225C76.4591 50.658 76.131 51.3929 75.5843 51.1752C75.3383 51.0935 75.1196 51.0391 74.7915 51.0391C74.3815 51.0391 73.9987 51.2296 73.9987 51.6107C73.9987 51.9101 74.2174 52.1278 75.2562 52.8627C75.9944 53.4071 76.2951 53.8971 76.2951 54.5775C76.2951 55.7207 75.2289 56.9456 73.3426 56.9456C72.5772 56.9456 71.9211 56.6462 71.7024 56.3468C71.429 55.884 71.6477 54.9586 71.9484 55.1219C72.3585 55.3124 73.0146 55.5302 73.5613 55.5302C74.0807 55.5302 74.4088 55.2852 74.4088 54.9858C74.4088 54.7136 74.1628 54.4959 73.2333 53.8154C72.4405 53.2166 72.1945 52.6722 72.1945 52.0734C72.1945 50.7669 73.3153 49.7053 74.9555 49.7053ZM79.8489 55.3669C80.6144 55.3669 82.0086 54.0331 82.3913 51.4746C82.4186 51.3113 82.4186 51.284 82.446 51.1207C82.2819 51.0663 82.0359 51.0118 81.8172 51.0118C81.2431 51.0118 80.6417 51.1752 80.1223 51.9101C79.5755 52.6722 79.3295 53.6249 79.3295 54.387C79.3568 55.013 79.5209 55.3669 79.8489 55.3669ZM77.3339 54.6592C77.3339 53.7337 77.6346 52.155 78.8101 50.9846C79.8216 49.9503 81.0244 49.7053 82.1452 49.7053C82.8834 49.7053 83.8675 49.9503 84.4963 50.0592C84.3322 50.7397 83.9768 53.3255 83.7855 54.8225C83.7035 55.4485 83.6761 56.3468 83.7035 56.6734C83.1841 56.8911 82.2273 56.9456 81.9539 56.9456C81.8172 56.9456 81.7899 56.3195 81.8172 55.6935C81.8445 55.503 81.8719 55.2036 81.8719 55.0675C81.2705 56.0746 80.0676 56.9184 78.8101 56.9184C77.9353 56.9456 77.3339 56.1834 77.3339 54.6592ZM88.0228 51.7195C88.7335 50.5763 89.663 49.7053 90.9752 49.7053C92.096 49.7053 92.4514 50.7397 92.2327 52.1823C92.1234 52.8627 91.932 53.8426 91.8226 54.7408C91.7133 55.503 91.6313 56.1834 91.6586 56.6462C91.2486 56.8367 90.0731 56.9184 89.7997 56.9184C89.6903 56.9184 89.663 56.0746 89.827 55.1763C89.9637 54.4414 90.2097 53.0805 90.3464 52.2911C90.4284 51.8284 90.4011 51.284 89.9637 51.284C89.3896 51.284 88.0228 52.2095 87.3393 55.9657C87.2846 56.2651 87.1753 56.4556 86.9839 56.5645C86.7379 56.7006 86.2458 56.8367 85.2344 56.8367C85.4257 55.884 85.7264 53.9515 85.9451 52.5089C86.1365 51.2024 86.2185 50.3586 86.1912 50.032C86.4645 49.9503 87.8587 49.6509 87.9954 49.6509C88.1594 49.6509 88.1868 50.1408 88.0501 51.284C88.0228 51.3929 88.0228 51.5562 87.9954 51.6651H88.0228V51.7195ZM95.9506 55.3397C96.634 55.3397 98.0282 54.0604 98.4109 51.8012C98.4383 51.6651 98.4656 51.4474 98.4929 51.3113C98.3016 51.1207 98.0282 51.0118 97.5908 51.0118C96.0052 51.0118 95.3218 52.89 95.3218 54.2509C95.3492 54.9586 95.5952 55.3397 95.9506 55.3397ZM94.9391 56.9456C93.9276 56.9456 93.3262 56.0473 93.3262 54.5503C93.3262 52.0462 94.9118 49.7326 97.5635 49.7326C98.0282 49.7326 98.4656 49.8687 98.7116 50.0047C98.8483 49.2971 99.1764 47.0923 99.2037 46.4391C99.6411 46.3574 100.571 46.2213 101.008 46.2213C101.172 46.2213 101.227 46.3846 101.172 46.7929C100.789 49.1337 100.133 53.5976 99.9965 54.5775C99.9145 55.4213 99.8871 56.2379 99.9145 56.7006C99.4224 56.9184 98.4109 56.9728 98.1376 56.9728C98.0282 56.9728 97.9735 56.2651 98.0009 55.6118C98.0282 55.4213 98.0555 55.1219 98.0555 55.0675C97.2081 56.3195 96.1419 56.9456 94.9391 56.9456ZM104.07 51.9373C104.89 50.1136 105.874 49.7053 106.53 49.7053C106.721 49.7053 107.05 49.8414 107.186 49.9775C107.241 50.4947 106.831 51.5018 106.475 51.9101C106.284 51.8284 106.065 51.7195 105.792 51.7195C105.273 51.7195 104.206 52.5361 103.55 56.0746C103.496 56.374 103.414 56.4828 103.25 56.5645C102.976 56.7278 101.937 56.8367 101.445 56.8639C101.691 55.5846 102.074 52.9988 102.238 51.4746C102.293 51.0935 102.293 50.3586 102.265 50.0864C102.566 49.9503 103.742 49.6781 103.988 49.6781C104.124 49.6781 104.234 50.5219 104.015 51.9101H104.07V51.9373ZM109.565 55.3669C110.33 55.3669 111.724 54.0331 112.107 51.4746C112.134 51.3113 112.134 51.284 112.162 51.1207C111.998 51.0663 111.752 51.0118 111.533 51.0118C110.959 51.0118 110.357 51.1752 109.838 51.9101C109.291 52.6722 109.045 53.6249 109.045 54.387C109.072 55.013 109.236 55.3669 109.565 55.3669ZM107.05 54.6592C107.05 53.7337 107.35 52.155 108.526 50.9846C109.537 49.9503 110.74 49.7053 111.861 49.7053C112.599 49.7053 113.583 49.9503 114.212 50.0592C114.048 50.7397 113.692 53.3255 113.501 54.8225C113.419 55.4485 113.392 56.3468 113.419 56.6734C112.9 56.8911 111.943 56.9456 111.67 56.9456C111.533 56.9456 111.505 56.3195 111.533 55.6935C111.56 55.503 111.587 55.2036 111.587 55.0675C110.986 56.0746 109.783 56.9184 108.526 56.9184C107.651 56.9456 107.05 56.1834 107.05 54.6592Z" fill="#344154"/>
<path d="M104.178 23.3847C104.697 29.3456 95.2661 35.0344 83.101 36.0687C70.9359 37.103 60.6844 33.1018 60.165 27.1409C59.6456 21.18 69.0769 15.4912 81.242 14.4569C93.3798 13.4226 103.659 17.3965 104.178 23.3847Z" fill="#344154"/>
<path d="M81.5688 15.1373C76.9214 15.0556 71.5087 16.9065 67.4627 18.6213C67.0527 19.8189 66.8066 21.0982 66.8066 22.4319C66.8066 29.5089 73.2309 35.2521 81.1587 35.2521C89.0865 35.2521 95.5381 29.5361 95.5381 22.4319C95.5381 20.2 94.882 18.0769 93.7612 16.2532C90.5354 15.7633 86.0794 15.2189 81.5688 15.1373Z" fill="white"/>
<path d="M81.1886 15.1374C78.6189 14.9741 74.1903 16.3078 70.4998 17.6415C69.9257 18.948 69.625 20.3906 69.625 21.9149C69.625 28.1208 75.2838 33.1563 81.2433 33.1563C87.1755 33.1563 92.4242 28.1208 92.8616 21.9149C92.9983 19.9007 92.3149 17.9954 91.3308 16.3622C87.5309 15.709 83.485 15.3007 81.1886 15.1374Z" fill="white"/>
<path d="M74.5992 21.1255C74.9272 20.4178 75.392 20.0911 75.8567 19.5195C75.802 19.3834 75.6927 18.9207 75.6927 18.7846C75.6927 18.0769 76.2668 17.5326 76.9502 17.5326C77.1142 17.5326 77.2782 17.5598 77.4149 17.6142C79.5199 16.0083 82.281 15.3278 85.0694 15.9539C85.3154 16.0083 85.5615 16.09 85.8075 16.1444C83.0738 15.7633 79.9573 16.7432 77.8523 18.4308C77.907 18.5941 78.0984 19.0024 78.0984 19.1929C78.0984 19.9006 77.6336 20.0639 76.9502 20.0639C76.7862 20.0639 76.6495 20.0367 76.4855 19.9823C76.0207 20.6083 75.4193 21.8331 75.1459 22.5953C76.3214 23.6296 77.3602 24.0107 78.7271 24.5278C78.7271 24.4734 78.7818 24.3917 78.7818 24.3373C78.7818 22.2414 80.6407 20.5266 82.7457 20.5266C84.632 20.5266 86.2176 21.8876 86.5183 23.684C87.4751 23.0852 88.3772 22.6225 89.0607 21.7515C88.8966 21.561 88.7326 20.9894 88.7326 20.7172C88.7326 20.0911 89.252 19.574 89.8808 19.574C89.9628 19.574 90.0448 19.574 90.1542 19.6012C90.5095 18.8663 90.7829 18.1042 90.9469 17.3148C87.6391 14.8651 81.2422 15.2189 81.2422 15.2189C81.2422 15.2189 76.1574 14.9468 72.7129 16.6343C72.9589 18.213 73.615 19.7917 74.5992 21.1255Z" fill="#373535"/>
<path d="M90.4006 20.1728C90.6467 20.3906 90.756 20.5539 90.8654 20.7444C91.1661 21.2888 90.5647 21.806 89.9086 21.806C89.8539 21.806 89.7719 21.806 89.7172 21.7787C89.0064 22.8947 87.7489 24.3101 86.6281 25.045C88.3503 25.3172 89.9632 25.9977 91.2208 27.0592C92.1502 25.3989 92.861 22.9764 92.861 20.9349C92.861 19.3835 92.1776 18.2403 91.1387 17.3965C91.1114 18.2403 90.6467 19.4107 90.4006 20.1728ZM76.5133 30.7338C77.0874 29.1551 78.4816 27.9574 79.8211 26.8959C79.6297 26.6237 79.329 25.9704 79.2197 25.671C77.6068 25.1811 76.1852 24.2557 75.0644 23.058C75.0644 23.0852 75.0371 23.1397 75.0371 23.1669C74.8184 24.0923 74.791 25.045 74.9004 25.9432C75.6658 26.0793 76.2672 26.7598 76.2672 27.5764C76.2672 28.0663 75.8298 28.7468 75.5018 29.0734C75.8298 29.7811 76.0759 30.1622 76.5133 30.7338Z" fill="#373535"/>
<path d="M76.4046 32.0402C75.7212 31.3597 75.2565 30.026 74.8191 29.1822C74.7371 29.1822 74.6551 29.2094 74.573 29.2094C73.6436 29.2094 72.6868 28.4473 72.9055 27.5491C73.0148 27.0591 73.3702 26.7325 73.917 26.4603C73.7803 25.426 73.7529 23.9834 73.999 22.9218C74.0536 22.6224 74.2177 22.4863 74.2997 22.1869C73.2882 20.7171 72.6321 18.7574 72.6321 16.8248V16.6071C70.9099 17.4781 69.625 18.8118 69.625 20.9349C69.625 25.6437 72.3587 30.271 76.4046 32.0674V32.0402ZM86.3827 25.5349C85.8633 27.0047 84.4418 28.0934 82.7742 28.0934C81.8721 28.0934 81.052 27.794 80.4232 27.2769C79.0837 28.3112 77.8535 30.1349 77.2521 31.7408C77.5255 32.0402 77.7168 32.2852 78.0449 32.5574C78.9743 32.8023 80.2865 32.5574 81.298 32.5574C85.3713 32.5574 89.0071 30.7609 91.0848 27.5763C89.6632 26.5964 88.023 25.671 86.3827 25.5349Z" fill="#373535"/>
<path d="M74.4917 21.6699C74.8198 20.9622 75.2025 20.3362 75.6672 19.7373C75.6126 19.6013 75.5852 19.4379 75.5852 19.3018C75.5852 18.5942 76.1593 18.0498 76.8427 18.0498C77.0068 18.0498 77.1708 18.077 77.3075 18.1314C79.4124 16.5255 82.1735 15.845 84.9619 16.4711C85.2079 16.5255 85.4539 16.6072 85.7 16.6616C82.9663 16.2805 80.1232 17.1243 78.0182 18.8119C78.0729 18.9752 78.1276 19.1385 78.1276 19.3018C78.1276 20.0095 77.5535 20.5539 76.8701 20.5539C76.7061 20.5539 76.5694 20.5267 76.4053 20.4723C75.9406 21.0983 75.5306 21.806 75.2572 22.5681C76.2687 23.6297 77.4988 24.5007 78.8657 24.9906V24.8001C78.8657 22.7042 80.5879 20.9894 82.6929 20.9894C84.5791 20.9894 86.1647 22.3504 86.4654 24.1468C87.4222 23.548 88.2423 22.7859 88.9531 21.8877C88.7891 21.6971 88.6797 21.4521 88.6797 21.18C88.6797 20.5539 89.1991 20.0368 89.8279 20.0368C89.9099 20.0368 89.9919 20.0368 90.1012 20.064C90.4566 19.3291 90.73 18.5669 90.894 17.7776C87.5862 15.3279 81.1893 15.6817 81.1893 15.6817C81.1893 15.6817 76.1046 15.4095 72.6602 17.0971C72.8515 18.7575 73.5076 20.3362 74.4917 21.6699Z" fill="#344154"/>
<path d="M90.5646 20.3634C90.8106 20.5812 90.9473 20.8806 90.9473 21.2072C90.9473 21.8332 90.4279 22.3504 89.7991 22.3504C89.7444 22.3504 89.6624 22.3504 89.6078 22.3232C88.897 23.4391 87.9402 24.3918 86.8194 25.0995C88.4596 25.3445 90.0178 26.0522 91.3027 27.1137C92.2321 25.4533 92.7789 23.5208 92.7789 21.4794C92.7789 19.9279 92.0954 18.7847 91.0566 17.9409C91.0019 18.7847 90.8379 19.6013 90.5646 20.3634ZM76.6773 31.0877C77.2513 29.509 78.2355 28.1208 79.575 27.0593C79.3836 26.7871 79.2196 26.5149 79.1103 26.1883C77.4974 25.6983 76.0758 24.7729 74.955 23.5752C74.955 23.6025 74.9277 23.6569 74.9277 23.6841C74.709 24.6096 74.6816 25.5622 74.791 26.4604C75.5564 26.5965 76.1578 27.277 76.1578 28.0936C76.1578 28.5835 75.9392 29.019 75.6111 29.3184C75.8845 29.9445 76.2672 30.5433 76.6773 31.0877Z" fill="white"/>
<path d="M76.4027 32.013C75.7192 31.3326 75.1451 30.5704 74.7077 29.7266C74.6257 29.7266 74.5437 29.7539 74.4617 29.7539C73.5322 29.7539 72.7941 29.0189 72.7941 28.0935C72.7941 27.4402 73.1769 26.8686 73.7236 26.5965C73.5869 25.5621 73.6416 24.5278 73.8876 23.4663C73.9423 23.1669 74.0517 22.8675 74.1337 22.5681C73.1222 21.0982 72.5208 19.3018 72.5208 17.3692V17.1515C70.7985 18.0225 69.5137 19.3562 69.5137 21.4793C69.5137 26.1882 72.3294 30.2438 76.3753 32.0402C76.4027 32.0402 76.4027 32.0402 76.4027 32.013ZM86.2714 26.0793C85.752 27.5491 84.3304 28.6379 82.6629 28.6379C81.7607 28.6379 80.9406 28.3385 80.3119 27.8213C78.9723 28.8556 77.9609 30.271 77.3321 31.8769C77.6055 32.1763 77.9062 32.4485 78.2069 32.7207C79.1364 32.9657 80.1205 33.1018 81.132 33.1018C85.2052 33.1018 88.8137 31.0059 90.8914 27.8213C89.5245 26.8414 87.9116 26.2154 86.2714 26.0793Z" fill="#344154"/>
<path d="M86.4094 25.0993L89.9359 24.2556L86.3821 24.065L89.2798 21.8875L85.9993 23.0579L88.2137 19.9822L85.1246 22.0236L86.1907 18.4307L84.0857 21.3976L84.0311 17.6414L82.6369 20.9893L81.4887 17.6141L81.5434 21.5881L79.5477 18.0224L80.6412 21.8059L77.3881 19.465L79.9305 22.6496L75.8846 21.1798L79.0557 23.5206L74.9824 23.6567L79.165 24.7183L74.9824 25.6165L79.1104 25.9159L75.6385 28.1207L79.2197 26.8414L76.732 29.9715L79.8758 27.4402L78.755 31.6319L81.188 28.2023L80.8599 32.2307L82.2268 28.5562L83.4023 32.394L83.6757 28.5289L85.4253 31.8224L84.3864 28.0662L87.5576 30.5159L85.5073 27.3857L89.0064 28.7467L86.3274 26.1337L89.9086 26.4059L86.4094 25.0993Z" fill="white"/>
<path d="M48.7637 31.8226C59.7259 20.9078 68.4738 17.5326 76.429 16.0084C77.4678 15.8178 77.6865 13.5042 77.6865 13.5042C77.6865 13.5042 77.8232 15.1918 78.5613 15.4095C79.2994 15.6273 80.2562 12.7693 80.2562 12.7693C80.2562 12.7693 79.3814 15.3279 80.2562 15.4912C81.131 15.6273 82.7712 12.9871 82.7712 12.9871C82.7712 12.9871 82.1151 15.2462 82.5525 15.4095C82.9899 15.5456 85.2043 12.1161 85.2043 12.1161C85.2043 12.1161 83.8921 14.3752 85.1222 14.6202C86.3798 14.838 88.2114 13.0687 88.2114 13.0687C88.2114 13.0687 86.7898 14.6746 87.4186 14.9196C90.1523 15.8723 92.3393 12.361 92.3393 12.361C92.3393 12.361 91.8199 13.9125 90.5077 15.6001C93.3781 16.335 95.5104 12.0344 95.5104 12.0344L93.3781 16.335C94.4716 16.8794 98.8729 11.8167 98.8729 11.8167C98.8729 11.8167 96.6039 15.7634 95.2644 16.58C96.0025 17.1788 98.6542 14.8107 98.6542 14.8107C98.6542 14.8107 96.5219 17.451 97.342 17.5871C98.5175 18.5397 102.864 12.6877 102.864 12.6877C102.864 12.6877 101.169 16.1445 98.6815 18.8391C100.759 19.9007 105.953 13.232 105.953 13.232C105.953 13.232 105.817 15.3551 102.044 18.7303C104.832 18.3764 108.441 13.0959 108.441 13.0959C108.441 13.0959 107.129 17.0427 103.958 19.8462C106.691 19.574 111.093 12.8238 111.093 12.8238C111.093 12.8238 109.398 17.5054 105.953 20.2273C109.78 21.0711 115.303 15.3823 115.303 15.3823C115.303 15.3823 113.143 19.4107 110.3 21.0711C113.471 22.2687 117.818 17.2877 117.818 17.2877C117.818 17.2877 113.471 23.9563 106.555 23.6569C104.286 23.548 97.424 16.7977 82.7166 17.3421C63.2524 18.0498 59.1518 26.2699 48.7637 31.8226Z" fill="#373535" fill-opacity="0.35"/>
<path d="M49.2031 31.0059C60.1653 20.0911 68.9132 16.716 76.8684 15.1917C77.9072 15.0012 78.1259 12.6876 78.1259 12.6876C78.1259 12.6876 78.2626 14.3752 79.0007 14.5929C79.7388 14.8107 80.6956 11.9527 80.6956 11.9527C80.6956 11.9527 79.8208 14.5112 80.6956 14.6746C81.5704 14.8107 83.2106 12.1704 83.2106 12.1704C83.2106 12.1704 82.5545 14.4296 82.9919 14.5929C83.4293 14.729 85.6436 11.2994 85.6436 11.2994C85.6436 11.2994 84.3314 13.5586 85.5616 13.8036C86.8191 14.0213 88.6507 12.2521 88.6507 12.2521C88.6507 12.2521 87.2292 13.858 87.8579 14.103C90.5917 15.0556 92.7786 11.5444 92.7786 11.5444C92.7786 11.5444 92.2592 13.0959 90.947 14.7834C93.8174 15.5183 95.9497 11.2178 95.9497 11.2178L93.8174 15.5183C94.9109 16.1172 99.3396 11.0544 99.3396 11.0544C99.3396 11.0544 97.0706 15.0012 95.7311 15.8178C96.4692 16.3349 99.1209 13.9941 99.1209 13.9941C99.1209 13.9941 96.9886 16.6343 97.8087 16.7704C98.9842 17.7231 103.331 11.871 103.331 11.871C103.331 11.871 101.609 15.3278 99.1209 18.0225C101.198 19.0568 106.42 12.3882 106.42 12.3882C106.42 12.3882 106.283 14.5112 102.511 17.8864C105.299 17.5325 108.908 12.2521 108.908 12.2521C108.908 12.2521 107.595 16.1988 104.424 19.0024C107.158 18.7302 111.559 11.9799 111.559 11.9799C111.559 11.9799 109.864 16.6615 106.42 19.3834C110.247 20.2272 115.769 14.5385 115.769 14.5385C115.769 14.5385 113.61 18.5669 110.767 20.2272C113.938 21.4249 118.284 16.4438 118.284 16.4438C118.284 16.4438 113.938 23.1124 107.021 22.813C104.752 22.7041 97.8907 15.9539 83.1833 16.4982C63.7192 17.2331 59.5913 25.426 49.2031 31.0059Z" fill="#344154"/>
<path d="M48.4922 33.02C54.2877 35.9052 59.5911 32.5845 66.2614 34.4626C71.3461 35.878 77.5244 37.6472 85.9169 36.4224C94.3095 35.2247 101.472 31.5774 104.916 25.0993C105.982 22.2141 110.329 25.7526 110.329 25.7526C110.329 25.7526 107.158 24.4461 107.24 25.0449C107.322 25.6709 111.997 27.8212 111.997 27.8212C111.997 27.8212 107.759 26.5147 108.033 27.4946C108.279 28.4745 113.336 32.4484 113.336 32.4484C113.336 32.4484 107.568 28.1478 107.103 28.7467C106.611 29.3455 109.536 31.7135 109.536 31.7135C109.536 31.7135 104.725 28.7467 103.03 29.6177C101.8 30.2437 108.033 34.2993 108.033 34.2993C108.033 34.2993 103.987 31.2236 103.03 32.0401C102.073 32.8567 107.595 39.4437 107.595 39.4437C107.595 39.4437 101.308 32.6934 100.679 33.02C100.05 33.3466 102.401 36.5857 102.401 36.5857C102.401 36.5857 99.3395 33.2106 98.4921 33.7821C97.6446 34.381 102.921 43.1182 102.921 43.1182C102.921 43.1182 97.2072 34.1632 94.8289 35.6603C98.5194 43.7443 97.1525 44.8875 97.1525 44.8875C97.1525 44.8875 96.6878 36.6401 92.0678 36.8579C89.7441 36.9668 93.1613 43.0094 93.1613 43.0094C93.1613 43.0094 90.0175 37.4839 87.9125 37.5928C91.7671 44.8875 90.4002 47.8271 90.4002 47.8271C90.4002 47.8271 91.029 41.594 85.8076 38.1372C87.8032 39.9064 84.55 47.8271 84.55 47.8271C84.55 47.8271 87.3931 36.1502 82.4451 38.3821C81.6523 38.736 82.3904 44.207 82.3904 44.207C82.3904 44.207 81.4063 37.9466 79.9027 38.2733C79.0279 38.4638 74.3806 46.9561 74.3806 46.9561C74.3806 46.9561 78.1805 37.7833 77.0323 38.1644C76.1848 38.4366 74.5993 42.22 74.5993 42.22C74.5993 42.22 75.3647 38.491 74.5993 38.2733C73.8338 38.0555 69.5145 42.22 69.5145 42.22C69.5145 42.22 72.713 38.491 72.1663 37.7017C71.3188 36.5313 70.362 36.4768 69.1865 36.9395C67.4916 37.5928 65.2226 40.6685 65.2226 40.6685C65.2226 40.6685 67.4916 37.5384 67.1089 36.3952C66.4801 34.5171 59.9465 40.0153 59.9465 40.0153C59.9465 40.0153 63.8011 36.3952 62.9263 35.6058C62.0515 34.8437 57.2401 35.0614 55.7639 35.0614C51.3626 35.1159 49.8317 34.0816 48.4922 33.02Z" fill="#373535" fill-opacity="0.35"/>
<path d="M48.2461 32.3669C54.0416 35.2522 59.345 31.9314 66.0153 33.8096C71.1001 35.2249 77.2783 36.9942 85.6708 35.7693C94.0634 34.5717 101.226 30.9243 104.67 24.4462C105.736 21.561 110.083 25.0995 110.083 25.0995C110.083 25.0995 106.912 23.793 106.994 24.3918C107.076 25.0178 111.751 27.1681 111.751 27.1681C111.751 27.1681 107.513 25.8616 107.787 26.8415C108.033 27.8214 113.09 31.7954 113.09 31.7954C113.09 31.7954 107.377 27.4675 106.912 28.0664C106.447 28.6652 109.345 31.0332 109.345 31.0332C109.345 31.0332 104.534 28.0664 102.839 28.9374C101.608 29.5634 107.841 33.619 107.841 33.619C107.841 33.619 103.795 30.5433 102.839 31.3599C101.882 32.1764 107.404 38.7634 107.404 38.7634C107.404 38.7634 101.144 32.0131 100.515 32.3397C99.8862 32.6664 102.237 35.9054 102.237 35.9054C102.237 35.9054 99.1208 32.5575 98.2733 33.1291C97.4259 33.7279 102.675 42.4652 102.675 42.4652C102.675 42.4652 96.9611 33.4829 94.6101 34.98C98.328 43.0912 96.9338 44.2344 96.9338 44.2344C96.9338 44.2344 96.4691 35.9871 91.849 36.2048C89.5254 36.3137 92.9425 42.3563 92.9425 42.3563C92.9425 42.3563 89.8261 36.8581 87.7211 36.9669C91.5757 44.2616 90.2088 47.2013 90.2088 47.2013C90.2088 47.2013 90.8376 40.9681 85.6162 37.5113C87.6118 39.2806 84.3586 47.2013 84.3586 47.2013C84.3586 47.2013 87.2017 35.5243 82.2537 37.7563C81.4609 38.1101 82.199 43.5811 82.199 43.5811C82.199 43.5811 81.2148 37.3208 79.7113 37.6474C78.8365 37.8379 74.1892 46.3302 74.1892 46.3302C74.1892 46.3302 77.989 37.1575 76.8409 37.5385C75.9934 37.8107 74.4079 41.5942 74.4079 41.5942C74.4079 41.5942 75.1733 37.8652 74.4079 37.6474C73.6424 37.4297 69.3231 41.5942 69.3231 41.5942C69.3231 41.5942 72.5216 37.8652 71.9748 37.0758C71.1274 35.9054 70.1706 35.851 68.9951 36.3137C67.3002 36.9669 65.0312 40.0427 65.0312 40.0427C65.0312 40.0427 67.3002 36.9125 66.9175 35.7693C66.2887 33.8912 59.7551 39.3894 59.7551 39.3894C59.7551 39.3894 63.6096 35.7693 62.7349 34.98C61.8601 34.2178 57.0487 34.4356 55.5725 34.4356C51.1165 34.4628 49.5856 33.4285 48.2461 32.3669Z" fill="#344154"/>
</svg>
