<svg width="165" height="80" viewBox="0 0 165 80" fill="none" xmlns="http://www.w3.org/2000/svg">
<g clip-path="url(#clip0)">
<path fill-rule="evenodd" clip-rule="evenodd" d="M129.557 36.8384C129.46 36.8579 129.362 37.0734 129.362 37.1908C129.343 37.9746 129.324 40.0512 129.324 41.4617C129.324 41.501 129.382 41.5794 129.44 41.5794C129.732 41.5989 130.433 41.6184 131.036 41.6184C131.873 41.6184 132.36 41.501 132.633 41.3836C133.333 41.0308 133.664 40.2667 133.664 39.4241C133.664 37.5241 132.341 36.7991 130.374 36.7991C130.238 36.7796 129.849 36.7796 129.557 36.8384V36.8384ZM134.579 45.5956C134.579 43.656 133.158 42.5784 130.589 42.5784C130.472 42.5784 129.654 42.5589 129.46 42.598C129.401 42.6177 129.324 42.657 129.324 42.7158C129.324 44.1065 129.304 46.3206 129.362 47.1825C129.401 47.5546 129.674 48.0837 130.005 48.2404C130.355 48.4363 131.153 48.4754 131.698 48.4754C133.236 48.4754 134.579 47.6135 134.579 45.5956V45.5956ZM125.586 35.761C125.781 35.761 126.365 35.8195 127.863 35.8195C129.285 35.8195 130.413 35.7805 131.796 35.7805C133.489 35.7805 135.825 36.3877 135.825 38.9346C135.825 40.1884 134.949 41.1877 133.8 41.6774C133.742 41.697 133.742 41.736 133.8 41.7556C135.435 42.1672 136.876 43.1858 136.876 45.1056C136.876 46.9865 135.708 48.1816 134.015 48.9261C132.983 49.3766 131.698 49.5332 130.394 49.5332C129.401 49.5332 126.735 49.4158 125.255 49.4551C125.1 49.3961 125.391 48.6909 125.528 48.5735C125.878 48.5537 126.15 48.5342 126.52 48.4166C127.046 48.2796 127.104 48.1228 127.182 47.3196C127.221 46.6339 127.221 44.2044 127.221 42.4806C127.221 40.1101 127.241 38.5036 127.221 37.72C127.202 37.1129 126.988 36.9167 126.559 36.7991C126.228 36.7405 125.683 36.6619 125.236 36.6033C125.138 36.5053 125.469 35.8391 125.586 35.761ZM114.354 47.9465C114.822 48.3185 115.736 48.4752 116.554 48.4752C117.605 48.4752 118.656 48.2796 119.669 47.3585C120.7 46.4184 121.42 44.9687 121.42 42.657C121.42 40.4429 120.583 38.6405 118.87 37.5829C117.897 36.9753 116.651 36.721 115.211 36.721C114.783 36.721 114.374 36.7405 114.121 36.8579C114.062 36.8972 113.926 37.0734 113.926 37.1712C113.887 37.5631 113.887 40.5801 113.887 42.3434C113.887 44.1653 113.887 46.7123 113.926 47.0061C113.926 47.3001 114.062 47.7506 114.354 47.9465H114.354ZM109.935 35.7607C110.305 35.7607 111.726 35.8195 112.408 35.8195C113.634 35.8195 114.51 35.761 116.826 35.761C118.773 35.761 120.408 36.2898 121.576 37.2888C122.997 38.5231 123.737 40.2277 123.737 42.3041C123.737 45.2625 122.394 46.967 121.05 47.9465C119.708 48.9456 117.956 49.5332 115.464 49.5332C114.14 49.5332 111.863 49.4942 109.975 49.4744H109.955C109.858 49.2982 110.111 48.6125 110.266 48.593C110.773 48.5342 110.909 48.5144 111.162 48.4168C111.571 48.2599 111.649 48.0444 111.707 47.3196C111.765 45.9677 111.746 44.3418 111.746 42.5001C111.746 41.1877 111.765 38.621 111.726 37.7981C111.668 37.1126 111.376 36.9362 110.792 36.8186C110.5 36.76 110.111 36.6815 109.566 36.6229C109.488 36.4855 109.838 35.8784 109.935 35.761V35.7607Z" fill="#344154"/>
<path fill-rule="evenodd" clip-rule="evenodd" d="M86.3812 48.7104C85.8946 48.6516 85.5442 48.5735 85.116 48.3775C85.0576 48.3383 84.9601 48.1425 84.9601 48.064C84.9213 47.3783 84.9213 45.4192 84.9213 44.1068C84.9213 43.0487 84.7462 42.128 84.2984 41.4815C83.7727 40.7368 83.0138 40.306 82.0403 40.306C81.1839 40.306 80.0354 40.8937 79.0815 41.7165C79.0621 41.7361 78.9064 41.8734 78.9258 41.6577C78.9258 41.4422 78.9648 41.0113 78.9843 40.7172C79.0039 40.443 78.848 40.306 78.848 40.306C78.2251 40.6194 76.4733 41.0308 75.8307 41.0894C75.3637 41.1877 75.2469 41.6382 75.7337 41.7949H75.7531C76.2783 41.9515 76.6289 42.128 76.9012 42.3044C77.0959 42.461 77.0765 42.6765 77.0765 42.8529C77.0959 44.322 77.0959 46.5751 77.0377 47.8094C77.0183 48.2992 76.882 48.4754 76.5315 48.5537L76.5705 48.5342C76.298 48.593 76.0839 48.6516 75.7529 48.6909C75.636 48.8085 75.636 49.4354 75.7529 49.5725C75.967 49.5725 77.0959 49.5137 78.0306 49.5137C79.3152 49.5137 79.9771 49.5725 80.3079 49.5725C80.4442 49.4159 80.4832 48.828 80.4053 48.6909C80.0354 48.6713 79.7628 48.6323 79.5099 48.5537C79.1595 48.4752 79.0621 48.2992 79.0425 47.8878C79.0039 46.8492 79.0039 44.6551 79.0039 43.1663C79.0039 42.7549 79.1205 42.5589 79.2372 42.4413C79.685 42.0496 80.4053 41.7753 81.0476 41.7753C81.6705 41.7753 82.0791 41.9713 82.3907 42.226C82.8189 42.5784 82.9551 43.088 83.0136 43.4601C83.1108 44.3025 83.072 45.9678 83.072 47.4175C83.072 48.2011 83.0136 48.3971 82.7219 48.4949C82.5854 48.5537 82.235 48.6323 81.8262 48.6711C81.6899 48.8085 81.729 49.4159 81.8262 49.553C82.3907 49.553 83.0526 49.4942 84.0259 49.4942C85.2326 49.4942 86.0114 49.553 86.323 49.553C86.42 49.4354 86.459 48.8673 86.3812 48.7104V48.7104ZM91.7732 41.227C90.7417 41.227 90.0992 42.0301 90.0992 43.2837C90.0992 44.5573 90.6637 46.0266 92.2598 46.0266C92.5323 46.0266 93.0386 45.909 93.2719 45.6347C93.6419 45.2823 93.895 44.5768 93.895 43.8323C93.895 42.2063 93.0968 41.2268 91.7732 41.2268V41.227ZM91.6369 49.8859C91.2477 49.8859 90.975 50.0035 90.7999 50.1016C89.9823 50.6302 89.6125 51.1397 89.6125 51.7473C89.6125 52.3152 89.8267 52.7657 90.2939 53.1576C90.8583 53.6474 91.6369 53.8826 92.6296 53.8826C94.6151 53.8826 95.4912 52.805 95.4912 51.7473C95.4912 51.0026 95.1212 50.5128 94.3622 50.2387C93.8172 50.0035 92.8245 49.8859 91.6369 49.8859V49.8859ZM91.7732 54.9797C90.5858 54.9797 89.7292 54.725 88.9896 54.1569C88.2693 53.6083 87.958 52.7854 87.958 52.2173C87.958 52.0607 87.997 51.6295 88.3473 51.2378C88.5612 51.0026 89.0287 50.5521 90.1382 49.788C90.177 49.7685 90.1964 49.749 90.1964 49.7095C90.1964 49.6704 90.1574 49.6311 90.1186 49.6118C89.2038 49.2592 88.9312 48.6909 88.8532 48.3775V48.3383C88.834 48.2206 88.795 48.1032 88.9702 47.9856C89.1065 47.8878 89.3012 47.7702 89.5151 47.6332C89.8461 47.4371 90.1964 47.2216 90.4105 47.0452C90.4496 47.0061 90.4496 46.967 90.4496 46.9278C90.4496 46.8885 90.4105 46.8492 90.3715 46.8299C89.0093 46.3792 88.3279 45.3604 88.3279 43.8323C88.3279 42.8332 88.7755 41.932 89.5735 41.3639C90.1186 40.9329 91.4812 40.4039 92.3767 40.4039H92.4351C93.3499 40.4234 93.856 40.6194 94.5761 40.8741C94.9655 41.0113 95.3355 41.0699 95.8417 41.0699C96.6007 41.0699 96.9317 40.8349 97.204 40.5608C97.2236 40.5998 97.2626 40.6979 97.282 40.9525C97.3014 41.2072 97.2236 41.5794 97.0289 41.8537C96.8732 42.0692 96.5229 42.226 96.1725 42.226H96.075C95.7247 42.1868 95.5688 42.1475 95.5688 42.1475L95.4912 42.1868C95.4718 42.226 95.4912 42.2651 95.5106 42.3239L95.5302 42.3632C95.569 42.5394 95.6468 43.0682 95.6468 43.2056C95.6468 44.812 95.0045 45.5171 94.3232 46.0461C93.6613 46.5359 92.9023 46.8492 92.0457 46.9278C92.0263 46.9278 91.9487 46.9278 91.7732 46.9473C91.6759 46.9473 91.5397 46.967 91.5201 46.967H91.5007C91.345 47.0061 90.9558 47.202 90.9558 47.5349C90.9558 47.8287 91.1309 48.1816 91.9679 48.2404C92.143 48.2599 92.318 48.2599 92.5129 48.2797C93.6225 48.3578 95.0045 48.4559 95.6468 48.6713C96.5423 49.0042 97.1067 49.8076 97.1067 50.7676C97.1067 52.2175 96.0752 53.5692 94.3622 54.4114C93.5252 54.7838 92.688 54.9797 91.7732 54.9797V54.9797ZM102.868 41.3248C102.46 41.3248 102.09 41.4225 101.817 41.6184C101.058 42.0887 100.669 43.0292 100.669 44.4004C100.669 46.967 101.954 48.7694 103.784 48.7694C104.329 48.7694 104.757 48.6125 105.127 48.2992C105.691 47.8287 105.983 46.8885 105.983 45.5759C105.983 43.0292 104.718 41.3246 102.869 41.3246L102.868 41.3248ZM103.219 49.7097C99.9099 49.7097 98.7225 47.2609 98.7225 44.9687C98.7225 43.3622 99.3648 42.128 100.649 41.2463C101.564 40.6782 102.655 40.3648 103.628 40.3648C106.158 40.3648 107.93 42.1868 107.93 44.812C107.93 46.5947 107.229 48.0052 105.886 48.8673C105.243 49.2983 104.134 49.7097 103.219 49.7097H103.219V49.7097ZM68.5312 41.3246C68.1224 41.3246 67.7527 41.4225 67.4799 41.6184C66.721 42.0887 66.3316 43.0292 66.3316 44.4004C66.3316 46.967 67.6162 48.7694 69.4461 48.7694C69.9911 48.7694 70.4193 48.6125 70.7893 48.2992C71.3536 47.8287 71.6457 46.8885 71.6457 45.5759C71.6457 43.0292 70.3999 41.3246 68.5312 41.3246ZM68.8816 49.7097C65.5724 49.7097 64.3851 47.2609 64.3851 44.9687C64.3851 43.3622 65.0274 42.128 66.312 41.2463C67.227 40.6782 68.3171 40.3648 69.2904 40.3648C71.821 40.3648 73.5923 42.1868 73.5923 44.812C73.5923 46.5947 72.8915 48.0052 71.5483 48.8673C70.9254 49.2983 69.8159 49.7097 68.8816 49.7097ZM46.6323 49.5137C46.5933 49.4551 46.5543 49.2787 46.5739 49.0632C46.5739 48.9064 46.6129 48.8085 46.6323 48.7694C47.0411 48.7104 47.2552 48.6516 47.4888 48.593C47.8781 48.4949 48.0338 48.2797 48.0532 47.7899C48.1119 46.6144 48.1119 44.3808 48.0922 42.8332V42.7939C48.0922 42.6177 48.0922 42.402 47.8781 42.2454C47.5666 42.0496 47.1968 41.8734 46.7102 41.7358C46.5351 41.6775 46.4182 41.5794 46.4376 41.462C46.4376 41.3444 46.5545 41.2072 46.8076 41.168C47.4499 41.1091 49.1237 40.6979 49.7856 40.4039C49.8247 40.443 49.8831 40.5608 49.8831 40.7175L49.8637 40.9327C49.8441 41.1484 49.8247 41.4032 49.8247 41.6577C49.8247 41.7361 49.9027 41.7949 49.9803 41.7949C50.0194 41.7949 50.0584 41.7753 50.0972 41.7556C51.343 40.7761 52.4719 40.4234 53.0558 40.4234C54.0099 40.4234 54.7496 40.8741 55.3141 41.8144C55.3529 41.8734 55.3919 41.8929 55.4504 41.8929C55.4892 41.8929 55.5474 41.8734 55.567 41.8341C56.7156 40.9525 57.8641 40.4234 58.6231 40.4234C60.4334 40.4234 61.5041 41.7753 61.5041 44.0675C61.5041 44.7139 61.5041 45.5563 61.4847 46.3206C61.4847 47.0061 61.4653 47.633 61.4653 48.0837C61.4653 48.1814 61.6013 48.4949 61.8154 48.5537C62.0879 48.6909 62.4579 48.7497 62.9446 48.828H62.964C63.003 48.9652 62.9252 49.4745 62.8473 49.5725C62.7305 49.5725 62.5552 49.5725 62.3607 49.553C61.8679 49.5271 61.3746 49.514 60.8812 49.5137C59.6744 49.5137 59.0515 49.5333 58.4478 49.5725C58.4092 49.4159 58.3896 48.9456 58.4478 48.828C58.7984 48.7694 58.9735 48.7104 59.1878 48.6518C59.5772 48.5342 59.6744 48.3578 59.694 47.8485C59.694 47.4763 59.7716 44.3025 59.6548 43.5385C59.5381 42.7549 58.954 41.8341 57.6692 41.8341C57.1826 41.8341 56.4236 42.0301 55.6839 42.598C55.6451 42.6373 55.6058 42.7351 55.6058 42.7939V42.8137C55.6839 43.2249 55.6839 43.6953 55.6839 44.4201V45.6935C55.6839 46.5751 55.6643 47.398 55.6839 48.0247C55.6839 48.4559 55.937 48.5537 56.1511 48.6323C56.268 48.6516 56.3456 48.6713 56.443 48.6909C56.6181 48.7302 56.7934 48.7694 57.0659 48.828C57.105 48.9066 57.105 49.1611 57.0465 49.3766C57.0269 49.4942 56.9879 49.5528 56.9685 49.5725C56.3068 49.553 55.6255 49.5333 54.6328 49.5333C54.3408 49.5333 53.8346 49.553 53.4064 49.553C53.0558 49.553 52.7251 49.5725 52.5306 49.5725C52.511 49.5333 52.4719 49.3963 52.4719 49.1806C52.4719 49.0044 52.511 48.8673 52.55 48.828C52.6472 48.8085 52.7251 48.789 52.8225 48.789C53.0558 48.7497 53.2507 48.7104 53.4452 48.6713C53.7764 48.5735 53.893 48.3971 53.9124 47.9661C53.9709 46.9866 54.0293 44.1851 53.893 43.4796C53.6595 42.3434 53.0172 41.7753 51.9853 41.7753C51.382 41.7753 50.6226 42.0692 50 42.5396C49.9025 42.6177 49.8247 42.8135 49.8247 42.9899V44.1458C49.8247 45.5563 49.8247 47.3197 49.8441 48.0837C49.8637 48.3185 49.9413 48.593 50.3891 48.6909C50.4866 48.7104 50.6423 48.7497 50.837 48.7694L51.1871 48.828C51.2264 48.9456 51.2067 49.4159 51.1289 49.5725C50.9342 49.5725 50.7007 49.553 50.428 49.553C50.0194 49.5333 49.4937 49.5137 48.9098 49.5137C48.2285 49.5137 47.7419 49.5333 47.3525 49.553C47.08 49.5137 46.8659 49.5137 46.6323 49.5137V49.5137Z" fill="#344154"/>
<path fill-rule="evenodd" clip-rule="evenodd" d="M36.3936 54.2156L35.5956 53.9411C35.5956 53.9411 35.693 49.8468 34.2329 49.553C33.2599 48.4165 34.389 1.35896 37.8927 49.3961C37.8927 49.3961 36.6857 50.0032 36.4716 51.0418C36.2379 52.0606 36.3936 54.2156 36.3936 54.2156V54.2156Z" fill="#344154"/>
<path fill-rule="evenodd" clip-rule="evenodd" d="M36.3936 54.2156L35.5956 53.9411C35.5956 53.9411 35.693 49.8468 34.2329 49.553C33.2599 48.4165 34.389 1.35896 37.8927 49.3961C37.8927 49.3961 36.6857 50.0032 36.4716 51.0418C36.2379 52.0606 36.3936 54.2156 36.3936 54.2156V54.2156Z" fill="#344154"/>
<path fill-rule="evenodd" clip-rule="evenodd" d="M36.8221 50.2582C36.8221 50.2582 43.8104 45.6346 42.175 36.0152C40.5985 29.0216 36.8805 26.7294 36.4717 25.8477C36.0241 25.2208 35.5957 24.1239 35.5957 24.1239L35.8879 43.5775C35.8879 43.5972 35.2844 49.5332 36.8223 50.2584" fill="#344154"/>
<path fill-rule="evenodd" clip-rule="evenodd" d="M36.8221 50.2582C36.8221 50.2582 43.8104 45.6346 42.175 36.0152C40.5985 29.0216 36.8805 26.7294 36.4717 25.8477C36.0241 25.2208 35.5957 24.1239 35.5957 24.1239L35.8879 43.5775C35.8879 43.5972 35.2844 49.5332 36.8223 50.2584" fill="#344154"/>
<path fill-rule="evenodd" clip-rule="evenodd" d="M35.1874 50.5128C35.1874 50.5128 28.6273 46.0068 29.0167 38.0727C29.3864 30.1383 34.0193 26.2397 34.9147 25.5345C35.4988 24.9075 35.5182 24.6723 35.5572 24.0454C35.966 24.9271 35.8882 37.2303 35.9464 38.6798C36.1215 44.2632 35.635 49.4551 35.1874 50.5128Z" fill="#344154"/>
<path fill-rule="evenodd" clip-rule="evenodd" d="M35.1874 50.5128C35.1874 50.5128 28.6273 46.0068 29.0167 38.0727C29.3864 30.1383 34.0193 26.2397 34.9147 25.5345C35.4988 24.9075 35.5182 24.6723 35.5572 24.0454C35.966 24.9271 35.8882 37.2303 35.9464 38.6798C36.1215 44.2632 35.635 49.4551 35.1874 50.5128Z" fill="#344154"/>
</g>
<defs>
<clipPath id="clip0">
<rect x="29" y="24" width="108" height="31" fill="white"/>
</clipPath>
</defs>
</svg>
