<svg width="175" height="80" viewBox="0 0 175 80" fill="none" xmlns="http://www.w3.org/2000/svg">
<path fill-rule="evenodd" clip-rule="evenodd" d="M43 58.6974H45.9789V46.8963L50.6311 57.1853C51.1581 58.4221 51.9146 58.8807 53.3809 58.8807C54.8478 58.8807 55.5581 58.4221 56.1082 57.1853L60.7373 46.8963V58.6974H63.7393V46.8963C63.7393 45.751 63.2806 45.1999 62.3181 44.902C60.0496 44.2148 58.537 44.8106 57.8498 46.3457L53.29 56.5207L48.89 46.3457C48.2254 44.8111 46.6897 44.2153 44.3985 44.902C43.4592 45.1999 43.0005 45.7505 43.0005 46.8963V58.6974H43V58.6974ZM66.2138 49.0961H69.2158V55.5813C69.1932 55.9475 69.3304 56.7729 70.9574 56.795C71.8054 56.8181 77.4196 56.795 77.4653 56.795V49.0498H80.4673V59.6599C80.4673 62.272 77.2362 62.8447 75.7237 62.8678H66.2821V60.8745H75.7463C77.6713 60.668 77.4422 59.7061 77.4422 59.3851V58.6054H71.0946C68.1383 58.5823 66.2364 57.2762 66.2138 55.7868C66.2138 55.6496 66.2821 49.1413 66.2138 49.0961ZM130.606 41.5795C128.774 41.5338 127.352 41.7171 126.16 42.2215C125.817 42.3597 125.267 42.3597 125.222 42.7947C125.405 42.977 125.427 43.2754 125.588 43.5281C125.863 43.9868 126.344 44.6046 126.779 44.9256C127.261 45.2928 127.742 45.659 128.246 45.98C129.139 46.5296 130.148 46.8506 131.018 47.4007C131.523 47.7217 132.026 48.1341 132.531 48.4782C132.782 48.6616 132.943 48.96 133.264 49.074V49.0046C133.104 48.7992 133.058 48.5013 132.898 48.2712C132.668 48.0427 132.439 47.8357 132.21 47.6071C131.546 46.7135 130.72 45.9338 129.826 45.2928C129.093 44.7885 127.489 44.1013 127.191 43.2533L127.146 43.2071C127.649 43.1609 128.245 42.9775 128.726 42.8399C129.506 42.6344 130.216 42.6796 131.018 42.4737C131.385 42.3817 131.751 42.2672 132.118 42.1527V41.9467C131.706 41.5343 131.408 40.9842 130.973 40.5949C129.804 39.5867 128.52 38.6011 127.191 37.7763C126.481 37.3181 125.564 37.0197 124.809 36.6309C124.533 36.4933 124.075 36.4245 123.915 36.1954C123.502 35.6916 123.273 35.027 122.975 34.4307C122.311 33.1703 121.669 31.7728 121.096 30.4436C120.684 29.5499 120.431 28.6562 119.928 27.8314C117.567 23.9357 115 21.5752 111.059 19.2609C110.212 18.7796 109.203 18.5732 108.126 18.3215C107.553 18.2984 106.981 18.2527 106.407 18.2296C106.04 18.0693 105.674 17.6338 105.353 17.4273C104.047 16.6025 100.678 14.8151 99.7151 17.1751C99.0962 18.6646 100.632 20.1309 101.159 20.8875C101.549 21.4144 102.052 22.0102 102.328 22.606C102.488 22.9953 102.534 23.4082 102.695 23.8207C103.061 24.8289 103.405 25.9516 103.886 26.8915C104.138 27.3727 104.413 27.8771 104.734 28.3126C104.917 28.5648 105.238 28.6793 105.306 29.0918C104.985 29.5504 104.963 30.2376 104.78 30.8108C103.954 33.4004 104.275 36.6083 105.444 38.5102C105.811 39.0829 106.682 40.3433 107.851 39.862C108.882 39.4496 108.652 38.1435 108.95 36.9976C109.02 36.7229 108.973 36.5395 109.11 36.3562V36.4019C109.431 37.0434 109.752 37.6622 110.05 38.3037C110.761 39.4265 111.998 40.5954 113.03 41.3746C113.579 41.787 114.015 42.4978 114.702 42.7495V42.6801H114.657C114.519 42.4747 114.313 42.3828 114.129 42.222C113.717 41.8096 113.259 41.3052 112.938 40.8471C111.976 39.5641 111.128 38.143 110.372 36.6766C110.005 35.9663 109.684 35.1872 109.387 34.4769C109.248 34.2016 109.248 33.7892 109.02 33.652C108.675 34.1559 108.172 34.5919 107.919 35.2103C107.483 36.1954 107.438 37.4101 107.278 38.6704C107.185 38.6936 107.232 38.6704 107.185 38.7162C106.453 38.5333 106.2 37.7768 105.926 37.1353C105.238 35.5082 105.123 32.896 105.719 31.0167C105.879 30.5355 106.568 29.0229 106.293 28.5648C106.154 28.1293 105.697 27.8776 105.444 27.5335C105.146 27.098 104.826 26.5484 104.62 26.0672C104.07 24.7837 103.796 23.363 103.199 22.0795C102.924 21.4838 102.443 20.8649 102.053 20.3153C101.617 19.6964 101.137 19.2609 100.793 18.528C100.679 18.2758 100.518 17.8634 100.702 17.5886C100.747 17.4052 100.839 17.3364 101.022 17.2907C101.32 17.0385 102.168 17.3595 102.466 17.4967C103.313 17.8403 104.024 18.1613 104.734 18.642C105.055 18.8711 105.399 19.3066 105.812 19.4216H106.293C107.027 19.5819 107.851 19.4674 108.538 19.6733C109.753 20.0631 110.853 20.6358 111.839 21.2547C114.84 23.1566 117.316 25.8607 118.988 29.0918C119.263 29.6187 119.377 30.1 119.63 30.65C120.112 31.7733 120.708 32.9186 121.188 34.0188C121.67 35.0958 122.128 36.1959 122.815 37.0896C123.159 37.5708 124.533 37.8225 125.152 38.0747C125.611 38.2806 126.321 38.4645 126.734 38.7162C127.513 39.1974 128.292 39.7475 129.025 40.2744C129.392 40.5487 130.538 41.1214 130.606 41.5795V41.5795Z" fill="#344154"/>
<path fill-rule="evenodd" clip-rule="evenodd" d="M107.232 21.6661C106.843 21.6661 106.568 21.7119 106.293 21.7807V21.8264H106.338C106.522 22.1931 106.843 22.4453 107.072 22.7658C107.255 23.1325 107.416 23.4992 107.599 23.8659L107.644 23.8202C107.965 23.5911 108.126 23.2244 108.126 22.6743C107.988 22.5141 107.966 22.3533 107.851 22.1931C107.714 21.964 107.416 21.8495 107.232 21.6661V21.6661Z" fill="#344154"/>
<path fill-rule="evenodd" clip-rule="evenodd" d="M82.7598 58.6973H91.376C92.3842 58.6973 93.3472 58.4919 94.1258 58.1246C95.4319 57.5289 96.0508 56.7271 96.0508 55.6732V53.4735C96.0508 52.626 95.3405 51.8233 93.9204 51.2737C93.1869 50.9989 92.2701 50.8382 91.3765 50.8382H87.7561C86.5414 50.8382 85.9688 50.4709 85.808 49.6697C85.7854 49.5783 85.7854 49.4864 85.7854 49.3949V48.0426C85.7854 47.9733 85.7854 47.8824 85.808 47.791C85.9682 47.1721 86.2892 47.0113 87.3437 46.8973H96.1658V44.903H87.7782C86.5635 44.903 85.922 44.9723 85.3494 45.1557C83.5846 45.7052 82.8055 46.5763 82.8055 48.1109V49.8536C82.8055 51.2049 84.318 52.3512 86.8845 52.626C87.1593 52.6491 87.4572 52.6491 87.7551 52.6491H90.849C90.9635 52.6491 91.0776 52.6491 91.169 52.6722C92.1089 52.7637 92.5213 52.9239 92.7961 53.267C92.9794 53.4503 93.0257 53.6111 93.0257 53.8176V55.5592C93.0257 55.7646 92.888 56.041 92.6132 56.2695C92.3374 56.4981 91.9019 56.6588 91.3292 56.6819C91.2147 56.6819 91.1469 56.705 91.0313 56.705H82.7598V58.6973V58.6973ZM114.703 55.2377C114.703 57.2772 116.239 58.4225 119.31 58.6521C119.608 58.6752 119.882 58.6973 120.18 58.6973H127.972V56.704H120.112C118.369 56.704 117.705 56.2685 117.705 55.2146V44.9025H114.703V55.2377H114.703V55.2377ZM97.9521 55.3286V48.2255C97.9521 46.415 99.2351 45.3144 101.734 44.9713C102.009 44.9482 102.283 44.9251 102.536 44.9251H108.218C108.516 44.9251 108.769 44.9482 109.066 44.9713C111.564 45.3144 112.824 46.415 112.824 48.2255V55.3286C112.824 56.7949 112.298 57.5746 111.059 58.102L113.992 60.7594H110.533L108.149 58.6059L105.742 58.7435H102.534C102.008 58.7435 101.412 58.6752 100.793 58.515C98.892 57.987 97.9521 56.9788 97.9521 55.3286V55.3286ZM101.183 55.1694C101.183 55.2608 101.229 55.3517 101.253 55.4673C101.413 56.2916 102.191 56.7502 103.383 56.7502H106.088L103.613 54.5043H107.073L109.249 56.4755C109.663 56.2459 109.914 55.9249 110.006 55.5125C110.029 55.421 110.029 55.307 110.029 55.2146V48.4083C110.029 48.3169 110.029 48.226 110.006 48.1335C109.846 47.3549 109.067 46.9199 107.898 46.9199H103.383C102.054 46.9199 101.183 47.4926 101.183 48.4083V55.1694ZM129.347 58.7204H129.783V57.0481H130.355V56.704H128.751V57.0481H129.347V58.7204V58.7204ZM132.67 58.7204H133.082V56.704H132.464L131.96 58.0794L131.41 56.704H130.814V58.7204H131.204V57.1858H131.227L131.8 58.7204H132.097L132.67 57.1858V58.7204H132.67V58.7204Z" fill="#344154"/>
</svg>
