<svg width="165" height="80" viewBox="0 0 165 80" fill="none" xmlns="http://www.w3.org/2000/svg">
<g clip-path="url(#clip0)">
<path d="M74.5367 41.6947H82.7267L78.3961 35.2512L70.448 46.9013H66.8309L76.4982 32.9069C76.9185 32.3416 77.6191 32 78.3961 32C79.1475 32 79.8481 32.3298 80.2558 32.8834L89.9614 46.9013H86.3443L84.6376 44.298H76.3457L74.5369 41.6947H74.5367ZM112.111 44.2978V32.1413H109.042V45.4877C109.042 45.8528 109.194 46.2063 109.487 46.4772C109.78 46.7481 110.175 46.9013 110.608 46.9013H124.606L126.415 44.298H112.111L112.111 44.2978ZM61.3282 42.1185C64.3089 42.1185 66.729 39.8922 66.729 37.1358C66.729 34.3792 64.3089 32.141 61.3282 32.141H47.8994V46.9015H50.968V34.7448H61.1246C62.5512 34.7448 63.6974 35.8169 63.6974 37.1363C63.6974 38.4554 62.5512 39.5273 61.1246 39.5273L52.4711 39.5157L61.6339 46.9015H66.092L59.9273 42.119H61.3284L61.3282 42.1185ZM29.0106 46.9013C24.6048 46.9015 21.0293 43.6031 21.0293 39.5273C21.0293 35.4513 24.6048 32.1415 29.0106 32.1415H38.287C42.6938 32.1415 46.2666 35.4513 46.2666 39.5273C46.2666 43.6031 42.6938 46.9013 38.2868 46.9013H29.0106ZM38.0808 44.298C40.9351 44.298 43.2469 42.1657 43.2469 39.5271C43.2469 36.8887 40.9351 34.7448 38.0808 34.7448H29.2159C26.3625 34.7448 24.0495 36.8887 24.0495 39.5273C24.0495 42.1657 26.3625 44.298 29.2156 44.298H38.0805H38.0808ZM96.3682 46.9013C91.9614 46.9013 88.3821 43.6031 88.3821 39.5273C88.3821 35.4513 91.9614 32.1415 96.3682 32.1415H107.386L105.59 34.7448H96.572C93.7189 34.7448 91.4008 36.8887 91.4008 39.5273C91.4008 42.1657 93.7189 44.298 96.572 44.298H107.641L105.832 46.9013H96.3682ZM133.905 44.298C131.548 44.298 129.549 42.8374 128.937 40.8229H142.056L143.865 38.2196H128.937C129.549 36.217 131.548 34.7448 133.905 34.7448H142.91L144.731 32.141H133.701C129.294 32.141 125.715 35.4511 125.715 39.5269C125.715 43.6028 129.294 46.901 133.701 46.901H143.164L144.973 44.298H133.905H133.905Z" fill="#344154"/>
</g>
<defs>
<clipPath id="clip0">
<rect x="21" y="32" width="124" height="15" fill="white"/>
</clipPath>
</defs>
</svg>
