<svg width="165" height="80" viewBox="0 0 165 80" fill="none" xmlns="http://www.w3.org/2000/svg">
<g clip-path="url(#clip0)">
<path d="M63.3066 39.9995C63.3066 47.8098 67.8377 54.5587 74.4082 57.7574L65.0124 31.9696C63.8859 34.4961 63.3046 37.2325 63.3066 39.9995V39.9995ZM96.302 39.0039C96.302 36.5654 95.4276 34.8766 94.6776 33.5622C93.6791 31.9369 92.7432 30.5606 92.7432 28.9353C92.7432 27.1216 94.1165 25.4332 96.0509 25.4332C96.1382 25.4332 96.221 25.4441 96.3061 25.449C92.8016 22.2333 88.1326 20.2694 83.0048 20.2694C76.1233 20.2694 70.0686 23.8061 66.5469 29.1628C67.0087 29.1767 67.4446 29.1861 67.8145 29.1861C69.8748 29.1861 73.0641 28.9357 73.0641 28.9357C74.1259 28.873 74.2511 30.4352 73.1904 30.561C73.1904 30.561 72.1233 30.6867 70.9359 30.7491L78.1087 52.1213L82.4194 39.1713L79.3504 30.7487C78.2897 30.6864 77.2845 30.5606 77.2845 30.5606C76.223 30.4983 76.3474 28.8726 77.4089 28.9353C77.4089 28.9353 80.6623 29.1857 82.5978 29.1857C84.6574 29.1857 87.8474 28.9353 87.8474 28.9353C88.91 28.8726 89.0348 30.4348 87.9737 30.5606C87.9737 30.5606 86.904 30.6864 85.7188 30.7487L92.8372 51.9588L94.802 45.3822C95.6539 42.6531 96.302 40.693 96.302 39.0039V39.0039Z" fill="#344154"/>
<path d="M83.3498 41.7252L77.4395 58.9271C79.2464 59.4605 81.1205 59.7313 83.0043 59.7313C85.232 59.7318 87.4437 59.3537 89.5451 58.6128C89.4904 58.5265 89.4435 58.4356 89.4049 58.341L83.3498 41.7252ZM100.288 30.533C100.373 31.1614 100.421 31.8365 100.421 32.5618C100.421 34.5641 100.048 36.8148 98.9232 39.6291L92.9064 57.0544C98.7624 53.6337 102.701 47.2787 102.701 39.9993C102.707 36.6905 101.876 33.4342 100.288 30.533V30.533Z" fill="#344154"/>
<path d="M83.0046 17C70.3439 17 60.043 27.3175 60.043 39.9994C60.043 52.6829 70.3439 63.0004 83.005 63.0004C95.665 63.0004 105.968 52.6833 105.968 39.9994C105.967 27.3175 95.665 17 83.0046 17ZM83.0046 61.9458C70.9245 61.9458 61.0958 52.1006 61.0958 39.9994C61.0958 27.8994 70.9241 18.055 83.0046 18.055C95.0844 18.055 104.912 27.8994 104.912 39.9994C104.912 52.1006 95.0844 61.9458 83.0046 61.9458Z" fill="#344154"/>
</g>
<defs>
<clipPath id="clip0">
<rect x="60" y="17" width="46" height="46" fill="white"/>
</clipPath>
</defs>
</svg>
