<svg width="165" height="80" viewBox="0 0 165 80" fill="none" xmlns="http://www.w3.org/2000/svg">
<path d="M103.248 30.5991C103.248 29.8381 103.086 29.1519 102.749 28.578C102.425 28.0041 101.938 27.53 101.289 27.1557C95.8996 24.0491 90.4973 20.9425 85.1076 17.8359C83.6478 17 82.2505 17.0249 80.8032 17.8733C78.6573 19.1335 67.9027 25.2967 64.7088 27.1557C63.3863 27.9167 62.75 29.0895 62.75 30.6116V49.376C62.75 50.1245 62.9122 50.7858 63.2241 51.3597C63.5485 51.9461 64.0476 52.4452 64.7088 52.8319C67.9152 54.6909 78.6573 60.8417 80.8032 62.1143C82.2505 62.9625 83.6603 62.9999 85.1076 62.1517C90.4973 59.0326 95.8996 55.9385 101.289 52.8319C101.963 52.4452 102.45 51.9586 102.774 51.3597C103.086 50.7858 103.248 50.1245 103.248 49.376V30.5991Z" fill="#344154"/>
<path d="M83.051 39.9189L63.2012 51.3473C63.5256 51.9337 64.0246 52.4327 64.6859 52.8195C67.8923 54.6784 78.6344 60.8293 80.7803 62.1019C82.2275 62.9503 83.6374 62.9877 85.0846 62.1393C90.4744 59.0202 95.8766 55.9261 101.266 52.8195C101.94 52.4327 102.427 51.9462 102.751 51.3473L83.051 39.9189Z" fill="#495970"/>
<path d="M77.1738 43.3C78.3342 45.3212 80.505 46.6811 82.9879 46.6811C85.4956 46.6811 87.6789 45.3087 88.8268 43.2626L83.0502 39.9189L77.1738 43.3Z" fill="#495970"/>
<path d="M103.25 30.5992C103.25 29.8381 103.088 29.1519 102.751 28.578L83.0508 39.919L102.776 51.3474C103.088 50.7734 103.25 50.1122 103.25 49.3636V30.5992Z" fill="#5C6D85"/>
<path d="M88.8262 43.2626C87.6785 45.2962 85.4951 46.6811 82.9873 46.6811C80.4921 46.6811 78.3212 45.3212 77.1734 43.3C76.6119 42.3144 76.2875 41.1915 76.2875 39.9813C76.2875 36.2758 79.2818 33.2815 82.9873 33.2815C85.4576 33.2815 87.6161 34.629 88.7764 36.6252L94.6277 33.2566C92.2947 29.2392 87.9529 26.5319 82.9749 26.5319C75.5389 26.5319 69.5254 32.5579 69.5254 39.9813C69.5254 42.4142 70.1741 44.7099 71.3095 46.6811C73.6301 50.7109 77.9968 53.4308 82.9873 53.4308C87.9904 53.4308 92.3571 50.6985 94.6777 46.6437L88.8262 43.2626ZM96.2247 36.7998H94.8897V43.2501H96.2247V36.7998ZM99.1816 36.7998H97.8466V43.2501H99.1816V36.7998Z" fill="white"/>
<path d="M100.267 37.8853H93.8164V39.2202H100.267V37.8853ZM100.267 40.8296H93.8164V42.1646H100.267V40.8296Z" fill="white"/>
</svg>
