<svg width="165" height="80" viewBox="0 0 165 80" fill="none" xmlns="http://www.w3.org/2000/svg">
<g clip-path="url(#clip0)">
<path d="M95.8127 29.7866L87.8623 32.4182L80.9455 35.5126L79.0104 36.0305C78.5176 36.5057 78.0008 36.9869 77.4419 37.4742C76.829 38.0103 76.2581 38.4977 75.8193 38.8509C75.3326 39.2408 74.6115 39.9717 74.2449 40.4346C73.698 41.129 73.2654 41.8661 73.0791 42.4327C72.7485 43.4561 72.9108 44.4916 73.5478 45.448C74.3651 46.6663 75.9937 47.9089 77.8926 48.7556C78.8602 49.1882 80.4887 49.7425 81.7146 50.0531C83.7517 50.577 87.694 51.1436 89.8633 51.2289C90.3019 51.2472 90.8909 51.2472 90.9149 51.2289C90.963 51.1983 91.2996 50.5466 91.6902 49.7365C93.0243 46.977 93.9858 44.3881 94.5086 42.1769C94.8211 40.8368 95.0674 39.052 95.2296 36.9383C95.2718 36.3474 95.2897 34.3676 95.2537 33.6975C95.1996 32.6011 95.1034 31.7118 94.9533 30.8407C94.9292 30.7127 94.9231 30.5969 94.9352 30.5909C94.9592 30.5726 95.0313 30.5483 96.0109 30.2619L95.8126 29.7868V29.7867H95.8127V29.7866ZM93.9979 30.8649C94.07 30.8649 94.2622 32.7349 94.3103 33.9168C94.3224 34.1665 94.3163 34.331 94.3043 34.331C94.2563 34.331 93.2887 33.7523 92.5977 33.3138C91.9968 32.93 90.855 32.1624 90.6747 32.0162C90.6145 31.9736 90.6205 31.9675 91.1134 31.7969C91.9486 31.5106 93.9318 30.8649 93.9979 30.8649ZM89.9475 32.2172C90.0017 32.2172 90.1398 32.2963 90.4703 32.5035C91.7082 33.2893 93.3909 34.2396 94.112 34.5564C94.3344 34.6539 94.3583 34.6173 93.8476 34.9706C92.7539 35.726 91.3897 36.4691 89.7191 37.2184C89.4246 37.3524 89.1783 37.4559 89.1723 37.4559C89.1603 37.4559 89.1963 37.3037 89.2443 37.1209C89.647 35.604 89.8754 34.069 89.8874 32.8385C89.8934 32.2293 89.8934 32.2293 89.9475 32.2111C89.9355 32.2172 89.9414 32.2172 89.9475 32.2172ZM89.1123 32.5401C89.1482 32.5765 89.1242 33.9411 89.0761 34.3127C88.968 35.2021 88.7997 36.0305 88.5234 36.9625C88.4572 37.1878 88.397 37.3767 88.3852 37.3889C88.361 37.4193 87.5377 36.6031 87.2673 36.2863C86.7985 35.738 86.432 35.1898 86.1616 34.6538C86.0234 34.3797 85.8071 33.8437 85.8251 33.8253C85.9212 33.7584 89.0882 32.5157 89.1123 32.5401ZM85.182 34.1055C85.188 34.1055 85.194 34.1055 85.2001 34.1116C85.2121 34.1238 85.2542 34.2213 85.2903 34.3309C85.4825 34.8609 85.9151 35.6406 86.2878 36.1401C86.6964 36.6884 87.2313 37.2731 87.6759 37.6569C87.8202 37.7787 87.9523 37.8944 87.9703 37.9127C88.0064 37.9493 88.0184 37.9431 87.0389 38.3209C85.9032 38.7595 84.6652 39.198 83.2469 39.661C82.9082 39.7717 82.5697 39.8834 82.2315 39.996C82.1773 40.0143 82.1954 39.9838 82.3516 39.7341C83.0547 38.6193 84.1243 36.4325 84.7253 34.8852C84.8275 34.6172 84.9296 34.3492 84.9477 34.2883C84.9718 34.203 85.0018 34.1725 85.0798 34.1299C85.1219 34.1178 85.164 34.1055 85.182 34.1055ZM83.9802 34.6111C83.9982 34.6234 83.6917 35.2751 83.3913 35.8721C82.8083 37.0234 82.1713 38.1565 81.318 39.5331C81.1738 39.7706 81.0356 39.99 81.0176 40.0144C80.9876 40.057 80.9755 40.0448 80.8793 39.856C80.675 39.4478 80.5067 38.9239 80.4166 38.4427C80.3264 37.9675 80.3445 37.1391 80.4467 36.6275C80.5247 36.2498 80.5188 36.2559 80.699 36.1645C81.4682 35.7686 83.9562 34.5868 83.9802 34.6111ZM94.3464 35.0376V35.2934C94.3464 36.6518 94.2022 38.5158 93.9918 39.8743C93.9558 40.1118 93.9256 40.3067 93.9197 40.3129C93.9197 40.3129 93.7455 40.2642 93.5411 40.2032C92.6398 39.9169 91.6602 39.4965 90.7768 39.0032C90.1938 38.6803 89.3465 38.1503 89.3706 38.1259C89.3765 38.1199 89.629 37.9859 89.9234 37.8275C91.1014 37.2062 92.231 36.5361 93.2106 35.8721C93.5772 35.6224 94.13 35.2204 94.2503 35.1107L94.3464 35.0376ZM79.443 36.8406C79.4671 36.8406 79.4611 36.8893 79.425 37.1086C79.4009 37.267 79.3709 37.5594 79.359 37.7604C79.3108 38.6498 79.4551 39.3077 79.8878 40.2092C80.008 40.459 80.1042 40.6661 80.0981 40.6721C80.056 40.7087 76.0779 41.8905 74.8278 42.2377C74.4552 42.3412 74.1308 42.4326 74.1066 42.4386C74.0647 42.4509 74.0586 42.4448 74.0766 42.3412C74.2148 41.4458 74.8879 40.2762 75.8253 39.2893C76.4504 38.6315 76.9492 38.2477 77.8025 37.7542C78.4154 37.401 79.3589 36.8711 79.431 36.8467C79.4311 36.8406 79.4371 36.8406 79.443 36.8406ZM88.8178 38.5401C88.8237 38.5341 88.968 38.6133 89.1422 38.7168C90.4283 39.4722 92.219 40.1727 93.7453 40.5321L93.8837 40.5626L93.6913 40.6721C92.8921 41.1229 90.266 42.2315 87.5798 43.2489C87.1891 43.395 86.8046 43.5413 86.7324 43.5717C86.6603 43.6021 86.5942 43.6204 86.5942 43.6144C86.5942 43.6082 86.7024 43.395 86.8405 43.1331C87.5917 41.7077 88.3489 39.9717 88.7335 38.7655C88.7817 38.6498 88.8117 38.5463 88.8178 38.5401ZM87.8623 38.8569C87.8684 38.8631 87.8202 38.9909 87.7601 39.1371C87.2373 40.4224 86.5521 41.8236 85.6748 43.3951C85.4525 43.7972 85.2662 44.1201 85.2601 44.1201C85.2542 44.1201 85.0738 44.0104 84.8575 43.8764C83.5834 43.0844 82.4537 42.1098 81.7146 41.1656L81.6064 41.0316L82.1532 40.8793C84.1123 40.3372 85.7768 39.7524 87.4295 39.0337C87.6639 38.9362 87.8563 38.8569 87.8623 38.8569ZM93.7996 40.9585C93.7996 40.9585 93.8056 40.9646 93.7996 40.9585C93.8056 41.0986 93.4991 42.3535 93.2466 43.261C93.0363 44.0225 92.856 44.6195 92.5255 45.6732C92.3813 46.1363 92.2552 46.52 92.2491 46.52C92.2431 46.52 92.2071 46.5139 92.171 46.5018C90.3862 46.1727 88.7877 45.7159 87.2854 45.1068C86.8646 44.9362 86.2637 44.662 86.2277 44.6316C86.2157 44.6193 86.5763 44.4489 87.033 44.2478C89.7673 43.0356 92.6037 41.6589 93.5772 41.0681C93.6913 40.995 93.7815 40.9585 93.7996 40.9585ZM80.0921 41.4337C80.1041 41.4458 79.3409 42.5606 78.2712 44.0774C77.8986 44.6073 77.466 45.2286 77.3038 45.4601C77.1415 45.6916 76.8951 46.0571 76.7569 46.2764L76.5044 46.6724L76.234 46.4409C75.9154 46.1728 75.3626 45.6002 75.1163 45.2835C74.5994 44.6317 74.2509 43.9434 74.1127 43.316C74.0466 43.0236 74.0466 42.8773 74.1066 42.8591C74.1967 42.8348 75.8013 42.451 77.3037 42.0976C78.139 41.9027 79.1065 41.6713 79.455 41.586C79.8036 41.5006 80.0861 41.4337 80.0921 41.4337ZM80.8613 41.7322L81.0535 41.9514C81.919 42.9322 82.8023 43.6572 83.872 44.2906C84.0644 44.4003 84.2085 44.4977 84.1965 44.5039C84.1545 44.5343 80.4826 45.856 78.782 46.453C77.8266 46.7941 77.0393 47.0682 77.0333 47.0682C77.0274 47.0682 76.9732 47.0317 76.9131 46.9891L76.8049 46.9099L76.9792 46.6541C77.544 45.8256 78.2533 44.918 79.7977 43.0296L80.8613 41.7322ZM85.6569 45.2103C85.6628 45.2043 85.9272 45.3017 86.2517 45.4237C87.033 45.7221 87.6518 45.9109 88.4812 46.1241C89.5029 46.3861 90.9811 46.6419 91.8525 46.715C91.9848 46.7271 92.0569 46.7394 92.0328 46.7577C91.9907 46.782 91.1074 47.0805 90.4584 47.2876C89.4246 47.6165 86.2698 48.5607 83.6978 49.31C83.223 49.4501 82.8143 49.5658 82.7903 49.5719C82.7303 49.5841 82.5319 49.5292 82.5319 49.5049C82.5319 49.4928 82.6761 49.3039 82.8504 49.0968C83.7157 48.049 84.5751 46.8795 85.2903 45.7708C85.4885 45.4662 85.6569 45.2164 85.6569 45.2103ZM84.5991 45.2409C84.6051 45.2469 84.1785 45.9413 83.4334 47.1353C83.1148 47.6408 82.7602 48.2134 82.634 48.4145C82.5138 48.6094 82.3336 48.914 82.2314 49.0845L82.0571 49.3953L81.967 49.3709C81.7506 49.3099 80.2303 48.7677 79.8276 48.6033C79.3288 48.4023 78.812 48.1587 78.4274 47.9516C77.9467 47.6896 77.3458 47.2997 77.3938 47.2876C77.4058 47.2815 78.2291 47.056 79.2206 46.782C81.8528 46.057 83.313 45.6368 84.2686 45.3322C84.4429 45.2774 84.5931 45.2347 84.5991 45.2409ZM92.0808 47.0195H92.0868C92.1109 47.0805 91.1374 49.8216 90.7827 50.6866C90.7047 50.8815 90.6747 50.9303 90.6326 50.9241C90.5304 50.9181 89.1183 50.7171 88.2588 50.5891C86.7626 50.3577 84.2506 49.9129 83.6196 49.7668L83.4754 49.7364L84.3707 49.5291C86.2938 49.0906 87.2192 48.853 88.1566 48.5606C89.3405 48.1952 90.5124 47.7383 91.6962 47.1779C91.8825 47.0926 92.0388 47.0256 92.0808 47.0195Z" fill="#344154"/>
<path d="M87.6171 11.0003C87.4849 10.9821 85.3515 11.7618 83.9753 12.3283C82.1184 13.0959 80.6762 13.8269 79.7868 14.4603C79.4563 14.698 79.0416 15.1182 78.9756 15.2827C78.9515 15.3436 78.9395 15.4167 78.9395 15.4898L79.7448 16.2634L81.6617 16.8847L86.2229 17.7132L91.439 18.6209L91.4932 18.164C91.4752 18.164 91.4631 18.1579 91.4452 18.1579L90.76 18.0482L90.6218 17.7985C89.9127 16.5314 89.1315 14.9598 88.6748 13.8999C88.3203 13.0775 87.9837 12.1273 87.7974 11.4451C87.6952 11.0308 87.6832 11.0065 87.6172 11.0004V11.0003H87.6171V11.0003ZM87.5208 11.3111H87.527C87.5329 11.3171 87.557 11.4878 87.581 11.6887C87.6831 12.5416 87.8695 13.3638 88.1639 14.2532C88.3863 14.9233 88.3863 14.8868 88.1279 14.8075C87.5149 14.637 84.7686 14.1558 82.7795 13.8756C82.461 13.8329 82.1906 13.7903 82.1906 13.7842C82.1665 13.7599 83.6268 12.9862 84.2698 12.6817C85.0931 12.2979 87.3526 11.3415 87.5208 11.3111ZM81.7278 14.04L81.9622 14.1191C83.2361 14.5578 86.4391 15.1792 88.206 15.3253C88.4042 15.3436 88.5726 15.3619 88.5785 15.3619C88.5844 15.368 88.4163 15.4594 88.1999 15.5629C87.3466 15.9954 86.4091 16.5254 85.7601 16.9335C85.5679 17.0553 85.3935 17.1528 85.3695 17.1528C85.3455 17.1528 85.2193 17.1284 85.0871 17.1102L84.8467 17.0736L84.2459 16.4766C83.1882 15.435 82.3589 14.6309 82.0403 14.3263L81.7278 14.04ZM81.4875 14.2288L82.3348 15.301C82.7975 15.8919 83.2662 16.4705 83.3685 16.5984C83.4705 16.7264 83.5547 16.83 83.5487 16.8361C83.5247 16.8543 82.3229 16.6167 81.6858 16.4706C81.0307 16.3182 80.7603 16.2451 80.3577 16.1173L80.0272 16.0076V15.9223C80.0332 15.5141 80.544 14.905 81.4093 14.2837L81.4875 14.2288ZM88.6867 15.6908C88.7108 15.6908 88.7408 15.7456 88.8129 15.9101C89.0172 16.3669 89.6543 17.5975 89.8104 17.835C89.8586 17.9143 89.9426 17.9203 89.0954 17.7802C87.0582 17.4451 86.4031 17.3356 86.4031 17.3234C86.4031 17.3173 86.4633 17.2747 86.5414 17.232C87.1724 16.8788 87.8093 16.4279 88.3743 15.9467C88.5125 15.8309 88.6387 15.7213 88.6627 15.703C88.6687 15.6908 88.6807 15.6847 88.6867 15.6908Z" fill="#344154"/>
<path d="M79.0166 15.1975C79.0166 15.1975 78.8845 15.4108 79.0106 15.7276C79.0888 15.9224 79.3171 16.16 79.5755 16.4037C79.5755 16.4037 82.2497 19.0474 82.5742 19.4251C84.0525 21.155 84.6955 22.8607 84.7556 25.212C84.7917 26.7227 84.5091 28.0507 83.8061 29.5918C82.5561 32.3574 79.918 35.4093 75.8496 38.7962L76.4446 38.5951C76.8292 38.3027 77.3521 37.9921 78.5779 37.3098C81.4083 35.7381 84.5933 34.2944 88.4995 32.8081C94.1242 30.6639 103.373 28.1541 108.637 27.3379L109.184 27.2526L109.1 27.1186C108.619 26.3632 108.288 25.8942 107.892 25.3947C106.738 23.9449 105.338 22.7693 103.625 21.7946C101.269 20.4607 98.2225 19.419 94.3646 18.6454C93.6375 18.4991 92.039 18.219 90.7409 18.0179C87.9886 17.5855 86.2098 17.287 84.2508 16.9459C83.5477 16.824 82.496 16.6413 81.7989 16.489C81.4384 16.4098 80.7473 16.2453 80.2065 16.0565C79.7738 15.8859 79.1488 15.7153 79.0166 15.1975ZM80.5671 16.7205C80.573 16.7144 80.6692 16.7509 80.7954 16.7935C81.0238 16.8726 81.3182 16.964 81.6669 17.0616C81.9306 17.1351 82.195 17.2062 82.4601 17.2748C82.8206 17.3661 83.1211 17.4514 83.1271 17.4514C83.1692 17.4941 83.7762 19.4615 83.9805 20.2168C84.0585 20.5032 84.1187 20.7468 84.1127 20.7468C84.1065 20.753 84.0405 20.6494 83.9624 20.5093C83.2593 19.2544 82.1476 17.9813 80.8615 16.9579C80.6933 16.8362 80.5671 16.7265 80.5671 16.7205ZM83.5237 17.5489C83.5538 17.5489 83.686 17.5672 83.8482 17.6037C84.8698 17.8352 86.7027 18.1885 87.8745 18.3895C88.0728 18.4199 88.2291 18.4566 88.2291 18.4687C88.2291 18.4809 88.1569 18.5235 88.0667 18.5723C87.8685 18.6758 87.0692 19.157 86.8049 19.3398C86.1378 19.7905 85.5369 20.2778 85.1042 20.7164C84.9299 20.8931 84.7796 21.0393 84.7796 21.0393C84.7796 21.0393 84.7437 20.9358 84.7135 20.8078C84.4973 19.961 84.0465 18.7062 83.6379 17.8229C83.5717 17.6829 83.5176 17.5549 83.5176 17.5428C83.5176 17.555 83.5176 17.5489 83.5237 17.5489ZM88.7278 18.554C88.7639 18.5661 88.824 18.7733 88.9441 19.2301C89.1665 20.1134 89.2687 21.1002 89.2327 22.02C89.2206 22.2759 89.2086 22.5134 89.1965 22.544L89.1785 22.6048L88.8661 22.5013C88.223 22.2942 87.1774 21.9834 86.2821 21.7277C85.7712 21.5875 85.3567 21.4596 85.3567 21.4475C85.3567 21.4108 86.1018 20.6555 86.4203 20.3693C87.0271 19.827 88.6737 18.5357 88.7278 18.554ZM89.1425 18.6148C89.1605 18.5967 91.6304 19.029 92.7542 19.2484C93.5895 19.4128 94.8034 19.6687 94.8755 19.6992C94.9115 19.7113 94.7853 19.7844 94.3826 19.9672C92.7962 20.6921 91.6183 21.3438 90.4466 22.1358C90.1401 22.3429 89.8817 22.5134 89.8757 22.5134C89.8697 22.5134 89.8637 22.3368 89.8637 22.1236C89.8637 20.9662 89.6353 19.7966 89.2146 18.8098C89.1725 18.7124 89.1365 18.621 89.1425 18.6148ZM95.5305 19.8941C95.5485 19.9124 95.4704 20.4058 95.3982 20.6982C95.1819 21.6058 94.599 22.9521 93.884 24.2191C93.7577 24.4445 93.6435 24.6272 93.6314 24.6333C93.6195 24.6394 93.4573 24.548 93.2709 24.4383C92.5739 24.0241 91.7807 23.6343 90.9153 23.2687C90.675 23.1652 90.4646 23.0799 90.4586 23.0678C90.4164 23.0312 92.3515 21.7337 93.3731 21.1124C94.1844 20.6129 95.5064 19.8697 95.5305 19.8941ZM95.9871 19.9672C96.0413 19.9672 97.135 20.2718 97.7058 20.4424C99.1181 20.8688 100.741 21.4718 101.798 21.9591L102.237 22.1602L101.93 22.2332C99.3465 22.8363 97.135 23.5308 95.0016 24.4079C94.8273 24.481 94.6711 24.542 94.6592 24.542C94.6471 24.542 94.7072 24.4019 94.7853 24.2313C95.4283 22.8485 95.843 21.4048 95.9451 20.1743C95.9512 20.0585 95.9691 19.9672 95.9871 19.9672ZM85.0982 22.5013C85.1162 22.483 85.9515 22.684 86.4022 22.8119C87.0873 23.0069 88.5415 23.5002 88.5415 23.5368C88.5415 23.5429 88.3793 23.683 88.1871 23.8536C87.3998 24.5176 86.6426 25.218 85.7351 26.1074C85.4647 26.3694 85.2364 26.5826 85.2244 26.5826C85.2123 26.5826 85.2064 26.546 85.2123 26.4973C85.3505 25.4739 85.3206 24.1581 85.1282 22.8241C85.1102 22.6535 85.0922 22.5074 85.0982 22.5013ZM102.652 22.5196C102.664 22.5317 102.267 23.1652 102.015 23.5246C101.654 24.0484 101.125 24.743 99.9293 26.2659C99.2984 27.0699 98.5892 27.9776 98.3549 28.2821C98.1144 28.5867 97.9162 28.8425 97.9101 28.8425C97.9041 28.8425 97.8261 28.7329 97.7419 28.5989C97.0688 27.5755 96.2635 26.68 95.308 25.876C95.1278 25.7236 94.9296 25.5592 94.8634 25.5104C94.7973 25.4617 94.7432 25.413 94.7432 25.4069C94.7432 25.3887 95.7647 24.9439 96.5401 24.6272C97.8982 24.0668 99.7489 23.3967 101.137 22.9642C101.864 22.7327 102.64 22.5074 102.652 22.5196ZM103.114 22.6413C103.138 22.6353 103.283 22.7084 103.457 22.8119C104.917 23.6586 106.347 24.749 107.477 25.8699C107.796 26.1867 108.583 27.0151 108.571 27.0212C108.571 27.0212 108.294 27.0455 107.97 27.0699C105.44 27.2649 102.201 27.8069 99.0881 28.5683C98.8778 28.617 98.6915 28.6597 98.6794 28.6597C98.6675 28.6597 98.9018 28.4221 99.1963 28.1359C101.023 26.3511 101.859 25.2242 102.844 23.2139C102.982 22.9155 103.102 22.6597 103.114 22.6413C103.108 22.6413 103.108 22.6413 103.114 22.6413ZM89.7314 24.0303C89.8156 24.0485 90.5968 24.4202 91.1857 24.7186C91.7265 24.9926 92.5379 25.4313 92.5799 25.4678C92.5859 25.4739 92.2974 25.6262 91.943 25.8028C90.8131 26.3754 89.8456 26.9175 88.836 27.5389C88.5476 27.7156 88.3072 27.8618 88.3012 27.8618C88.2772 27.8618 88.2831 27.8373 88.4454 27.5389C88.9863 26.54 89.4189 25.346 89.6654 24.1825C89.6893 24.0911 89.7134 24.0303 89.7314 24.0303ZM88.9501 24.1764C88.9682 24.1947 88.7639 24.9439 88.6377 25.3521C88.3913 26.1257 87.9766 27.0942 87.5741 27.8252C87.4778 27.9957 87.3336 28.2455 87.2555 28.3856L87.1053 28.6292L86.7688 28.3004C86.3782 27.9166 86.0596 27.679 85.6511 27.4658C85.4887 27.3806 85.3626 27.3074 85.3626 27.2953C85.3626 27.2465 86.3902 26.3024 87.1774 25.6201C87.7423 25.1267 88.9321 24.1582 88.9501 24.1764ZM93.7277 26.1684L94.0222 26.3632C94.6951 26.808 95.4883 27.3988 96.0954 27.9166C96.4379 28.2028 97.0989 28.806 97.2312 28.9522L97.3032 29.0314L96.8165 29.1715C94.0642 29.945 91.9369 30.6334 89.455 31.5594C89.1785 31.6629 88.9441 31.7481 88.9261 31.7481C88.8901 31.7481 88.86 31.7786 89.479 31.1999C91.0656 29.7198 92.4717 28.0871 93.5173 26.4972L93.7277 26.1684ZM92.4717 26.4851C92.4837 26.4973 91.6604 27.6729 91.1676 28.3369C90.5787 29.1288 89.533 30.4567 88.8119 31.3217C88.5115 31.6811 88.2532 31.9796 88.2411 31.9857C88.223 31.9918 88.217 31.9004 88.217 31.7603C88.217 31.0232 88.0308 30.2374 87.7062 29.5674C87.568 29.2872 87.544 29.2201 87.5741 29.1897C87.6883 29.0861 89.437 28.0749 90.5427 27.4719C91.2878 27.0699 92.4536 26.4729 92.4717 26.4851ZM84.8758 28.3735C84.8938 28.3735 85.0321 28.4465 85.1883 28.5319C85.5729 28.745 85.9155 28.9826 86.2219 29.2385C86.2339 29.2506 86.0777 29.3786 85.8734 29.5308C85.3025 29.945 84.4371 30.6091 83.9324 31.0172C83.4035 31.4436 83.3856 31.4558 83.4456 31.3644C83.8423 30.7492 84.0405 30.402 84.2509 29.9573C84.4371 29.5614 84.6234 29.0923 84.7556 28.6842C84.8037 28.5075 84.8638 28.3735 84.8758 28.3735ZM86.901 29.9816C86.931 29.9756 86.9671 30.0303 87.1293 30.2741C87.4719 30.7917 87.7363 31.4863 87.8025 32.0467L87.8144 32.1685L86.9912 32.4914C85.5188 33.07 84.1608 33.6427 83.2412 34.069C82.9829 34.1909 82.5321 34.4102 82.2377 34.5564C81.9432 34.7086 81.7029 34.8244 81.7029 34.8183C81.7029 34.8123 81.8891 34.6721 82.1175 34.5015C83.9144 33.1797 85.4708 31.7299 86.6366 30.2802C86.7628 30.1278 86.877 29.9877 86.8889 29.9816L86.901 29.9816ZM85.9696 30.2131C85.9936 30.2375 85.3086 31.0233 84.8398 31.5045C83.68 32.7046 82.5322 33.6427 81.1079 34.5564C80.9277 34.6721 80.7654 34.7757 80.7474 34.7879C80.7053 34.8123 80.7593 34.7513 81.3844 34.063C81.781 33.6304 82.0814 33.265 82.424 32.8143C82.6523 32.5158 82.6944 32.4732 83.025 32.2355C83.9084 31.5898 85.9455 30.1887 85.9696 30.2131Z" fill="#344154"/>
<path d="M59.9464 55.4362C59.8356 55.4362 59.7247 55.4469 59.6148 55.4469C57.3757 55.5678 55.8655 56.5667 54.9826 58.5173C54.2274 60.2815 54.3098 62.5875 54.991 64.3625C55.7832 66.0968 57.0632 67.0122 59.1997 67.3579C59.6518 67.4329 59.9549 67.6845 60.8304 68.7207L61.9077 70.0001H63.8616L62.5624 68.6725C61.8442 67.9446 61.2633 67.3107 61.2633 67.2551C61.2633 67.1994 61.5381 67.0774 61.8706 66.9746C62.9669 66.6384 63.8773 65.7798 64.5141 64.4641C65.0295 63.4075 65.1035 63.0809 65.1774 61.7663C65.3707 57.8534 63.3355 55.4071 59.9463 55.435L59.9464 55.4362ZM61.6594 65.6687C60.7089 66.1353 59.3287 66.2285 58.4277 65.8934C57.4962 65.5466 56.5943 64.566 56.1886 63.4558C55.7377 62.2418 55.8021 60.0022 56.3175 58.9936C57.1466 57.3878 58.2429 56.6491 59.845 56.6491C62.2213 56.6491 63.5731 58.1245 63.7495 60.8972C63.889 63.2118 63.1243 64.9482 61.6605 65.6677L61.6594 65.6687ZM95.4114 58.7785C94.5919 58.7785 93.9645 59.1147 93.542 59.7772L93.2104 60.3019V58.9379H91.792V67.1171H93.2094V64.5028C93.2094 62.1122 93.2389 61.8328 93.5684 61.1786C94.0226 60.2815 94.8041 59.8341 95.5593 60.0482L96.0662 60.1981V58.7807H95.4114V58.7785ZM87.0785 58.7035C86.8007 58.7035 86.506 58.741 86.2126 58.8064C84.3146 59.3094 83.2447 61.1508 83.3102 63.0457C83.3102 64.6324 83.6143 65.4256 84.3696 66.2575C85.9168 67.5442 87.3162 67.647 89.2045 66.9566C89.5267 66.8174 89.8773 66.6568 89.8773 66.6568V65.37L89.2045 65.7233C87.6763 66.3977 86.5251 66.3977 85.603 65.6033C85.0149 64.9963 84.756 64.2683 84.6367 63.4377H90.3557V62.3348C90.3557 60.0867 89.0207 58.6671 87.0774 58.7035H87.0785ZM84.7656 62.2899C84.7656 62.2899 84.9768 60.8875 85.7605 60.3372C86.1376 60.0674 86.5705 59.9368 86.994 59.9368C87.4186 59.9368 87.8421 60.076 88.1917 60.3469C88.91 60.9068 89.0303 62.2793 89.0303 62.2793H84.7656V62.2899H84.7656ZM50.5711 60.8148C49.0334 59.8705 48.3511 59.1895 48.4345 58.3866C48.6732 56.1652 51.3812 56.4725 52.8808 57.3129L52.8915 55.8184C52.8915 55.8184 52.0624 55.4544 50.8742 55.4351C49.0513 55.4073 47.8727 56.0132 47.3204 57.2465C46.5092 59.0664 47.2274 60.4389 49.8235 61.9699C51.2809 62.8295 51.9251 63.5757 51.9251 64.3893C51.9251 66.0701 49.9258 66.6568 47.8633 65.6023C47.4388 65.3882 47.0796 65.2093 47.0606 65.2093C46.9867 65.6858 47.0248 66.8259 47.0248 66.8259C47.0248 66.8259 47.6585 67.0957 48.6089 67.2819C50.9661 67.7583 53.1112 66.6374 53.314 64.8175C53.4904 63.1089 52.8809 62.2128 50.5712 60.8135L50.5711 60.8148ZM107.965 58.6843C107.688 58.6843 107.394 58.7228 107.088 58.7881C105.192 59.2913 104.124 61.1327 104.197 63.0276C104.197 64.6121 104.5 65.3978 105.256 66.2285C106.803 67.5165 108.202 67.6203 110.1 66.9288C110.421 66.7897 110.771 66.6313 110.771 66.6313V65.3423L110.099 65.6976C108.568 66.37 107.416 66.37 106.498 65.5757C105.906 64.9697 105.65 64.2503 105.53 63.4098H111.24V62.3072C111.24 60.0697 109.905 58.649 107.961 58.6866L107.965 58.6843ZM105.652 62.2707C105.652 62.2707 105.865 60.8703 106.648 60.3093C107.024 60.0385 107.457 59.9079 107.88 59.9079C108.303 59.9079 108.728 60.047 109.078 60.319C109.796 60.8789 109.916 62.261 109.916 62.261H105.653L105.652 62.2707ZM79.6539 60.8329C78.1162 59.8908 77.4359 59.2077 77.5184 58.4048C77.757 56.1822 80.465 56.4906 81.9647 57.3311L81.9753 55.8366C81.9753 55.8366 81.1462 55.4726 79.958 55.4554C78.1351 55.4276 76.9565 56.0335 76.4032 57.2668C75.5931 59.0867 76.3208 60.4592 78.9083 61.9902C80.3637 62.8488 81.0079 63.5853 81.0079 64.3989C81.0079 66.0797 79.0097 66.6761 76.947 65.6118C76.5246 65.3977 76.1655 65.221 76.1444 65.221C76.0704 65.6974 76.1086 66.8376 76.1086 66.8376C76.1086 66.8376 76.7348 67.0978 77.6821 67.2937C80.0415 67.7711 82.1876 66.6513 82.3894 64.8313C82.5647 63.1313 81.9564 62.2352 79.6539 60.8349V60.8329H79.6539ZM116.299 58.7592C115.479 58.7592 114.844 59.0964 114.429 59.7591L114.098 60.2815V58.9198H112.679V67.0968H114.097V64.4825C114.097 62.093 114.125 61.8125 114.456 61.1594C114.91 60.2634 115.691 59.8149 116.446 60.03L116.953 60.1798V58.7593H116.299V58.7592ZM68.3744 60.7858V55.5763H66.9444V67.115H72.9581V65.7522H68.3744V60.7858H68.3744ZM101.444 62.4098L100.265 65.5187L99.1321 62.3927L97.9809 58.9284H96.5172C97.4656 61.6541 98.4973 64.4268 99.5377 67.115C99.9887 67.1257 100.441 67.115 100.892 67.115L102.483 63.064L104.104 58.9294H102.705C102.705 58.9294 102.087 60.5717 101.443 62.4109L101.444 62.4098ZM71.6695 52.4321C71.8997 52.4321 72.0919 52.3572 72.2504 52.1966C72.4066 52.0381 72.489 51.8519 72.489 51.6185C72.489 51.3851 72.4066 51.1902 72.2504 51.0404C72.0919 50.8905 71.9092 50.8155 71.68 50.8155C71.4477 50.8155 71.2555 50.8905 71.0991 51.0489C70.9408 51.2074 70.8689 51.4023 70.8689 51.6271C70.8689 51.8626 70.9429 52.0574 71.0991 52.2052C71.247 52.355 71.4393 52.43 71.6695 52.43V52.4321ZM71.1626 51.1046C71.2998 50.9655 71.4667 50.9012 71.6801 50.9012C71.8808 50.9012 72.0477 50.9655 72.1871 51.1046C72.3244 51.2438 72.3983 51.4129 72.3983 51.6185C72.3983 51.824 72.3244 52.0018 72.1871 52.1409C72.0477 52.28 71.8808 52.3464 71.6801 52.3464C71.4762 52.3464 71.3104 52.2822 71.1732 52.1409C71.0359 52.0018 70.9619 51.824 70.9619 51.6185C70.9619 51.4129 71.0253 51.2438 71.1626 51.1046ZM71.5037 51.6935H71.5966C71.6621 51.6935 71.7265 51.7577 71.7814 51.8798L71.8924 52.1323H72.0666L71.9294 51.8518C71.8734 51.7394 71.8185 51.6741 71.754 51.6558C71.8354 51.6366 71.8997 51.6088 71.9463 51.553C71.9926 51.505 72.0096 51.4396 72.0096 51.3657C72.0096 51.2801 71.9832 51.2159 71.9273 51.1688C71.8639 51.1152 71.7625 51.0864 71.6314 51.0864H71.338V52.1323H71.4858V51.6934L71.5037 51.6935ZM71.5037 51.2074H71.6326C71.7255 51.2074 71.791 51.2267 71.8269 51.2545C71.8618 51.2823 71.8713 51.3188 71.8713 51.3851C71.8713 51.506 71.7972 51.5629 71.66 51.5629H71.5017V51.2074H71.5037ZM47.8821 51.6003C47.8821 51.2363 47.8716 50.9655 47.8631 50.806H47.8716C47.9085 50.9942 47.9539 51.1346 47.9909 51.2277L49.3638 54.3366H49.5941L50.967 51.1999C51.0041 51.1144 51.041 50.9858 51.0864 50.807H51.0969C51.0695 51.1175 51.06 51.3873 51.06 51.6024V54.3463H51.5299V50.2674H50.9406L49.6786 53.1044C49.6321 53.2168 49.5676 53.385 49.4853 53.6076H49.4662C49.4388 53.4973 49.3743 53.3292 49.2825 53.1237L48.0489 50.2577H47.4226V54.3365H47.8746V51.6023L47.8821 51.6003ZM52.5597 51.6079H52.9654V54.1483H52.5597V51.6079ZM52.7625 50.6764C52.8471 50.6764 52.9189 50.6474 52.9737 50.5908C53.0298 50.5351 53.0668 50.4623 53.0668 50.3767C53.0668 50.2932 53.0392 50.2182 52.9749 50.1626C52.9178 50.1058 52.8449 50.0768 52.7615 50.0768C52.6792 50.0768 52.6053 50.1058 52.5502 50.1626C52.4944 50.2182 52.4574 50.2932 52.4574 50.3767C52.4574 50.4699 52.4859 50.5351 52.5502 50.5908C52.6137 50.6474 52.6791 50.6764 52.7615 50.6764H52.7625ZM55.8571 54.204V53.7564C55.6352 53.9245 55.3965 54.0081 55.1494 54.0081C54.8538 54.0081 54.6139 53.9054 54.4386 53.7084C54.2644 53.5136 54.1715 53.2426 54.1715 52.9054C54.1715 52.5521 54.2644 52.2715 54.4566 52.0574C54.6414 51.8519 54.8812 51.7491 55.1748 51.7491C55.4146 51.7491 55.6447 51.8242 55.8571 51.9741V51.4977C55.6639 51.3949 55.4432 51.3478 55.1938 51.3478C54.7333 51.3478 54.3743 51.4977 54.1061 51.7868C53.8399 52.0758 53.7026 52.4688 53.7026 52.943C53.7026 53.3648 53.8219 53.7192 54.0702 53.9901C54.3289 54.2684 54.6596 54.4097 55.0651 54.4097C55.3786 54.4009 55.6352 54.3345 55.8571 54.204ZM57.0177 52.8497C57.0177 52.5146 57.0916 52.2438 57.2289 52.0574C57.3578 51.8894 57.5141 51.8048 57.6989 51.8048C57.8552 51.8048 57.9661 51.8337 58.0474 51.899V51.4129C57.9841 51.3851 57.8922 51.3755 57.7728 51.3755C57.607 51.3755 57.4592 51.4321 57.3293 51.5361C57.192 51.6462 57.0822 51.8144 57.0177 52.0286H57.0072V51.4322H56.5478V54.3442H57.0083V52.8497H57.0177ZM59.6612 54.402C60.0943 54.402 60.4428 54.2606 60.7015 53.9802C60.9591 53.7017 61.088 53.3271 61.088 52.8603C61.088 52.384 60.9698 52.02 60.729 51.749C60.4903 51.4783 60.1586 51.3475 59.7256 51.3475C59.2925 51.3475 58.944 51.4782 58.6853 51.7308C58.4086 52.0093 58.2628 52.4022 58.2628 52.9064C58.2628 53.3453 58.3811 53.7094 58.6304 53.9802C58.8881 54.2606 59.2292 54.4009 59.6612 54.4009V54.402ZM59.0064 52.0296C59.1817 51.8422 59.4121 51.749 59.6971 51.749C59.9929 51.749 60.2147 51.8422 60.3794 52.0296C60.5452 52.2255 60.6277 52.505 60.6277 52.8786C60.6277 53.2339 60.5537 53.5134 60.3974 53.7007C60.2411 53.8967 60.0109 54.0005 59.7066 54.0005C59.4109 54.0005 59.1817 53.8966 59.0064 53.7007C58.8322 53.5038 58.7487 53.2339 58.7487 52.8786C58.7308 52.5253 58.8227 52.2363 59.0064 52.0296ZM63.1043 54.1483C63.2796 53.9899 63.3726 53.795 63.3726 53.5508C63.3726 53.3367 63.2986 53.159 63.1613 53.0188C63.0493 52.9065 62.8762 52.8047 62.6259 52.7019C62.404 52.6078 62.2668 52.5242 62.1928 52.4588C62.1189 52.3839 62.0735 52.2909 62.0735 52.1591C62.0735 52.0382 62.12 51.945 62.2108 51.8701C62.3038 51.7952 62.4221 51.7589 62.5805 51.7589C62.8287 51.7589 63.0409 51.8252 63.2352 51.9655V51.4986C63.0493 51.4045 62.8476 51.3596 62.6174 51.3596C62.3217 51.3596 62.0724 51.4421 61.8886 51.6014C61.6953 51.76 61.6035 51.9655 61.6035 52.2074C61.6035 52.4215 61.6668 52.5992 61.7871 52.7298C61.8885 52.8411 62.0619 52.9547 62.3025 53.0563C62.5329 53.1591 62.6891 53.2522 62.7725 53.3271C62.8549 53.4021 62.8918 53.4952 62.8918 53.6056C62.8918 53.8774 62.7081 54.0177 62.349 54.0177C62.0723 54.0177 61.8242 53.9256 61.6023 53.7394V54.2424C61.803 54.3646 62.0438 54.4202 62.3099 54.4202C62.6511 54.402 62.9182 54.3174 63.102 54.1493L63.1043 54.1483ZM65.2968 51.3476C64.8637 51.3476 64.5152 51.4783 64.2565 51.7309C63.9819 52.0094 63.834 52.4023 63.834 52.9065C63.834 53.3454 63.9535 53.7095 64.2016 53.9803C64.4604 54.2607 64.8004 54.401 65.2335 54.401C65.677 54.401 66.015 54.2597 66.2737 53.9791C66.5325 53.7008 66.6613 53.3261 66.6613 52.8593C66.6613 52.3829 66.5409 52.019 66.3022 51.7481C66.0531 51.4772 65.7213 51.3466 65.2989 51.3466L65.2968 51.3476ZM66.1903 52.8786C66.1903 53.234 66.1163 53.5134 65.9601 53.7008C65.8037 53.8967 65.5735 54.0005 65.2693 54.0005C64.9734 54.0005 64.7443 53.8966 64.569 53.7008C64.3948 53.5038 64.3113 53.234 64.3113 52.8786C64.3113 52.5039 64.4033 52.2149 64.5881 52.02C64.7623 51.8337 64.9926 51.7395 65.2788 51.7395C65.5639 51.7395 65.7931 51.8336 65.9589 52.02C66.1068 52.2255 66.1892 52.505 66.1892 52.8786H66.1903ZM67.4345 54.3356H67.8939V51.8145H68.5666V51.4226H67.8938V50.973C67.8938 50.5641 68.0501 50.3585 68.3733 50.3585C68.4821 50.3585 68.593 50.3863 68.6754 50.4335V50.0128C68.593 49.9753 68.4821 49.9668 68.3436 49.9668C68.0955 49.9668 67.8928 50.0418 67.7269 50.2002C67.5336 50.3864 67.4312 50.6284 67.4312 50.9561V51.4336H66.9453V51.8254H67.4312V54.337L67.4345 54.3356ZM69.3217 53.5412C69.3217 54.1108 69.57 54.4009 70.0769 54.4009C70.2607 54.4009 70.399 54.371 70.5099 54.3046V53.9042C70.4254 53.9685 70.3251 53.9985 70.2142 53.9985C70.058 53.9985 69.9481 53.9609 69.8836 53.8763C69.8181 53.793 69.7812 53.6515 69.7812 53.4567V51.8134H70.5098V51.4215H69.7812V50.563C69.6228 50.6186 69.4676 50.6658 69.3207 50.7128V51.4215H68.8243V51.8134H69.3207V53.5402L69.3217 53.5412ZM118.749 58.909C118.593 58.7592 118.408 58.6842 118.179 58.6842C117.946 58.6842 117.754 58.7592 117.598 58.9198C117.441 59.0772 117.367 59.273 117.367 59.4979C117.367 59.7313 117.441 59.9262 117.596 60.076C117.753 60.2258 117.945 60.3009 118.177 60.3009C118.407 60.3009 118.6 60.2258 118.758 60.0674C118.914 59.9068 118.996 59.7217 118.996 59.4894C118.987 59.2538 118.904 59.0589 118.748 58.9091L118.749 58.909ZM118.675 60.0118C118.538 60.1509 118.371 60.2151 118.168 60.2151C117.967 60.2151 117.8 60.1509 117.661 60.0118C117.524 59.8704 117.45 59.6938 117.45 59.4872C117.45 59.2837 117.513 59.1147 117.653 58.9733C117.79 58.8343 117.956 58.7699 118.168 58.7699C118.369 58.7699 118.536 58.8343 118.675 58.9733C118.812 59.1147 118.886 59.2837 118.886 59.4872C118.886 59.7035 118.823 59.8704 118.675 60.0118ZM118.261 59.5353C118.343 59.5161 118.409 59.4786 118.454 59.4326C118.501 59.3844 118.518 59.319 118.518 59.2443C118.518 59.1607 118.491 59.0943 118.435 59.0483C118.372 58.9948 118.269 58.9658 118.14 58.9658H117.846V60.0107H117.994V59.5717H118.086C118.149 59.5717 118.213 59.6359 118.269 59.758L118.379 60.0096H118.555L118.417 59.729C118.37 59.607 118.315 59.5512 118.259 59.533L118.261 59.5353ZM118.159 59.4412H118.001V59.088H118.131C118.223 59.088 118.287 59.105 118.324 59.134C118.361 59.1618 118.37 59.1982 118.37 59.2646C118.37 59.3856 118.296 59.4413 118.159 59.4413L118.159 59.4412ZM92.4648 51.3017H92.5937V50.2557H92.9347V50.1251H92.1237V50.2557H92.4649V51.3017H92.4648ZM93.2464 50.5159C93.2464 50.4141 93.2464 50.3306 93.239 50.2836C93.2474 50.3392 93.2664 50.3767 93.2749 50.4045L93.671 51.3017H93.7344L94.1314 50.3959C94.142 50.3681 94.1505 50.3317 94.1684 50.2836C94.1599 50.3767 94.1599 50.4515 94.1599 50.5084V51.3006H94.2973V50.1251H94.1314L93.7724 50.9366C93.7639 50.9656 93.7353 51.0222 93.7174 51.0865H93.7068C93.6994 51.0489 93.6805 51.0115 93.6541 50.9474L93.295 50.1252H93.1091V51.3028H93.239V50.517L93.2464 50.5159Z" fill="#344154"/>
</g>
<defs>
<clipPath id="clip0">
<rect x="47" y="11" width="72" height="59" fill="white"/>
</clipPath>
</defs>
</svg>
