<svg width="165" height="80" viewBox="0 0 165 80" fill="none" xmlns="http://www.w3.org/2000/svg">
<path d="M77 51.8426C91.9117 51.8426 104 45.8337 104 38.4213C104 31.0089 91.9117 25 77 25C62.0883 25 50 31.0089 50 38.4213C50 45.8337 62.0883 51.8426 77 51.8426Z" fill="#344154"/>
<path fill-rule="evenodd" clip-rule="evenodd" d="M57.582 46.3681L60.5411 32.0637H67.3832C70.3421 32.2404 71.8216 33.653 71.8216 36.1256C71.8216 40.3638 68.308 42.8362 65.164 42.6595H61.8356L61.0958 46.3681H57.582ZM62.5751 40.0107L63.4999 34.7127H65.9039C67.1985 34.7127 68.123 35.2425 68.123 36.302C67.9382 39.3043 66.4587 39.8341 64.7944 40.0107H62.5753H62.5751ZM71.1341 42.6595L74.093 28.3554H77.6068L76.867 32.0637H80.1956C83.1546 32.2404 84.2641 33.653 83.8944 35.4191L82.5999 42.6595H78.9013L80.1958 36.1256C80.3806 35.2425 80.3806 34.7127 79.0863 34.7127H76.3122L74.6479 42.6595H71.1341V42.6595ZM82.363 46.3681L85.3218 32.0637H92.1642C95.1232 32.2404 96.6027 33.653 96.6027 36.1256C96.6027 40.3638 93.0889 42.8362 89.9451 42.6595H86.6163L85.8766 46.3681H82.363V46.3681ZM87.3559 40.0107L88.2806 34.7127H90.6849C91.9794 34.7127 92.9039 35.2425 92.9039 36.302C92.7192 39.3043 91.2396 39.8341 89.5753 40.0107H87.3561H87.3559Z" fill="#F9F9F9"/>
</svg>
