<svg width="165" height="80" viewBox="0 0 165 80" fill="none" xmlns="http://www.w3.org/2000/svg">
<path d="M56.1562 39.9478C56.1562 43.9579 60.1139 47.7013 66.3532 49.8114C65.1072 56.0174 66.13 61.0196 69.5458 62.9686C73.0567 64.9721 78.2873 63.5853 83.2519 59.2914C88.0913 63.4119 92.9821 65.0335 96.3949 63.0788C99.9027 61.0697 100.969 55.7284 99.689 49.3285C106.188 47.2027 109.823 44.0107 109.823 39.9478C109.823 36.0308 105.858 32.6422 99.7027 30.5456C101.081 23.8814 99.9132 19.0006 96.3559 16.971C92.9264 15.0143 87.9786 16.7198 83.0682 20.9479C77.9595 16.4601 73.0607 15.09 69.5072 17.1252C66.0809 19.0876 65.1032 24.1808 66.3532 30.5016C60.3244 32.5813 56.1562 36.0467 56.1562 39.9478Z" fill="white"/>
<path d="M98.4016 32.6277C97.8943 32.4555 97.3827 32.296 96.8673 32.1493C96.9528 31.8057 97.0318 31.4605 97.1044 31.114C98.2658 25.536 97.5064 21.0424 94.9133 19.5631C92.427 18.1444 88.3608 19.6236 84.254 23.1596C83.8493 23.5088 83.4536 23.8681 83.0673 24.2371C82.8086 23.9917 82.5453 23.7511 82.2776 23.5154C77.9736 19.7343 73.6595 18.1411 71.069 19.6247C68.5851 21.0474 67.8494 25.272 68.895 30.5583C68.999 31.0817 69.1165 31.6025 69.2472 32.1201C68.6368 32.2917 68.0473 32.4745 67.4832 32.669C62.4374 34.4095 59.2148 37.1376 59.2148 39.9671C59.2148 42.8897 62.6741 45.821 67.93 47.5982C68.3562 47.7417 68.7859 47.8746 69.2188 47.9968C69.0781 48.5545 68.9533 49.1159 68.8444 49.6804C67.8475 54.8748 68.6261 58.9993 71.1034 60.4132C73.6622 61.873 77.9567 60.3725 82.1386 56.7558C82.4691 56.4699 82.8009 56.1666 83.1331 55.8488C83.5515 56.2483 83.9812 56.6361 84.4215 57.0119C88.4721 60.4606 92.4726 61.8532 94.9479 60.4355C97.5043 58.9713 98.3349 54.5405 97.2563 49.1497C97.174 48.7379 97.078 48.3174 96.9704 47.8892C97.2721 47.8011 97.568 47.7101 97.8568 47.6154C103.321 45.8243 106.875 42.9287 106.875 39.9671C106.875 37.1274 103.549 34.3809 98.4016 32.6277V32.6277Z" fill="#344154"/>
<path d="M97.2157 45.7032C96.9552 45.7885 96.6877 45.871 96.4152 45.9509C95.8119 44.0616 94.9977 42.0525 94.0017 39.977C94.9524 37.9505 95.7349 35.9673 96.3213 34.0901C96.8088 34.2299 97.2821 34.3771 97.7381 34.5325C102.149 36.0345 104.839 38.2557 104.839 39.967C104.839 41.7899 101.933 44.1565 97.2159 45.7032H97.2157ZM95.2582 49.5409C95.7351 51.9246 95.8033 54.0798 95.4873 55.7646C95.2034 57.2785 94.6326 58.2877 93.9269 58.692C92.4248 59.5522 89.2126 58.434 85.7487 55.4847C85.3516 55.1466 84.9514 54.7856 84.5502 54.4037C85.8932 52.9503 87.2354 51.2607 88.5452 49.3846C90.8494 49.1823 93.0262 48.8515 95.0003 48.4001C95.0973 48.7883 95.1838 49.1688 95.2582 49.5409V49.5409ZM75.4626 58.5434C73.9952 59.0561 72.8264 59.0707 72.12 58.6677C70.6165 57.81 69.9917 54.498 70.8441 50.0559C70.9454 49.531 71.0615 49.0089 71.1921 48.4903C73.1443 48.9175 75.3052 49.2249 77.6149 49.4102C78.9334 51.2461 80.3144 52.9336 81.7061 54.4114C81.4103 54.6945 81.1075 54.9703 80.798 55.2387C78.9488 56.8381 77.0958 57.9726 75.4628 58.5434H75.4626ZM68.5878 45.6919C66.2638 44.9059 64.3445 43.8846 63.029 42.7702C61.8469 41.7684 61.25 40.774 61.25 39.967C61.25 38.25 63.8375 36.0598 68.1529 34.5711C68.6945 34.3851 69.2415 34.2148 69.7932 34.0605C70.3897 35.9798 71.1721 37.9866 72.1162 40.016C71.1598 42.0756 70.3663 44.1144 69.7643 46.0563C69.3692 45.9444 68.9769 45.8229 68.5878 45.6919V45.6919ZM70.8924 30.1712C69.9966 25.6419 70.5914 22.2253 72.0884 21.368C73.683 20.4548 77.2086 21.757 80.9248 25.0216C81.1623 25.2303 81.4009 25.4488 81.6398 25.6749C80.2553 27.146 78.887 28.8207 77.5799 30.646C75.3383 30.8516 73.1926 31.1817 71.22 31.6239C71.0985 31.1424 70.9892 30.658 70.8924 30.171V30.1712ZM91.451 35.1939C90.985 34.3976 90.5018 33.6113 90.0017 32.8356C91.5225 33.0255 92.9794 33.2781 94.3474 33.5871C93.9368 34.8896 93.4248 36.2516 92.822 37.6477C92.3816 36.8208 91.9244 36.0027 91.451 35.1939V35.1939ZM83.0672 27.1144C84.0062 28.121 84.9468 29.245 85.8719 30.4644C83.9953 30.3767 82.1155 30.3763 80.2388 30.4632C81.1648 29.255 82.1134 28.1327 83.0672 27.1144V27.1144ZM74.6296 35.2077C74.1621 36.0101 73.7135 36.8232 73.2843 37.6463C72.6914 36.2549 72.1841 34.8869 71.7699 33.5659C73.1297 33.2647 74.5798 33.0187 76.0907 32.8319C75.585 33.6124 75.0978 34.4045 74.6296 35.2077V35.2077ZM76.1342 47.2458C74.5733 47.0735 73.1012 46.8399 71.7418 46.5471C72.1626 45.2027 72.6811 43.8053 73.2866 42.3841C73.7177 43.2078 74.1682 44.0214 74.6379 44.8241C75.1171 45.643 75.616 46.4505 76.1342 47.2458V47.2458ZM83.1235 52.9618C82.1585 51.9315 81.196 50.792 80.2559 49.5663C81.1684 49.6018 82.0988 49.6198 83.0444 49.6198C84.0159 49.6198 84.9763 49.5983 85.9215 49.5565C84.9934 50.8045 84.0562 51.9457 83.1235 52.9618ZM92.8414 42.3117C93.4784 43.7483 94.0154 45.1382 94.4419 46.4599C93.0599 46.7719 91.568 47.0232 89.996 47.2097C90.4998 46.4196 90.9876 45.6195 91.4592 44.8102C91.9386 43.9876 92.3995 43.1545 92.8414 42.3117V42.3117ZM89.6954 43.8038C88.9734 45.0447 88.2109 46.2621 87.4089 47.4539C85.9949 47.5539 84.5336 47.6054 83.0444 47.6054C81.5614 47.6054 80.1186 47.5597 78.7292 47.4706C77.9065 46.2815 77.1295 45.0621 76.3999 43.8149C75.6738 42.5743 74.9955 41.3069 74.3666 40.0154C74.9939 38.7235 75.6702 37.4554 76.3938 36.2138V36.2142C77.1173 34.9723 77.8882 33.7581 78.7048 32.5741C80.1222 32.4681 81.5755 32.4126 83.0446 32.4126C84.5203 32.4126 85.9755 32.4685 87.3925 32.5754C88.2008 33.7575 88.9668 34.9675 89.6889 36.2031C90.415 37.442 91.1003 38.7039 91.7435 39.9868C91.1069 41.2828 90.4238 42.5559 89.6956 43.8038H89.6954ZM93.8956 21.3081C95.4915 22.2189 96.1123 25.8913 95.1095 30.7074C95.0438 31.0211 94.9724 31.3336 94.8952 31.6448C92.918 31.1934 90.7707 30.8574 88.5226 30.6487C87.213 28.8036 85.8561 27.1259 84.4939 25.6738C84.8509 25.3333 85.2163 25.0017 85.5899 24.6792C89.1086 21.6493 92.3972 20.4531 93.8956 21.3081V21.3081Z" fill="white"/>
<path d="M83.045 35.7561C85.3956 35.7561 87.3009 37.6415 87.3009 39.967C87.3009 42.2927 85.3956 44.178 83.045 44.178C80.6946 44.178 78.7891 42.2927 78.7891 39.967C78.7891 37.6415 80.6946 35.7561 83.045 35.7561" fill="#344154"/>
</svg>
