<svg width="164" height="80" viewBox="0 0 164 80" fill="none" xmlns="http://www.w3.org/2000/svg">
<path d="M77.29 65.7505H77.0469V65.6149H77.7016V65.7505H77.4599V66.4273H77.29V65.7505V65.7505ZM78.5958 65.7858H78.5919L78.3509 66.4275H78.2406L78.0012 65.7858H77.9984V66.4275H77.8381V65.6151H78.0739L78.2959 66.1904L78.5171 65.6151H78.7521V66.4275H78.5956L78.5958 65.7858V65.7858Z" fill="#344154"/>
<path d="M55.5202 49.1384C55.5202 49.1384 53.8283 50.1194 56.7243 50.4514C60.2329 50.8504 62.026 50.7932 65.8925 50.0636C65.8925 50.0636 66.909 50.6991 68.3286 51.2495C59.6611 54.9531 48.7124 51.035 55.5202 49.1384ZM54.4611 44.3054C54.4611 44.3054 52.5634 45.7059 55.4616 46.0048C59.2096 46.3903 62.1694 46.4218 67.291 45.4386C67.291 45.4386 67.9995 46.1546 69.1134 46.5462C58.6337 49.6014 46.9614 46.7871 54.4611 44.3054" fill="#344154"/>
<path d="M63.3885 36.1074C65.5242 38.5588 62.8275 40.765 62.8275 40.765C62.8275 40.765 68.2501 37.9739 65.7598 34.4789C63.4338 31.2194 61.65 29.6001 71.3065 24.0165C71.3066 24.0164 56.149 27.7907 63.3885 36.1074" fill="#344154"/>
<path d="M74.8498 52.7132C74.8498 52.7132 76.1019 53.7419 73.4709 54.5375C68.4679 56.0485 52.6479 56.5048 48.2531 54.5978C46.6733 53.9125 49.6359 52.9616 50.5678 52.7621C51.5397 52.552 52.0951 52.5911 52.0951 52.5911C50.3382 51.3572 40.7393 55.0139 47.2193 56.0613C64.8913 58.9186 79.4338 54.7746 74.8498 52.7132V52.7132ZM56.3304 39.2979C56.3304 39.2979 48.2833 41.2035 53.4807 41.8955C55.6752 42.1884 60.0499 42.1222 64.1247 41.7818C67.4549 41.5017 70.799 40.9063 70.799 40.9063C70.799 40.9063 69.6247 41.4077 68.7752 41.9859C60.6035 44.1288 44.8174 43.1318 49.362 40.9401C53.2054 39.0878 56.3304 39.2979 56.3304 39.2979V39.2979ZM70.7658 47.3427C79.0727 43.039 75.2321 38.9032 72.5511 39.4605C71.8941 39.5968 71.6011 39.715 71.6011 39.715C71.6011 39.715 71.8451 39.334 72.3108 39.1691C77.6143 37.3101 81.693 44.6518 70.5988 47.5597C70.5988 47.5597 70.7275 47.4452 70.7658 47.3427Z" fill="#344154"/>
<path d="M65.7581 15C65.7581 15 70.3586 19.5881 61.3948 26.6436C54.2067 32.3032 59.7557 35.5302 61.3918 39.2172C57.1961 35.4428 54.1169 32.1204 56.1827 29.0281C59.2146 24.4889 67.6143 22.2881 65.7581 15" fill="#344154"/>
<path d="M57.1465 59.0045C65.12 59.5134 77.3643 58.7221 77.6542 54.9607C77.6542 54.9607 77.0969 56.3866 71.0645 57.5191C64.259 58.7959 55.8651 58.6469 50.8867 57.8286C50.887 57.8284 51.906 58.6694 57.1465 59.0045" fill="#344154"/>
<path d="M97.9933 41.6969C97.2411 42.3474 96.4467 42.7125 95.7337 42.7125C94.7161 42.7125 94.1664 42.1042 94.1664 41.1284C94.1664 40.073 94.7555 39.3013 97.1187 39.3013H97.9932L97.9933 41.6969V41.6969ZM100.069 44.0317V36.8046C100.069 34.9582 99.0127 33.7401 96.4662 33.7401C94.9796 33.7401 93.6774 34.1061 92.619 34.5729L92.9245 35.8521C93.7579 35.5472 94.8366 35.2633 95.8953 35.2633C97.3622 35.2633 97.9933 35.8521 97.9933 37.0695V37.9831H97.2611C93.6971 37.9831 92.0894 39.3624 92.0894 41.4327C92.0894 43.2195 93.1489 44.2351 95.1437 44.2351C96.426 44.2351 97.3832 43.7072 98.278 42.9348L98.4404 44.0319L100.069 44.0317V44.0317ZM106.996 44.0317H104.407L101.292 33.9231H103.552L105.485 40.1338L105.915 42.0016C106.893 39.301 107.585 36.5611 107.931 33.9231H110.13C109.541 37.2517 108.48 40.9053 106.996 44.0317V44.0317ZM116.926 41.6969C116.172 42.3474 115.377 42.7125 114.664 42.7125C113.648 42.7125 113.097 42.1042 113.097 41.1284C113.097 40.073 113.687 39.3013 116.05 39.3013H116.926V41.6969ZM119.001 44.0317V36.8046C119.001 34.9582 117.943 33.7401 115.399 33.7401C113.912 33.7401 112.609 34.1061 111.551 34.5729L111.856 35.8521C112.69 35.5472 113.77 35.2633 114.828 35.2633C116.294 35.2633 116.926 35.8521 116.926 37.0695V37.9831H116.193C112.628 37.9831 111.021 39.3624 111.021 41.4327C111.021 43.2195 112.079 44.2351 114.074 44.2351C115.357 44.2351 116.314 43.7072 117.21 42.9348L117.373 44.0319L119.001 44.0317V44.0317ZM89.8136 45.7482C89.222 46.6095 88.2663 47.2909 87.2201 47.6764L86.1953 46.4741C86.9917 46.0667 87.6746 45.4087 87.9919 44.796C88.2664 44.251 88.38 43.5485 88.38 41.8686V30.3281H90.5852V41.7105C90.585 43.9562 90.405 44.8635 89.8136 45.7482" fill="#344154"/>
</svg>
