<svg width="165" height="80" viewBox="0 0 165 80" fill="none" xmlns="http://www.w3.org/2000/svg">
<path d="M98.9411 26.0173L95.9455 59.1934L82.4798 62.8839L69.0512 59.1985L66.0586 26.0173H98.9411Z" fill="#344154"/>
<path d="M82.5 60.0628L93.3809 57.0807L95.9408 28.7302H82.5V60.0628Z" fill="#495970"/>
<path d="M76.6746 36.8695H82.4981V32.7999H72.1758L72.2743 33.8917L73.2861 45.1063H82.4981V41.0367H77.0509L76.6746 36.8695V36.8695ZM77.6024 47.1411H73.47L74.0467 53.5309L82.4792 55.8449L82.4981 55.8398V51.6058L82.4801 51.6105L77.8955 50.3867L77.6024 47.1411V47.1411Z" fill="#EBEBEB"/>
<path d="M69.1172 17H71.2092V19.0432H73.1229V17H75.215V23.1874H73.123V21.1155H71.2093V23.1874H69.1173V17H69.1172ZM77.9659 19.0519H76.1245V17H81.9008V19.0519H80.0582V23.1874H77.9663V19.0519H77.9661H77.9659ZM82.8175 17H84.9988L86.3406 19.1741L87.6811 17H89.8633V23.1874H87.7798V20.1206L86.3406 22.3206H86.3045L84.8644 20.1206V23.1874H82.8175V17ZM90.9044 17H92.997V21.1423H95.9389V23.1874H90.9043V17H90.9044Z" fill="#344154"/>
<path d="M82.4845 45.1063H87.5536L87.0756 50.3842L82.4844 51.6092V55.843L90.9236 53.5309L90.9854 52.8433L91.9529 42.1295L92.0533 41.0367H82.4845V45.1063ZM82.4845 36.8595V36.8695H92.4279L92.5104 35.9548L92.6981 33.8917L92.7964 32.7999H82.4845V36.8596V36.8595Z" fill="white"/>
</svg>
