<svg width="165" height="80" viewBox="0 0 165 80" fill="none" xmlns="http://www.w3.org/2000/svg">
<g clip-path="url(#clip0)">
<path fill-rule="evenodd" clip-rule="evenodd" d="M57.8867 48.1418V32.7383H59.8168L68.9906 45.1345V32.7383H70.8254V48.1418H68.8953L59.7215 35.6234V48.1418H57.8867ZM85.7656 47.5306C84.5504 47.9951 83.2398 48.2396 81.8578 48.2396C76.425 48.2396 73.7086 45.5746 73.7086 40.22C73.7086 35.1589 76.3297 32.6161 81.5719 32.6161C83.073 32.6161 84.4789 32.8361 85.7656 33.2518V34.9633C84.4789 34.4498 83.1445 34.2053 81.7863 34.2053C77.6879 34.2053 75.6387 36.2102 75.6387 40.1711C75.6387 44.4499 77.6641 46.577 81.691 46.577C82.3344 46.577 83.0492 46.4792 83.8355 46.3081V41.1491H85.7656V47.5306V47.5306ZM88.8633 42.2005V32.7383H90.7934V42.2005C90.7934 45.1589 92.223 46.6504 95.1063 46.6504C97.9656 46.6504 99.4191 45.1589 99.4191 42.2005V32.7383H101.349V42.2005C101.349 46.2347 99.2762 48.2641 95.1063 48.2641C90.9363 48.2641 88.8633 46.2347 88.8633 42.2005V42.2005ZM106.734 32.7383V46.5281H114.598V48.1418H104.804V32.7383H106.734V32.7383ZM117.386 48.1418H115.36L122.818 30.709L130.277 48.1418H128.132L126.202 43.3007H121.246L121.77 41.687H125.559L122.747 34.7188L117.386 48.1418V48.1418ZM132.35 48.1418V32.7383H138.759C141.619 32.7383 143.048 33.9608 143.048 36.4303C143.048 38.4352 141.643 39.9266 138.855 40.8802L144.002 48.1418H141.452L136.686 41.2225V39.9266C139.546 39.4621 140.999 38.3374 140.999 36.5281C140.999 35.11 140.213 34.4009 138.616 34.4009H134.327V48.1418H132.35V48.1418Z" fill="#344154"/>
<path fill-rule="evenodd" clip-rule="evenodd" d="M22 28.6324L37.3691 23.0089L53.1434 28.5346L50.5938 49.3904L37.3691 56.8966L24.359 49.4882L22 28.6324Z" fill="#344154"/>
<path fill-rule="evenodd" clip-rule="evenodd" d="M53.1453 28.533L37.3711 23.0073V56.895L50.5957 49.3888L53.1453 28.533V28.533Z" fill="#495970"/>
<path fill-rule="evenodd" clip-rule="evenodd" d="M37.3914 26.9681L27.8125 48.8264L31.3867 48.7531L33.3168 43.8142H41.8711L43.968 48.802L47.3754 48.8753L37.3914 26.9681V26.9681ZM37.4152 33.9853L40.6559 40.9291H34.5797L37.4152 33.9853V33.9853Z" fill="white"/>
</g>
<defs>
<clipPath id="clip0">
<rect x="22" y="23" width="122" height="34" fill="white"/>
</clipPath>
</defs>
</svg>
