<svg width="165" height="80" viewBox="0 0 165 80" fill="none" xmlns="http://www.w3.org/2000/svg">
<path d="M120.04 52.449V57H128.299C129.992 57 132.896 55.7679 132.997 52.3233V50.5632C132.997 47.6214 130.573 45.8865 128.299 45.8865H124.182V43.7744H132.341V39.1982H124.51C122.49 39.1982 119.787 40.8577 119.787 43.9504V45.5344C119.787 48.6271 122.465 50.2112 124.51 50.2112C130.194 50.2363 123.147 50.2112 128.4 50.2112V52.4238L120.04 52.449ZM75.7865 51.3426C75.7865 51.3426 80.2068 50.9655 80.2068 45.283C80.2068 39.6005 74.8519 39.0725 74.8519 39.0725H65.2031V57H70.0528V52.6753L74.2457 57H81.4192L75.7865 51.3426V51.3426ZM73.9174 47.6717H70.0528V43.5732H73.9426C73.9426 43.5732 75.0287 43.9755 75.0287 45.6099C75.0287 47.2442 73.9174 47.6717 73.9174 47.6717V47.6717ZM92.1794 39.1982H87.2539C83.743 39.1982 82.5558 42.3663 82.5558 43.875V57H87.4813V53.857H92.1036V57H96.8775V43.875C96.8775 40.0531 93.3918 39.1982 92.1794 39.1982V39.1982ZM92.1036 48.778H87.456V44.4281C87.456 44.4281 87.456 43.4475 88.9968 43.4475H90.6891C92.0531 43.4475 92.0784 44.4281 92.0784 44.4281V48.778H92.1036V48.778ZM99.1255 39.1982H104.253V57H99.1255V39.1982ZM111.452 52.3987V39.1982H106.35V57H118.347V52.3987H111.452Z" fill="#344154"/>
<path d="M34.7695 57H54.7238C54.7238 57 50.9097 39.676 63.539 32.6609C66.2922 31.3283 75.0569 26.3499 89.4038 36.9102C89.8584 36.533 90.2878 36.2313 90.2878 36.2313C90.2878 36.2313 77.1534 23.1818 62.5287 24.6401C55.1784 25.2938 46.1359 31.9569 40.8316 40.7572C35.5273 49.5575 34.7695 57 34.7695 57Z" fill="black"/>
<path d="M34.7695 57H54.7238C54.7238 57 50.9097 39.676 63.539 32.6609C66.2922 31.3283 75.0569 26.3499 89.4038 36.9102C89.8584 36.533 90.2878 36.2313 90.2878 36.2313C90.2878 36.2313 77.1534 23.1818 62.5287 24.6401C55.1784 25.2938 46.1359 31.9569 40.8316 40.7572C35.5273 49.5575 34.7695 57 34.7695 57Z" fill="black"/>
<path d="M34.7695 56.9999H54.7238C54.7238 56.9999 50.9097 39.676 63.539 32.6609C66.2922 31.3283 75.0569 26.3498 89.4038 36.9102C89.8584 36.533 90.2878 36.2313 90.2878 36.2313C90.2878 36.2313 77.1534 23.1817 62.5287 24.6401C55.1532 25.2938 46.1106 31.9569 40.8063 40.7571C35.502 49.5574 34.7695 56.9999 34.7695 56.9999ZM76.3451 26.0481L76.4461 24.3635C76.2188 24.2378 75.5874 23.936 73.9961 23.4835L73.895 25.1429C74.7286 25.4195 75.5368 25.7212 76.3451 26.0481Z" fill="#344154"/>
<path d="M73.9442 31.3786L73.8432 32.9626C74.6767 32.9878 75.5103 33.0884 76.3438 33.2644L76.4448 31.7055C75.586 31.5295 74.7525 31.4289 73.9442 31.3786ZM64.5985 23.5338H64.8511L64.3459 22C63.5629 22 62.7547 22.0503 61.9211 22.1509L62.401 23.6343C63.1335 23.5589 63.866 23.5338 64.5985 23.5338V23.5338ZM65.8109 32.7866L66.3919 34.5216C67.1244 34.1695 67.8569 33.8678 68.5894 33.6415L68.0337 31.982C67.1749 32.2335 66.4424 32.5101 65.8109 32.7866ZM54.3435 26.1739L53.2069 24.4389C52.5754 24.7658 51.9187 25.1178 51.2367 25.5201L52.3986 27.2802C53.0553 26.8779 53.6868 26.5007 54.3435 26.1739ZM59.5215 37.4885L60.734 39.2989C61.1634 38.6703 61.6685 38.092 62.2242 37.5136L61.0876 35.8039C60.5066 36.3319 59.9762 36.9102 59.5215 37.4885ZM55.859 45.5848L57.905 47.194C58.006 46.2134 58.1828 45.2328 58.4354 44.2522L56.6168 42.819C56.2884 43.7493 56.0611 44.6796 55.859 45.5848V45.5848ZM44.7958 33.6415L43.0024 32.0826C42.3457 32.7112 41.7142 33.3398 41.1333 33.9684L43.0782 35.6279C43.6086 34.949 44.1896 34.2701 44.7958 33.6415ZM37.1677 44.8807L34.2629 43.8247C33.783 44.9059 33.2526 46.1631 33 46.842L35.9047 47.898C36.2331 47.0431 36.7635 45.8111 37.1677 44.8807ZM55.4802 51.9713C55.5307 53.3039 55.657 54.3851 55.7833 55.1394L58.8143 56.2205C58.587 55.2399 58.3597 54.1336 58.2081 52.9519L55.4802 51.9713Z" fill="#344154"/>
</svg>
